M48
; DRILL file {KiCad (5.1.9)-1} date 05/23/21 14:15:32
; FORMAT={-:-/ absolute / inch / decimal}
; #@! TF.CreationDate,2021-05-23T14:15:32+02:00
; #@! TF.GenerationSoftware,Kicad,Pcbnew,(5.1.9)-1
; #@! TF.FileFunction,Plated,1,4,PTH
FMAT,2
INCH
T1C0.0315
T2C0.0394
T3C0.0400
T4C0.0433
T5C0.1200
%
G90
G05
T1
X4.6609Y-4.0222
X4.6613Y-3.8293
X4.7102Y-4.2781
X4.9901Y-3.5183
X5.0609Y-4.0222
X5.0613Y-3.8293
X5.0688Y-3.5183
X5.0905Y-4.6699
X5.0905Y-4.7486
X5.1102Y-4.2781
X5.3011Y-3.3215
X5.309Y-3.538
X5.3543Y-3.7506
X5.3543Y-4.1506
X5.3582Y-4.4258
X5.3582Y-4.6226
X5.3877Y-3.538
X5.498Y-3.3215
X5.5724Y-4.7171
X5.5924Y-3.9986
X5.5924Y-4.0986
X5.5924Y-4.1986
X5.5924Y-4.2986
X5.6003Y-4.5301
X5.7972Y-4.5301
X5.8924Y-3.9986
X5.8924Y-4.0986
X5.8924Y-4.1986
X5.8924Y-4.2986
X5.9724Y-4.7171
X5.9842Y-3.6758
X6.181Y-3.6758
X6.2243Y-4.1911
X6.2243Y-4.5911
X6.3936Y-4.1896
X6.3936Y-4.5896
T2
X4.5649Y-3.0518
X4.807Y-3.4652
X4.807Y-3.5652
X4.807Y-3.6652
X4.8956Y-4.5183
X5.1141Y-3.2762
X6.0373Y-4.4022
X6.6062Y-4.2053
X6.6298Y-4.5222
X6.7991Y-3.6797
T3
X5.11Y-2.975
X5.21Y-2.975
X5.31Y-2.975
X5.41Y-2.975
X5.4708Y-4.8766
X5.51Y-2.975
X5.5708Y-4.8766
X5.61Y-2.975
X5.6708Y-4.8766
X5.71Y-2.975
X5.7708Y-4.8766
X5.81Y-2.975
X5.8708Y-4.8766
X5.91Y-2.975
X5.9708Y-4.8766
X6.01Y-2.975
X6.0708Y-4.8766
X6.17Y-2.975
X6.1708Y-4.8766
X6.27Y-2.975
X6.37Y-2.975
X6.37Y-4.875
X6.47Y-2.975
X6.47Y-4.875
X6.57Y-2.975
X6.57Y-4.875
X6.67Y-2.975
X6.67Y-4.875
X6.77Y-2.975
X6.77Y-4.875
X6.87Y-2.975
X6.87Y-4.875
T4
X6.4409Y-3.1522
X6.4409Y-3.4081
X6.618Y-3.1522
X6.618Y-3.4081
T5
X4.92Y-4.875
X4.97Y-2.975
X6.97Y-3.575
X6.97Y-4.675
T0
M30
