%TF.GenerationSoftware,KiCad,Pcbnew,(5.1.9)-1*%
%TF.CreationDate,2021-05-23T14:15:34+02:00*%
%TF.ProjectId,NewRadar,4e657752-6164-4617-922e-6b696361645f,Radar_1v1.1*%
%TF.SameCoordinates,Original*%
%TF.FileFunction,Legend,Top*%
%TF.FilePolarity,Positive*%
%FSLAX46Y46*%
G04 Gerber Fmt 4.6, Leading zero omitted, Abs format (unit mm)*
G04 Created by KiCad (PCBNEW (5.1.9)-1) date 2021-05-23 14:15:34*
%MOMM*%
%LPD*%
G01*
G04 APERTURE LIST*
%ADD10C,0.187500*%
%ADD11C,0.120000*%
%ADD12C,0.150000*%
G04 APERTURE END LIST*
D10*
X174124785Y-111301160D02*
X174874785Y-111051160D01*
X174124785Y-110801160D01*
X174874785Y-110551160D02*
X174374785Y-110551160D01*
X174124785Y-110551160D02*
X174160500Y-110586875D01*
X174196214Y-110551160D01*
X174160500Y-110515446D01*
X174124785Y-110551160D01*
X174196214Y-110551160D01*
X174374785Y-110194017D02*
X174874785Y-110194017D01*
X174446214Y-110194017D02*
X174410500Y-110158303D01*
X174374785Y-110086875D01*
X174374785Y-109979732D01*
X174410500Y-109908303D01*
X174481928Y-109872589D01*
X174874785Y-109872589D01*
X174874785Y-109408303D02*
X174839071Y-109479732D01*
X174803357Y-109515446D01*
X174731928Y-109551160D01*
X174517642Y-109551160D01*
X174446214Y-109515446D01*
X174410500Y-109479732D01*
X174374785Y-109408303D01*
X174374785Y-109301160D01*
X174410500Y-109229732D01*
X174446214Y-109194017D01*
X174517642Y-109158303D01*
X174731928Y-109158303D01*
X174803357Y-109194017D01*
X174839071Y-109229732D01*
X174874785Y-109301160D01*
X174874785Y-109408303D01*
X174874785Y-108515446D02*
X174124785Y-108515446D01*
X174839071Y-108515446D02*
X174874785Y-108586875D01*
X174874785Y-108729732D01*
X174839071Y-108801160D01*
X174803357Y-108836875D01*
X174731928Y-108872589D01*
X174517642Y-108872589D01*
X174446214Y-108836875D01*
X174410500Y-108801160D01*
X174374785Y-108729732D01*
X174374785Y-108586875D01*
X174410500Y-108515446D01*
X174874785Y-107586875D02*
X174124785Y-107586875D01*
X174874785Y-107158303D02*
X174446214Y-107479732D01*
X174124785Y-107158303D02*
X174553357Y-107586875D01*
X174374785Y-106515446D02*
X174874785Y-106515446D01*
X174374785Y-106836875D02*
X174767642Y-106836875D01*
X174839071Y-106801160D01*
X174874785Y-106729732D01*
X174874785Y-106622589D01*
X174839071Y-106551160D01*
X174803357Y-106515446D01*
X174874785Y-106158303D02*
X174374785Y-106158303D01*
X174446214Y-106158303D02*
X174410500Y-106122589D01*
X174374785Y-106051160D01*
X174374785Y-105944017D01*
X174410500Y-105872589D01*
X174481928Y-105836875D01*
X174874785Y-105836875D01*
X174481928Y-105836875D02*
X174410500Y-105801160D01*
X174374785Y-105729732D01*
X174374785Y-105622589D01*
X174410500Y-105551160D01*
X174481928Y-105515446D01*
X174874785Y-105515446D01*
X174874785Y-104836875D02*
X174481928Y-104836875D01*
X174410500Y-104872589D01*
X174374785Y-104944017D01*
X174374785Y-105086875D01*
X174410500Y-105158303D01*
X174839071Y-104836875D02*
X174874785Y-104908303D01*
X174874785Y-105086875D01*
X174839071Y-105158303D01*
X174767642Y-105194017D01*
X174696214Y-105194017D01*
X174624785Y-105158303D01*
X174589071Y-105086875D01*
X174589071Y-104908303D01*
X174553357Y-104836875D01*
X174874785Y-104479732D02*
X174374785Y-104479732D01*
X174517642Y-104479732D02*
X174446214Y-104444017D01*
X174410500Y-104408303D01*
X174374785Y-104336875D01*
X174374785Y-104265446D01*
X174874785Y-103444017D02*
X174124785Y-103444017D01*
X174874785Y-103015446D02*
X174446214Y-103336875D01*
X174124785Y-103015446D02*
X174553357Y-103444017D01*
X174874785Y-102372589D02*
X174481928Y-102372589D01*
X174410500Y-102408303D01*
X174374785Y-102479732D01*
X174374785Y-102622589D01*
X174410500Y-102694017D01*
X174839071Y-102372589D02*
X174874785Y-102444017D01*
X174874785Y-102622589D01*
X174839071Y-102694017D01*
X174767642Y-102729732D01*
X174696214Y-102729732D01*
X174624785Y-102694017D01*
X174589071Y-102622589D01*
X174589071Y-102444017D01*
X174553357Y-102372589D01*
X174374785Y-102015446D02*
X174874785Y-102015446D01*
X174446214Y-102015446D02*
X174410500Y-101979732D01*
X174374785Y-101908303D01*
X174374785Y-101801160D01*
X174410500Y-101729732D01*
X174481928Y-101694017D01*
X174874785Y-101694017D01*
X174839071Y-101015446D02*
X174874785Y-101086875D01*
X174874785Y-101229732D01*
X174839071Y-101301160D01*
X174803357Y-101336875D01*
X174731928Y-101372589D01*
X174517642Y-101372589D01*
X174446214Y-101336875D01*
X174410500Y-101301160D01*
X174374785Y-101229732D01*
X174374785Y-101086875D01*
X174410500Y-101015446D01*
X174874785Y-100694017D02*
X174124785Y-100694017D01*
X174874785Y-100372589D02*
X174481928Y-100372589D01*
X174410500Y-100408303D01*
X174374785Y-100479732D01*
X174374785Y-100586875D01*
X174410500Y-100658303D01*
X174446214Y-100694017D01*
X174874785Y-100015446D02*
X174374785Y-100015446D01*
X174124785Y-100015446D02*
X174160500Y-100051160D01*
X174196214Y-100015446D01*
X174160500Y-99979732D01*
X174124785Y-100015446D01*
X174196214Y-100015446D01*
X176187285Y-115479732D02*
X175830142Y-115729732D01*
X176187285Y-115908303D02*
X175437285Y-115908303D01*
X175437285Y-115622589D01*
X175473000Y-115551160D01*
X175508714Y-115515446D01*
X175580142Y-115479732D01*
X175687285Y-115479732D01*
X175758714Y-115515446D01*
X175794428Y-115551160D01*
X175830142Y-115622589D01*
X175830142Y-115908303D01*
X176187285Y-114836875D02*
X175794428Y-114836875D01*
X175723000Y-114872589D01*
X175687285Y-114944017D01*
X175687285Y-115086875D01*
X175723000Y-115158303D01*
X176151571Y-114836875D02*
X176187285Y-114908303D01*
X176187285Y-115086875D01*
X176151571Y-115158303D01*
X176080142Y-115194017D01*
X176008714Y-115194017D01*
X175937285Y-115158303D01*
X175901571Y-115086875D01*
X175901571Y-114908303D01*
X175865857Y-114836875D01*
X176187285Y-114158303D02*
X175437285Y-114158303D01*
X176151571Y-114158303D02*
X176187285Y-114229732D01*
X176187285Y-114372589D01*
X176151571Y-114444017D01*
X176115857Y-114479732D01*
X176044428Y-114515446D01*
X175830142Y-114515446D01*
X175758714Y-114479732D01*
X175723000Y-114444017D01*
X175687285Y-114372589D01*
X175687285Y-114229732D01*
X175723000Y-114158303D01*
X176187285Y-113479732D02*
X175794428Y-113479732D01*
X175723000Y-113515446D01*
X175687285Y-113586875D01*
X175687285Y-113729732D01*
X175723000Y-113801160D01*
X176151571Y-113479732D02*
X176187285Y-113551160D01*
X176187285Y-113729732D01*
X176151571Y-113801160D01*
X176080142Y-113836875D01*
X176008714Y-113836875D01*
X175937285Y-113801160D01*
X175901571Y-113729732D01*
X175901571Y-113551160D01*
X175865857Y-113479732D01*
X176187285Y-113122589D02*
X175687285Y-113122589D01*
X175830142Y-113122589D02*
X175758714Y-113086875D01*
X175723000Y-113051160D01*
X175687285Y-112979732D01*
X175687285Y-112908303D01*
X175901571Y-112658303D02*
X175901571Y-112086875D01*
X175973000Y-111765446D02*
X175973000Y-111408303D01*
X176187285Y-111836875D02*
X175437285Y-111586875D01*
X176187285Y-111336875D01*
X176187285Y-111086875D02*
X175687285Y-111086875D01*
X175758714Y-111086875D02*
X175723000Y-111051160D01*
X175687285Y-110979732D01*
X175687285Y-110872589D01*
X175723000Y-110801160D01*
X175794428Y-110765446D01*
X176187285Y-110765446D01*
X175794428Y-110765446D02*
X175723000Y-110729732D01*
X175687285Y-110658303D01*
X175687285Y-110551160D01*
X175723000Y-110479732D01*
X175794428Y-110444017D01*
X176187285Y-110444017D01*
X175687285Y-110086875D02*
X176437285Y-110086875D01*
X175723000Y-110086875D02*
X175687285Y-110015446D01*
X175687285Y-109872589D01*
X175723000Y-109801160D01*
X175758714Y-109765446D01*
X175830142Y-109729732D01*
X176044428Y-109729732D01*
X176115857Y-109765446D01*
X176151571Y-109801160D01*
X176187285Y-109872589D01*
X176187285Y-110015446D01*
X176151571Y-110086875D01*
X176187285Y-109301160D02*
X176151571Y-109372589D01*
X176080142Y-109408303D01*
X175437285Y-109408303D01*
X176187285Y-109015446D02*
X175687285Y-109015446D01*
X175437285Y-109015446D02*
X175473000Y-109051160D01*
X175508714Y-109015446D01*
X175473000Y-108979732D01*
X175437285Y-109015446D01*
X175508714Y-109015446D01*
X175687285Y-108765446D02*
X175687285Y-108479732D01*
X176187285Y-108658303D02*
X175544428Y-108658303D01*
X175473000Y-108622589D01*
X175437285Y-108551160D01*
X175437285Y-108479732D01*
X176187285Y-108229732D02*
X175687285Y-108229732D01*
X175437285Y-108229732D02*
X175473000Y-108265446D01*
X175508714Y-108229732D01*
X175473000Y-108194017D01*
X175437285Y-108229732D01*
X175508714Y-108229732D01*
X176151571Y-107586875D02*
X176187285Y-107658303D01*
X176187285Y-107801160D01*
X176151571Y-107872589D01*
X176080142Y-107908303D01*
X175794428Y-107908303D01*
X175723000Y-107872589D01*
X175687285Y-107801160D01*
X175687285Y-107658303D01*
X175723000Y-107586875D01*
X175794428Y-107551160D01*
X175865857Y-107551160D01*
X175937285Y-107908303D01*
X176187285Y-107229732D02*
X175687285Y-107229732D01*
X175830142Y-107229732D02*
X175758714Y-107194017D01*
X175723000Y-107158303D01*
X175687285Y-107086875D01*
X175687285Y-107015446D01*
X176187285Y-106194017D02*
X175437285Y-106194017D01*
X175437285Y-105908303D01*
X175473000Y-105836875D01*
X175508714Y-105801160D01*
X175580142Y-105765446D01*
X175687285Y-105765446D01*
X175758714Y-105801160D01*
X175794428Y-105836875D01*
X175830142Y-105908303D01*
X175830142Y-106194017D01*
X176115857Y-105015446D02*
X176151571Y-105051160D01*
X176187285Y-105158303D01*
X176187285Y-105229732D01*
X176151571Y-105336875D01*
X176080142Y-105408303D01*
X176008714Y-105444017D01*
X175865857Y-105479732D01*
X175758714Y-105479732D01*
X175615857Y-105444017D01*
X175544428Y-105408303D01*
X175473000Y-105336875D01*
X175437285Y-105229732D01*
X175437285Y-105158303D01*
X175473000Y-105051160D01*
X175508714Y-105015446D01*
X175794428Y-104444017D02*
X175830142Y-104336875D01*
X175865857Y-104301160D01*
X175937285Y-104265446D01*
X176044428Y-104265446D01*
X176115857Y-104301160D01*
X176151571Y-104336875D01*
X176187285Y-104408303D01*
X176187285Y-104694017D01*
X175437285Y-104694017D01*
X175437285Y-104444017D01*
X175473000Y-104372589D01*
X175508714Y-104336875D01*
X175580142Y-104301160D01*
X175651571Y-104301160D01*
X175723000Y-104336875D01*
X175758714Y-104372589D01*
X175794428Y-104444017D01*
X175794428Y-104694017D01*
X176187285Y-103372589D02*
X175437285Y-103372589D01*
X175437285Y-103194017D01*
X175473000Y-103086875D01*
X175544428Y-103015446D01*
X175615857Y-102979732D01*
X175758714Y-102944017D01*
X175865857Y-102944017D01*
X176008714Y-102979732D01*
X176080142Y-103015446D01*
X176151571Y-103086875D01*
X176187285Y-103194017D01*
X176187285Y-103372589D01*
X176151571Y-102336875D02*
X176187285Y-102408303D01*
X176187285Y-102551160D01*
X176151571Y-102622589D01*
X176080142Y-102658303D01*
X175794428Y-102658303D01*
X175723000Y-102622589D01*
X175687285Y-102551160D01*
X175687285Y-102408303D01*
X175723000Y-102336875D01*
X175794428Y-102301160D01*
X175865857Y-102301160D01*
X175937285Y-102658303D01*
X176151571Y-102015446D02*
X176187285Y-101944017D01*
X176187285Y-101801160D01*
X176151571Y-101729732D01*
X176080142Y-101694017D01*
X176044428Y-101694017D01*
X175973000Y-101729732D01*
X175937285Y-101801160D01*
X175937285Y-101908303D01*
X175901571Y-101979732D01*
X175830142Y-102015446D01*
X175794428Y-102015446D01*
X175723000Y-101979732D01*
X175687285Y-101908303D01*
X175687285Y-101801160D01*
X175723000Y-101729732D01*
X176187285Y-101372589D02*
X175687285Y-101372589D01*
X175437285Y-101372589D02*
X175473000Y-101408303D01*
X175508714Y-101372589D01*
X175473000Y-101336875D01*
X175437285Y-101372589D01*
X175508714Y-101372589D01*
X175687285Y-100694017D02*
X176294428Y-100694017D01*
X176365857Y-100729732D01*
X176401571Y-100765446D01*
X176437285Y-100836875D01*
X176437285Y-100944017D01*
X176401571Y-101015446D01*
X176151571Y-100694017D02*
X176187285Y-100765446D01*
X176187285Y-100908303D01*
X176151571Y-100979732D01*
X176115857Y-101015446D01*
X176044428Y-101051160D01*
X175830142Y-101051160D01*
X175758714Y-101015446D01*
X175723000Y-100979732D01*
X175687285Y-100908303D01*
X175687285Y-100765446D01*
X175723000Y-100694017D01*
X175687285Y-100336875D02*
X176187285Y-100336875D01*
X175758714Y-100336875D02*
X175723000Y-100301160D01*
X175687285Y-100229732D01*
X175687285Y-100122589D01*
X175723000Y-100051160D01*
X175794428Y-100015446D01*
X176187285Y-100015446D01*
X177499785Y-108622589D02*
X176749785Y-108622589D01*
X177499785Y-108301160D02*
X177106928Y-108301160D01*
X177035500Y-108336875D01*
X176999785Y-108408303D01*
X176999785Y-108515446D01*
X177035500Y-108586875D01*
X177071214Y-108622589D01*
X177571214Y-108122589D02*
X177571214Y-107551160D01*
X177499785Y-107051160D02*
X176749785Y-107051160D01*
X177464071Y-107051160D02*
X177499785Y-107122589D01*
X177499785Y-107265446D01*
X177464071Y-107336875D01*
X177428357Y-107372589D01*
X177356928Y-107408303D01*
X177142642Y-107408303D01*
X177071214Y-107372589D01*
X177035500Y-107336875D01*
X176999785Y-107265446D01*
X176999785Y-107122589D01*
X177035500Y-107051160D01*
X177499785Y-106372589D02*
X177106928Y-106372589D01*
X177035500Y-106408303D01*
X176999785Y-106479732D01*
X176999785Y-106622589D01*
X177035500Y-106694017D01*
X177464071Y-106372589D02*
X177499785Y-106444017D01*
X177499785Y-106622589D01*
X177464071Y-106694017D01*
X177392642Y-106729732D01*
X177321214Y-106729732D01*
X177249785Y-106694017D01*
X177214071Y-106622589D01*
X177214071Y-106444017D01*
X177178357Y-106372589D01*
X177214071Y-105444017D02*
X177214071Y-104872589D01*
X176749785Y-104015446D02*
X176749785Y-103515446D01*
X177499785Y-103836875D01*
X176749785Y-102908303D02*
X176749785Y-103051160D01*
X176785500Y-103122589D01*
X176821214Y-103158303D01*
X176928357Y-103229732D01*
X177071214Y-103265446D01*
X177356928Y-103265446D01*
X177428357Y-103229732D01*
X177464071Y-103194017D01*
X177499785Y-103122589D01*
X177499785Y-102979732D01*
X177464071Y-102908303D01*
X177428357Y-102872589D01*
X177356928Y-102836875D01*
X177178357Y-102836875D01*
X177106928Y-102872589D01*
X177071214Y-102908303D01*
X177035500Y-102979732D01*
X177035500Y-103122589D01*
X177071214Y-103194017D01*
X177106928Y-103229732D01*
X177178357Y-103265446D01*
X177499785Y-102479732D02*
X177499785Y-102336875D01*
X177464071Y-102265446D01*
X177428357Y-102229732D01*
X177321214Y-102158303D01*
X177178357Y-102122589D01*
X176892642Y-102122589D01*
X176821214Y-102158303D01*
X176785500Y-102194017D01*
X176749785Y-102265446D01*
X176749785Y-102408303D01*
X176785500Y-102479732D01*
X176821214Y-102515446D01*
X176892642Y-102551160D01*
X177071214Y-102551160D01*
X177142642Y-102515446D01*
X177178357Y-102479732D01*
X177214071Y-102408303D01*
X177214071Y-102265446D01*
X177178357Y-102194017D01*
X177142642Y-102158303D01*
X177071214Y-102122589D01*
X176749785Y-101444017D02*
X176749785Y-101801160D01*
X177106928Y-101836875D01*
X177071214Y-101801160D01*
X177035500Y-101729732D01*
X177035500Y-101551160D01*
X177071214Y-101479732D01*
X177106928Y-101444017D01*
X177178357Y-101408303D01*
X177356928Y-101408303D01*
X177428357Y-101444017D01*
X177464071Y-101479732D01*
X177499785Y-101551160D01*
X177499785Y-101729732D01*
X177464071Y-101801160D01*
X177428357Y-101836875D01*
X177499785Y-101051160D02*
X177499785Y-100908303D01*
X177464071Y-100836875D01*
X177428357Y-100801160D01*
X177321214Y-100729732D01*
X177178357Y-100694017D01*
X176892642Y-100694017D01*
X176821214Y-100729732D01*
X176785500Y-100765446D01*
X176749785Y-100836875D01*
X176749785Y-100979732D01*
X176785500Y-101051160D01*
X176821214Y-101086875D01*
X176892642Y-101122589D01*
X177071214Y-101122589D01*
X177142642Y-101086875D01*
X177178357Y-101051160D01*
X177214071Y-100979732D01*
X177214071Y-100836875D01*
X177178357Y-100765446D01*
X177142642Y-100729732D01*
X177071214Y-100694017D01*
X176749785Y-100051160D02*
X176749785Y-100194017D01*
X176785500Y-100265446D01*
X176821214Y-100301160D01*
X176928357Y-100372589D01*
X177071214Y-100408303D01*
X177356928Y-100408303D01*
X177428357Y-100372589D01*
X177464071Y-100336875D01*
X177499785Y-100265446D01*
X177499785Y-100122589D01*
X177464071Y-100051160D01*
X177428357Y-100015446D01*
X177356928Y-99979732D01*
X177178357Y-99979732D01*
X177106928Y-100015446D01*
X177071214Y-100051160D01*
X177035500Y-100122589D01*
X177035500Y-100265446D01*
X177071214Y-100336875D01*
X177106928Y-100372589D01*
X177178357Y-100408303D01*
D11*
X150998000Y-100175000D02*
X140718000Y-100175000D01*
X150998000Y-110575000D02*
X150998000Y-100175000D01*
X140718000Y-110575000D02*
X150998000Y-110575000D01*
X140718000Y-100175000D02*
X140718000Y-110575000D01*
X148508000Y-100235000D02*
X146858000Y-100235000D01*
X148508000Y-110515000D02*
X148508000Y-100235000D01*
X143208000Y-110515000D02*
X148508000Y-110515000D01*
X143208000Y-100235000D02*
X143208000Y-110515000D01*
X144858000Y-100235000D02*
X143208000Y-100235000D01*
X146858000Y-100235000D02*
G75*
G02*
X144858000Y-100235000I-1000000J0D01*
G01*
X135998000Y-104385000D02*
X135998000Y-103615000D01*
X135998000Y-96305000D02*
X135998000Y-97075000D01*
X137368000Y-103615000D02*
X137368000Y-97075000D01*
X134628000Y-103615000D02*
X137368000Y-103615000D01*
X134628000Y-97075000D02*
X134628000Y-103615000D01*
X137368000Y-97075000D02*
X134628000Y-97075000D01*
X122098000Y-86685000D02*
X123208000Y-86685000D01*
X123208000Y-86685000D02*
X123208000Y-88015000D01*
X112008000Y-86685000D02*
X112008000Y-94425000D01*
X112008000Y-94425000D02*
X120638000Y-94425000D01*
X120638000Y-86685000D02*
X120638000Y-94425000D01*
X112008000Y-86685000D02*
X120638000Y-86685000D01*
X112008000Y-91825000D02*
X120638000Y-91825000D01*
X112008000Y-89285000D02*
X120638000Y-89285000D01*
X120638000Y-93455000D02*
X121048000Y-93455000D01*
X120638000Y-92735000D02*
X121048000Y-92735000D01*
X120638000Y-90915000D02*
X121048000Y-90915000D01*
X120638000Y-90195000D02*
X121048000Y-90195000D01*
X120638000Y-88375000D02*
X120988000Y-88375000D01*
X120638000Y-87655000D02*
X120988000Y-87655000D01*
X112008000Y-89166900D02*
X120638000Y-89166900D01*
X112008000Y-89048805D02*
X120638000Y-89048805D01*
X112008000Y-88930710D02*
X120638000Y-88930710D01*
X112008000Y-88812615D02*
X120638000Y-88812615D01*
X112008000Y-88694520D02*
X120638000Y-88694520D01*
X112008000Y-88576425D02*
X120638000Y-88576425D01*
X112008000Y-88458330D02*
X120638000Y-88458330D01*
X112008000Y-88340235D02*
X120638000Y-88340235D01*
X112008000Y-88222140D02*
X120638000Y-88222140D01*
X112008000Y-88104045D02*
X120638000Y-88104045D01*
X112008000Y-87985950D02*
X120638000Y-87985950D01*
X112008000Y-87867855D02*
X120638000Y-87867855D01*
X112008000Y-87749760D02*
X120638000Y-87749760D01*
X112008000Y-87631665D02*
X120638000Y-87631665D01*
X112008000Y-87513570D02*
X120638000Y-87513570D01*
X112008000Y-87395475D02*
X120638000Y-87395475D01*
X112008000Y-87277380D02*
X120638000Y-87277380D01*
X112008000Y-87159285D02*
X120638000Y-87159285D01*
X112008000Y-87041190D02*
X120638000Y-87041190D01*
X112008000Y-86923095D02*
X120638000Y-86923095D01*
X112008000Y-86805000D02*
X120638000Y-86805000D01*
X133428000Y-85735000D02*
X133428000Y-82995000D01*
X140868000Y-85735000D02*
X140868000Y-82995000D01*
X140868000Y-82995000D02*
X133428000Y-82995000D01*
X140868000Y-85735000D02*
X133428000Y-85735000D01*
X141028000Y-112695000D02*
X148468000Y-112695000D01*
X141028000Y-117435000D02*
X148468000Y-117435000D01*
X141028000Y-112695000D02*
X141028000Y-117435000D01*
X148468000Y-112695000D02*
X148468000Y-117435000D01*
X144398000Y-82100000D02*
X148458000Y-82100000D01*
X148458000Y-82100000D02*
X148458000Y-79830000D01*
X148458000Y-79830000D02*
X144398000Y-79830000D01*
D12*
X160248000Y-122275000D02*
X160248000Y-125375000D01*
X161798000Y-122275000D02*
X160248000Y-122275000D01*
X163068000Y-125095000D02*
X163068000Y-122555000D01*
X160248000Y-125375000D02*
X161798000Y-125375000D01*
X175768000Y-122555000D02*
X163068000Y-122555000D01*
X175768000Y-125095000D02*
X175768000Y-122555000D01*
X163068000Y-125095000D02*
X175768000Y-125095000D01*
X128244000Y-74015000D02*
X128244000Y-77115000D01*
X129794000Y-74015000D02*
X128244000Y-74015000D01*
X131064000Y-76835000D02*
X131064000Y-74295000D01*
X128244000Y-77115000D02*
X129794000Y-77115000D01*
X153924000Y-74295000D02*
X131064000Y-74295000D01*
X153924000Y-76835000D02*
X153924000Y-74295000D01*
X131064000Y-76835000D02*
X153924000Y-76835000D01*
X155168000Y-74015000D02*
X155168000Y-77115000D01*
X156718000Y-74015000D02*
X155168000Y-74015000D01*
X157988000Y-76835000D02*
X157988000Y-74295000D01*
X155168000Y-77115000D02*
X156718000Y-77115000D01*
X175768000Y-74295000D02*
X157988000Y-74295000D01*
X175768000Y-76835000D02*
X175768000Y-74295000D01*
X157988000Y-76835000D02*
X175768000Y-76835000D01*
X127254000Y-123825000D02*
G75*
G03*
X127254000Y-123825000I-2286000J0D01*
G01*
X179324000Y-118745000D02*
G75*
G03*
X179324000Y-118745000I-2286000J0D01*
G01*
X128524000Y-75565000D02*
G75*
G03*
X128524000Y-75565000I-2286000J0D01*
G01*
X179324000Y-90805000D02*
G75*
G03*
X179324000Y-90805000I-2286000J0D01*
G01*
D11*
X138468000Y-89865000D02*
G75*
G03*
X138468000Y-89865000I-2620000J0D01*
G01*
X130368000Y-89365000D02*
G75*
G03*
X130368000Y-89365000I-2620000J0D01*
G01*
X133728000Y-111195000D02*
X138468000Y-111195000D01*
X133728000Y-118635000D02*
X138468000Y-118635000D01*
X138468000Y-118635000D02*
X138468000Y-111195000D01*
X133728000Y-118635000D02*
X133728000Y-111195000D01*
X131918000Y-119615000D02*
G75*
G03*
X131918000Y-119615000I-2620000J0D01*
G01*
X158233000Y-89325000D02*
X158233000Y-85265000D01*
X155963000Y-89325000D02*
X158233000Y-89325000D01*
X155963000Y-85265000D02*
X155963000Y-89325000D01*
X151563000Y-85065000D02*
X151563000Y-89125000D01*
X151563000Y-89125000D02*
X153833000Y-89125000D01*
X153833000Y-89125000D02*
X153833000Y-85065000D01*
X174033000Y-90125000D02*
X174033000Y-86065000D01*
X171763000Y-90125000D02*
X174033000Y-90125000D01*
X171763000Y-86065000D02*
X171763000Y-90125000D01*
X127518000Y-97265000D02*
X126748000Y-97265000D01*
X119438000Y-97265000D02*
X120208000Y-97265000D01*
X126748000Y-95895000D02*
X120208000Y-95895000D01*
X126748000Y-98635000D02*
X126748000Y-95895000D01*
X120208000Y-98635000D02*
X126748000Y-98635000D01*
X120208000Y-95895000D02*
X120208000Y-98635000D01*
X126738000Y-103535000D02*
X126738000Y-100795000D01*
X126738000Y-100795000D02*
X120198000Y-100795000D01*
X120198000Y-100795000D02*
X120198000Y-103535000D01*
X120198000Y-103535000D02*
X126738000Y-103535000D01*
X127508000Y-102165000D02*
X126738000Y-102165000D01*
X119428000Y-102165000D02*
X120198000Y-102165000D01*
X127988000Y-110035000D02*
X127988000Y-107295000D01*
X127988000Y-107295000D02*
X121448000Y-107295000D01*
X121448000Y-107295000D02*
X121448000Y-110035000D01*
X121448000Y-110035000D02*
X127988000Y-110035000D01*
X128758000Y-108665000D02*
X127988000Y-108665000D01*
X120678000Y-108665000D02*
X121448000Y-108665000D01*
X150658000Y-119815000D02*
X149888000Y-119815000D01*
X142578000Y-119815000D02*
X143348000Y-119815000D01*
X149888000Y-118445000D02*
X143348000Y-118445000D01*
X149888000Y-121185000D02*
X149888000Y-118445000D01*
X143348000Y-121185000D02*
X149888000Y-121185000D01*
X143348000Y-118445000D02*
X143348000Y-121185000D01*
X143725064Y-93175000D02*
X142270936Y-93175000D01*
X143725064Y-91355000D02*
X142270936Y-91355000D01*
X163768000Y-108225000D02*
X161028000Y-108225000D01*
X161028000Y-108225000D02*
X161028000Y-114765000D01*
X161028000Y-114765000D02*
X163768000Y-114765000D01*
X163768000Y-114765000D02*
X163768000Y-108225000D01*
X162398000Y-107455000D02*
X162398000Y-108225000D01*
X162398000Y-115535000D02*
X162398000Y-114765000D01*
X157908000Y-81392064D02*
X157908000Y-79937936D01*
X156088000Y-81392064D02*
X156088000Y-79937936D01*
X151688000Y-81192064D02*
X151688000Y-79737936D01*
X153508000Y-81192064D02*
X153508000Y-79737936D01*
X173708000Y-81792064D02*
X173708000Y-80337936D01*
X171888000Y-81792064D02*
X171888000Y-80337936D01*
X166025064Y-90055000D02*
X164570936Y-90055000D01*
X166025064Y-91875000D02*
X164570936Y-91875000D01*
X165098000Y-86815000D02*
X166598000Y-86815000D01*
X169098000Y-85565000D02*
X169098000Y-81065000D01*
X166598000Y-79815000D02*
X165098000Y-79815000D01*
X162598000Y-81065000D02*
X162598000Y-85565000D01*
X131149000Y-83215000D02*
G75*
G03*
X131149000Y-83215000I-1251000J0D01*
G01*
X117199000Y-77515000D02*
G75*
G03*
X117199000Y-77515000I-1251000J0D01*
G01*
X154599000Y-111815000D02*
G75*
G03*
X154599000Y-111815000I-1251000J0D01*
G01*
X169649000Y-114865000D02*
G75*
G03*
X169649000Y-114865000I-1251000J0D01*
G01*
X125599000Y-114765000D02*
G75*
G03*
X125599000Y-114765000I-1251000J0D01*
G01*
X169049000Y-106815000D02*
G75*
G03*
X169049000Y-106815000I-1251000J0D01*
G01*
X158098000Y-107495000D02*
X158098000Y-108265000D01*
X158098000Y-115575000D02*
X158098000Y-114805000D01*
X156728000Y-108265000D02*
X156728000Y-114805000D01*
X159468000Y-108265000D02*
X156728000Y-108265000D01*
X159468000Y-114805000D02*
X159468000Y-108265000D01*
X156728000Y-114805000D02*
X159468000Y-114805000D01*
X165698000Y-99165000D02*
X165698000Y-96365000D01*
X166398000Y-95715000D02*
X166998000Y-95715000D01*
X167698000Y-96365000D02*
X167698000Y-99165000D01*
X166998000Y-99815000D02*
X166398000Y-99815000D01*
X165698000Y-96415000D02*
G75*
G02*
X166398000Y-95715000I700000J0D01*
G01*
X166998000Y-95715000D02*
G75*
G02*
X167698000Y-96415000I0J-700000D01*
G01*
X167698000Y-99115000D02*
G75*
G02*
X166998000Y-99815000I-700000J0D01*
G01*
X166398000Y-99815000D02*
G75*
G02*
X165698000Y-99115000I0J700000D01*
G01*
D12*
X137408000Y-122315000D02*
X137408000Y-125415000D01*
X138958000Y-122315000D02*
X137408000Y-122315000D01*
X140228000Y-125135000D02*
X140228000Y-122595000D01*
X137408000Y-125415000D02*
X138958000Y-125415000D01*
X158008000Y-122595000D02*
X140228000Y-122595000D01*
X158008000Y-125135000D02*
X158008000Y-122595000D01*
X140228000Y-125135000D02*
X158008000Y-125135000D01*
D11*
X173949000Y-93465000D02*
G75*
G03*
X173949000Y-93465000I-1251000J0D01*
G01*
X158218000Y-91995000D02*
X158218000Y-94735000D01*
X150778000Y-91995000D02*
X150778000Y-94735000D01*
X150778000Y-94735000D02*
X158218000Y-94735000D01*
X150778000Y-91995000D02*
X158218000Y-91995000D01*
D12*
X140286095Y-98317380D02*
X140286095Y-99126904D01*
X140333714Y-99222142D01*
X140381333Y-99269761D01*
X140476571Y-99317380D01*
X140667047Y-99317380D01*
X140762285Y-99269761D01*
X140809904Y-99222142D01*
X140857523Y-99126904D01*
X140857523Y-98317380D01*
X141857523Y-99317380D02*
X141286095Y-99317380D01*
X141571809Y-99317380D02*
X141571809Y-98317380D01*
X141476571Y-98460238D01*
X141381333Y-98555476D01*
X141286095Y-98603095D01*
X133750380Y-100731666D02*
X133274190Y-101065000D01*
X133750380Y-101303095D02*
X132750380Y-101303095D01*
X132750380Y-100922142D01*
X132798000Y-100826904D01*
X132845619Y-100779285D01*
X132940857Y-100731666D01*
X133083714Y-100731666D01*
X133178952Y-100779285D01*
X133226571Y-100826904D01*
X133274190Y-100922142D01*
X133274190Y-101303095D01*
X132750380Y-100398333D02*
X132750380Y-99779285D01*
X133131333Y-100112619D01*
X133131333Y-99969761D01*
X133178952Y-99874523D01*
X133226571Y-99826904D01*
X133321809Y-99779285D01*
X133559904Y-99779285D01*
X133655142Y-99826904D01*
X133702761Y-99874523D01*
X133750380Y-99969761D01*
X133750380Y-100255476D01*
X133702761Y-100350714D01*
X133655142Y-100398333D01*
X117264666Y-84267380D02*
X117264666Y-84981666D01*
X117217047Y-85124523D01*
X117121809Y-85219761D01*
X116978952Y-85267380D01*
X116883714Y-85267380D01*
X118264666Y-85267380D02*
X117693238Y-85267380D01*
X117978952Y-85267380D02*
X117978952Y-84267380D01*
X117883714Y-84410238D01*
X117788476Y-84505476D01*
X117693238Y-84553095D01*
X137731333Y-82072142D02*
X137683714Y-82119761D01*
X137540857Y-82167380D01*
X137445619Y-82167380D01*
X137302761Y-82119761D01*
X137207523Y-82024523D01*
X137159904Y-81929285D01*
X137112285Y-81738809D01*
X137112285Y-81595952D01*
X137159904Y-81405476D01*
X137207523Y-81310238D01*
X137302761Y-81215000D01*
X137445619Y-81167380D01*
X137540857Y-81167380D01*
X137683714Y-81215000D01*
X137731333Y-81262619D01*
X138064666Y-81167380D02*
X138683714Y-81167380D01*
X138350380Y-81548333D01*
X138493238Y-81548333D01*
X138588476Y-81595952D01*
X138636095Y-81643571D01*
X138683714Y-81738809D01*
X138683714Y-81976904D01*
X138636095Y-82072142D01*
X138588476Y-82119761D01*
X138493238Y-82167380D01*
X138207523Y-82167380D01*
X138112285Y-82119761D01*
X138064666Y-82072142D01*
X140255142Y-116231666D02*
X140302761Y-116279285D01*
X140350380Y-116422142D01*
X140350380Y-116517380D01*
X140302761Y-116660238D01*
X140207523Y-116755476D01*
X140112285Y-116803095D01*
X139921809Y-116850714D01*
X139778952Y-116850714D01*
X139588476Y-116803095D01*
X139493238Y-116755476D01*
X139398000Y-116660238D01*
X139350380Y-116517380D01*
X139350380Y-116422142D01*
X139398000Y-116279285D01*
X139445619Y-116231666D01*
X139350380Y-115374523D02*
X139350380Y-115565000D01*
X139398000Y-115660238D01*
X139445619Y-115707857D01*
X139588476Y-115803095D01*
X139778952Y-115850714D01*
X140159904Y-115850714D01*
X140255142Y-115803095D01*
X140302761Y-115755476D01*
X140350380Y-115660238D01*
X140350380Y-115469761D01*
X140302761Y-115374523D01*
X140255142Y-115326904D01*
X140159904Y-115279285D01*
X139921809Y-115279285D01*
X139826571Y-115326904D01*
X139778952Y-115374523D01*
X139731333Y-115469761D01*
X139731333Y-115660238D01*
X139778952Y-115755476D01*
X139826571Y-115803095D01*
X139921809Y-115850714D01*
X142334904Y-83492380D02*
X142334904Y-82492380D01*
X142573000Y-82492380D01*
X142715857Y-82540000D01*
X142811095Y-82635238D01*
X142858714Y-82730476D01*
X142906333Y-82920952D01*
X142906333Y-83063809D01*
X142858714Y-83254285D01*
X142811095Y-83349523D01*
X142715857Y-83444761D01*
X142573000Y-83492380D01*
X142334904Y-83492380D01*
X143858714Y-83492380D02*
X143287285Y-83492380D01*
X143573000Y-83492380D02*
X143573000Y-82492380D01*
X143477761Y-82635238D01*
X143382523Y-82730476D01*
X143287285Y-82778095D01*
X166759904Y-121567380D02*
X166759904Y-120567380D01*
X167140857Y-120567380D01*
X167236095Y-120615000D01*
X167283714Y-120662619D01*
X167331333Y-120757857D01*
X167331333Y-120900714D01*
X167283714Y-120995952D01*
X167236095Y-121043571D01*
X167140857Y-121091190D01*
X166759904Y-121091190D01*
X167712285Y-120662619D02*
X167759904Y-120615000D01*
X167855142Y-120567380D01*
X168093238Y-120567380D01*
X168188476Y-120615000D01*
X168236095Y-120662619D01*
X168283714Y-120757857D01*
X168283714Y-120853095D01*
X168236095Y-120995952D01*
X167664666Y-121567380D01*
X168283714Y-121567380D01*
X133209904Y-78967380D02*
X133209904Y-77967380D01*
X133590857Y-77967380D01*
X133686095Y-78015000D01*
X133733714Y-78062619D01*
X133781333Y-78157857D01*
X133781333Y-78300714D01*
X133733714Y-78395952D01*
X133686095Y-78443571D01*
X133590857Y-78491190D01*
X133209904Y-78491190D01*
X134114666Y-77967380D02*
X134733714Y-77967380D01*
X134400380Y-78348333D01*
X134543238Y-78348333D01*
X134638476Y-78395952D01*
X134686095Y-78443571D01*
X134733714Y-78538809D01*
X134733714Y-78776904D01*
X134686095Y-78872142D01*
X134638476Y-78919761D01*
X134543238Y-78967380D01*
X134257523Y-78967380D01*
X134162285Y-78919761D01*
X134114666Y-78872142D01*
X159609904Y-78917380D02*
X159609904Y-77917380D01*
X159990857Y-77917380D01*
X160086095Y-77965000D01*
X160133714Y-78012619D01*
X160181333Y-78107857D01*
X160181333Y-78250714D01*
X160133714Y-78345952D01*
X160086095Y-78393571D01*
X159990857Y-78441190D01*
X159609904Y-78441190D01*
X161038476Y-78250714D02*
X161038476Y-78917380D01*
X160800380Y-77869761D02*
X160562285Y-78584047D01*
X161181333Y-78584047D01*
X132331333Y-87322142D02*
X132283714Y-87369761D01*
X132140857Y-87417380D01*
X132045619Y-87417380D01*
X131902761Y-87369761D01*
X131807523Y-87274523D01*
X131759904Y-87179285D01*
X131712285Y-86988809D01*
X131712285Y-86845952D01*
X131759904Y-86655476D01*
X131807523Y-86560238D01*
X131902761Y-86465000D01*
X132045619Y-86417380D01*
X132140857Y-86417380D01*
X132283714Y-86465000D01*
X132331333Y-86512619D01*
X133283714Y-87417380D02*
X132712285Y-87417380D01*
X132998000Y-87417380D02*
X132998000Y-86417380D01*
X132902761Y-86560238D01*
X132807523Y-86655476D01*
X132712285Y-86703095D01*
X126031333Y-85622142D02*
X125983714Y-85669761D01*
X125840857Y-85717380D01*
X125745619Y-85717380D01*
X125602761Y-85669761D01*
X125507523Y-85574523D01*
X125459904Y-85479285D01*
X125412285Y-85288809D01*
X125412285Y-85145952D01*
X125459904Y-84955476D01*
X125507523Y-84860238D01*
X125602761Y-84765000D01*
X125745619Y-84717380D01*
X125840857Y-84717380D01*
X125983714Y-84765000D01*
X126031333Y-84812619D01*
X126412285Y-84812619D02*
X126459904Y-84765000D01*
X126555142Y-84717380D01*
X126793238Y-84717380D01*
X126888476Y-84765000D01*
X126936095Y-84812619D01*
X126983714Y-84907857D01*
X126983714Y-85003095D01*
X126936095Y-85145952D01*
X126364666Y-85717380D01*
X126983714Y-85717380D01*
X132705142Y-114831666D02*
X132752761Y-114879285D01*
X132800380Y-115022142D01*
X132800380Y-115117380D01*
X132752761Y-115260238D01*
X132657523Y-115355476D01*
X132562285Y-115403095D01*
X132371809Y-115450714D01*
X132228952Y-115450714D01*
X132038476Y-115403095D01*
X131943238Y-115355476D01*
X131848000Y-115260238D01*
X131800380Y-115117380D01*
X131800380Y-115022142D01*
X131848000Y-114879285D01*
X131895619Y-114831666D01*
X132133714Y-113974523D02*
X132800380Y-113974523D01*
X131752761Y-114212619D02*
X132467047Y-114450714D01*
X132467047Y-113831666D01*
X125855142Y-119681666D02*
X125902761Y-119729285D01*
X125950380Y-119872142D01*
X125950380Y-119967380D01*
X125902761Y-120110238D01*
X125807523Y-120205476D01*
X125712285Y-120253095D01*
X125521809Y-120300714D01*
X125378952Y-120300714D01*
X125188476Y-120253095D01*
X125093238Y-120205476D01*
X124998000Y-120110238D01*
X124950380Y-119967380D01*
X124950380Y-119872142D01*
X124998000Y-119729285D01*
X125045619Y-119681666D01*
X124950380Y-118776904D02*
X124950380Y-119253095D01*
X125426571Y-119300714D01*
X125378952Y-119253095D01*
X125331333Y-119157857D01*
X125331333Y-118919761D01*
X125378952Y-118824523D01*
X125426571Y-118776904D01*
X125521809Y-118729285D01*
X125759904Y-118729285D01*
X125855142Y-118776904D01*
X125902761Y-118824523D01*
X125950380Y-118919761D01*
X125950380Y-119157857D01*
X125902761Y-119253095D01*
X125855142Y-119300714D01*
X155500380Y-87203095D02*
X154500380Y-87203095D01*
X154500380Y-86965000D01*
X154548000Y-86822142D01*
X154643238Y-86726904D01*
X154738476Y-86679285D01*
X154928952Y-86631666D01*
X155071809Y-86631666D01*
X155262285Y-86679285D01*
X155357523Y-86726904D01*
X155452761Y-86822142D01*
X155500380Y-86965000D01*
X155500380Y-87203095D01*
X154595619Y-86250714D02*
X154548000Y-86203095D01*
X154500380Y-86107857D01*
X154500380Y-85869761D01*
X154548000Y-85774523D01*
X154595619Y-85726904D01*
X154690857Y-85679285D01*
X154786095Y-85679285D01*
X154928952Y-85726904D01*
X155500380Y-86298333D01*
X155500380Y-85679285D01*
X150800380Y-87403095D02*
X149800380Y-87403095D01*
X149800380Y-87165000D01*
X149848000Y-87022142D01*
X149943238Y-86926904D01*
X150038476Y-86879285D01*
X150228952Y-86831666D01*
X150371809Y-86831666D01*
X150562285Y-86879285D01*
X150657523Y-86926904D01*
X150752761Y-87022142D01*
X150800380Y-87165000D01*
X150800380Y-87403095D01*
X149800380Y-86498333D02*
X149800380Y-85879285D01*
X150181333Y-86212619D01*
X150181333Y-86069761D01*
X150228952Y-85974523D01*
X150276571Y-85926904D01*
X150371809Y-85879285D01*
X150609904Y-85879285D01*
X150705142Y-85926904D01*
X150752761Y-85974523D01*
X150800380Y-86069761D01*
X150800380Y-86355476D01*
X150752761Y-86450714D01*
X150705142Y-86498333D01*
X171250380Y-88053095D02*
X170250380Y-88053095D01*
X170250380Y-87815000D01*
X170298000Y-87672142D01*
X170393238Y-87576904D01*
X170488476Y-87529285D01*
X170678952Y-87481666D01*
X170821809Y-87481666D01*
X171012285Y-87529285D01*
X171107523Y-87576904D01*
X171202761Y-87672142D01*
X171250380Y-87815000D01*
X171250380Y-88053095D01*
X170583714Y-86624523D02*
X171250380Y-86624523D01*
X170202761Y-86862619D02*
X170917047Y-87100714D01*
X170917047Y-86481666D01*
X115181333Y-98167380D02*
X114848000Y-97691190D01*
X114609904Y-98167380D02*
X114609904Y-97167380D01*
X114990857Y-97167380D01*
X115086095Y-97215000D01*
X115133714Y-97262619D01*
X115181333Y-97357857D01*
X115181333Y-97500714D01*
X115133714Y-97595952D01*
X115086095Y-97643571D01*
X114990857Y-97691190D01*
X114609904Y-97691190D01*
X116133714Y-98167380D02*
X115562285Y-98167380D01*
X115848000Y-98167380D02*
X115848000Y-97167380D01*
X115752761Y-97310238D01*
X115657523Y-97405476D01*
X115562285Y-97453095D01*
X115081333Y-102567380D02*
X114748000Y-102091190D01*
X114509904Y-102567380D02*
X114509904Y-101567380D01*
X114890857Y-101567380D01*
X114986095Y-101615000D01*
X115033714Y-101662619D01*
X115081333Y-101757857D01*
X115081333Y-101900714D01*
X115033714Y-101995952D01*
X114986095Y-102043571D01*
X114890857Y-102091190D01*
X114509904Y-102091190D01*
X115462285Y-101662619D02*
X115509904Y-101615000D01*
X115605142Y-101567380D01*
X115843238Y-101567380D01*
X115938476Y-101615000D01*
X115986095Y-101662619D01*
X116033714Y-101757857D01*
X116033714Y-101853095D01*
X115986095Y-101995952D01*
X115414666Y-102567380D01*
X116033714Y-102567380D01*
X116531333Y-109067380D02*
X116198000Y-108591190D01*
X115959904Y-109067380D02*
X115959904Y-108067380D01*
X116340857Y-108067380D01*
X116436095Y-108115000D01*
X116483714Y-108162619D01*
X116531333Y-108257857D01*
X116531333Y-108400714D01*
X116483714Y-108495952D01*
X116436095Y-108543571D01*
X116340857Y-108591190D01*
X115959904Y-108591190D01*
X117388476Y-108400714D02*
X117388476Y-109067380D01*
X117150380Y-108019761D02*
X116912285Y-108734047D01*
X117531333Y-108734047D01*
X152450380Y-116881666D02*
X151974190Y-117215000D01*
X152450380Y-117453095D02*
X151450380Y-117453095D01*
X151450380Y-117072142D01*
X151498000Y-116976904D01*
X151545619Y-116929285D01*
X151640857Y-116881666D01*
X151783714Y-116881666D01*
X151878952Y-116929285D01*
X151926571Y-116976904D01*
X151974190Y-117072142D01*
X151974190Y-117453095D01*
X151450380Y-115976904D02*
X151450380Y-116453095D01*
X151926571Y-116500714D01*
X151878952Y-116453095D01*
X151831333Y-116357857D01*
X151831333Y-116119761D01*
X151878952Y-116024523D01*
X151926571Y-115976904D01*
X152021809Y-115929285D01*
X152259904Y-115929285D01*
X152355142Y-115976904D01*
X152402761Y-116024523D01*
X152450380Y-116119761D01*
X152450380Y-116357857D01*
X152402761Y-116453095D01*
X152355142Y-116500714D01*
X138981333Y-92767380D02*
X138648000Y-92291190D01*
X138409904Y-92767380D02*
X138409904Y-91767380D01*
X138790857Y-91767380D01*
X138886095Y-91815000D01*
X138933714Y-91862619D01*
X138981333Y-91957857D01*
X138981333Y-92100714D01*
X138933714Y-92195952D01*
X138886095Y-92243571D01*
X138790857Y-92291190D01*
X138409904Y-92291190D01*
X139838476Y-91767380D02*
X139648000Y-91767380D01*
X139552761Y-91815000D01*
X139505142Y-91862619D01*
X139409904Y-92005476D01*
X139362285Y-92195952D01*
X139362285Y-92576904D01*
X139409904Y-92672142D01*
X139457523Y-92719761D01*
X139552761Y-92767380D01*
X139743238Y-92767380D01*
X139838476Y-92719761D01*
X139886095Y-92672142D01*
X139933714Y-92576904D01*
X139933714Y-92338809D01*
X139886095Y-92243571D01*
X139838476Y-92195952D01*
X139743238Y-92148333D01*
X139552761Y-92148333D01*
X139457523Y-92195952D01*
X139409904Y-92243571D01*
X139362285Y-92338809D01*
X161700380Y-119981666D02*
X161224190Y-120315000D01*
X161700380Y-120553095D02*
X160700380Y-120553095D01*
X160700380Y-120172142D01*
X160748000Y-120076904D01*
X160795619Y-120029285D01*
X160890857Y-119981666D01*
X161033714Y-119981666D01*
X161128952Y-120029285D01*
X161176571Y-120076904D01*
X161224190Y-120172142D01*
X161224190Y-120553095D01*
X161128952Y-119410238D02*
X161081333Y-119505476D01*
X161033714Y-119553095D01*
X160938476Y-119600714D01*
X160890857Y-119600714D01*
X160795619Y-119553095D01*
X160748000Y-119505476D01*
X160700380Y-119410238D01*
X160700380Y-119219761D01*
X160748000Y-119124523D01*
X160795619Y-119076904D01*
X160890857Y-119029285D01*
X160938476Y-119029285D01*
X161033714Y-119076904D01*
X161081333Y-119124523D01*
X161128952Y-119219761D01*
X161128952Y-119410238D01*
X161176571Y-119505476D01*
X161224190Y-119553095D01*
X161319428Y-119600714D01*
X161509904Y-119600714D01*
X161605142Y-119553095D01*
X161652761Y-119505476D01*
X161700380Y-119410238D01*
X161700380Y-119219761D01*
X161652761Y-119124523D01*
X161605142Y-119076904D01*
X161509904Y-119029285D01*
X161319428Y-119029285D01*
X161224190Y-119076904D01*
X161176571Y-119124523D01*
X161128952Y-119219761D01*
X155250380Y-79331666D02*
X154774190Y-79665000D01*
X155250380Y-79903095D02*
X154250380Y-79903095D01*
X154250380Y-79522142D01*
X154298000Y-79426904D01*
X154345619Y-79379285D01*
X154440857Y-79331666D01*
X154583714Y-79331666D01*
X154678952Y-79379285D01*
X154726571Y-79426904D01*
X154774190Y-79522142D01*
X154774190Y-79903095D01*
X155250380Y-78855476D02*
X155250380Y-78665000D01*
X155202761Y-78569761D01*
X155155142Y-78522142D01*
X155012285Y-78426904D01*
X154821809Y-78379285D01*
X154440857Y-78379285D01*
X154345619Y-78426904D01*
X154298000Y-78474523D01*
X154250380Y-78569761D01*
X154250380Y-78760238D01*
X154298000Y-78855476D01*
X154345619Y-78903095D01*
X154440857Y-78950714D01*
X154678952Y-78950714D01*
X154774190Y-78903095D01*
X154821809Y-78855476D01*
X154869428Y-78760238D01*
X154869428Y-78569761D01*
X154821809Y-78474523D01*
X154774190Y-78426904D01*
X154678952Y-78379285D01*
X150950380Y-79957857D02*
X150474190Y-80291190D01*
X150950380Y-80529285D02*
X149950380Y-80529285D01*
X149950380Y-80148333D01*
X149998000Y-80053095D01*
X150045619Y-80005476D01*
X150140857Y-79957857D01*
X150283714Y-79957857D01*
X150378952Y-80005476D01*
X150426571Y-80053095D01*
X150474190Y-80148333D01*
X150474190Y-80529285D01*
X150950380Y-79005476D02*
X150950380Y-79576904D01*
X150950380Y-79291190D02*
X149950380Y-79291190D01*
X150093238Y-79386428D01*
X150188476Y-79481666D01*
X150236095Y-79576904D01*
X149950380Y-78386428D02*
X149950380Y-78291190D01*
X149998000Y-78195952D01*
X150045619Y-78148333D01*
X150140857Y-78100714D01*
X150331333Y-78053095D01*
X150569428Y-78053095D01*
X150759904Y-78100714D01*
X150855142Y-78148333D01*
X150902761Y-78195952D01*
X150950380Y-78291190D01*
X150950380Y-78386428D01*
X150902761Y-78481666D01*
X150855142Y-78529285D01*
X150759904Y-78576904D01*
X150569428Y-78624523D01*
X150331333Y-78624523D01*
X150140857Y-78576904D01*
X150045619Y-78529285D01*
X149998000Y-78481666D01*
X149950380Y-78386428D01*
X175550380Y-80407857D02*
X175074190Y-80741190D01*
X175550380Y-80979285D02*
X174550380Y-80979285D01*
X174550380Y-80598333D01*
X174598000Y-80503095D01*
X174645619Y-80455476D01*
X174740857Y-80407857D01*
X174883714Y-80407857D01*
X174978952Y-80455476D01*
X175026571Y-80503095D01*
X175074190Y-80598333D01*
X175074190Y-80979285D01*
X175550380Y-79455476D02*
X175550380Y-80026904D01*
X175550380Y-79741190D02*
X174550380Y-79741190D01*
X174693238Y-79836428D01*
X174788476Y-79931666D01*
X174836095Y-80026904D01*
X175550380Y-78503095D02*
X175550380Y-79074523D01*
X175550380Y-78788809D02*
X174550380Y-78788809D01*
X174693238Y-78884047D01*
X174788476Y-78979285D01*
X174836095Y-79074523D01*
X163255142Y-94117380D02*
X162921809Y-93641190D01*
X162683714Y-94117380D02*
X162683714Y-93117380D01*
X163064666Y-93117380D01*
X163159904Y-93165000D01*
X163207523Y-93212619D01*
X163255142Y-93307857D01*
X163255142Y-93450714D01*
X163207523Y-93545952D01*
X163159904Y-93593571D01*
X163064666Y-93641190D01*
X162683714Y-93641190D01*
X164207523Y-94117380D02*
X163636095Y-94117380D01*
X163921809Y-94117380D02*
X163921809Y-93117380D01*
X163826571Y-93260238D01*
X163731333Y-93355476D01*
X163636095Y-93403095D01*
X164588476Y-93212619D02*
X164636095Y-93165000D01*
X164731333Y-93117380D01*
X164969428Y-93117380D01*
X165064666Y-93165000D01*
X165112285Y-93212619D01*
X165159904Y-93307857D01*
X165159904Y-93403095D01*
X165112285Y-93545952D01*
X164540857Y-94117380D01*
X165159904Y-94117380D01*
X161402761Y-89198333D02*
X161450380Y-89055476D01*
X161450380Y-88817380D01*
X161402761Y-88722142D01*
X161355142Y-88674523D01*
X161259904Y-88626904D01*
X161164666Y-88626904D01*
X161069428Y-88674523D01*
X161021809Y-88722142D01*
X160974190Y-88817380D01*
X160926571Y-89007857D01*
X160878952Y-89103095D01*
X160831333Y-89150714D01*
X160736095Y-89198333D01*
X160640857Y-89198333D01*
X160545619Y-89150714D01*
X160498000Y-89103095D01*
X160450380Y-89007857D01*
X160450380Y-88769761D01*
X160498000Y-88626904D01*
X160450380Y-88293571D02*
X161450380Y-88055476D01*
X160736095Y-87865000D01*
X161450380Y-87674523D01*
X160450380Y-87436428D01*
X161450380Y-86531666D02*
X161450380Y-87103095D01*
X161450380Y-86817380D02*
X160450380Y-86817380D01*
X160593238Y-86912619D01*
X160688476Y-87007857D01*
X160736095Y-87103095D01*
X125636095Y-81667380D02*
X126207523Y-81667380D01*
X125921809Y-82667380D02*
X125921809Y-81667380D01*
X126540857Y-82667380D02*
X126540857Y-81667380D01*
X126921809Y-81667380D01*
X127017047Y-81715000D01*
X127064666Y-81762619D01*
X127112285Y-81857857D01*
X127112285Y-82000714D01*
X127064666Y-82095952D01*
X127017047Y-82143571D01*
X126921809Y-82191190D01*
X126540857Y-82191190D01*
X128064666Y-82667380D02*
X127493238Y-82667380D01*
X127778952Y-82667380D02*
X127778952Y-81667380D01*
X127683714Y-81810238D01*
X127588476Y-81905476D01*
X127493238Y-81953095D01*
X112586095Y-79467380D02*
X113157523Y-79467380D01*
X112871809Y-80467380D02*
X112871809Y-79467380D01*
X113490857Y-80467380D02*
X113490857Y-79467380D01*
X113871809Y-79467380D01*
X113967047Y-79515000D01*
X114014666Y-79562619D01*
X114062285Y-79657857D01*
X114062285Y-79800714D01*
X114014666Y-79895952D01*
X113967047Y-79943571D01*
X113871809Y-79991190D01*
X113490857Y-79991190D01*
X114443238Y-79562619D02*
X114490857Y-79515000D01*
X114586095Y-79467380D01*
X114824190Y-79467380D01*
X114919428Y-79515000D01*
X114967047Y-79562619D01*
X115014666Y-79657857D01*
X115014666Y-79753095D01*
X114967047Y-79895952D01*
X114395619Y-80467380D01*
X115014666Y-80467380D01*
X151736095Y-108867380D02*
X152307523Y-108867380D01*
X152021809Y-109867380D02*
X152021809Y-108867380D01*
X152640857Y-109867380D02*
X152640857Y-108867380D01*
X153021809Y-108867380D01*
X153117047Y-108915000D01*
X153164666Y-108962619D01*
X153212285Y-109057857D01*
X153212285Y-109200714D01*
X153164666Y-109295952D01*
X153117047Y-109343571D01*
X153021809Y-109391190D01*
X152640857Y-109391190D01*
X153545619Y-108867380D02*
X154164666Y-108867380D01*
X153831333Y-109248333D01*
X153974190Y-109248333D01*
X154069428Y-109295952D01*
X154117047Y-109343571D01*
X154164666Y-109438809D01*
X154164666Y-109676904D01*
X154117047Y-109772142D01*
X154069428Y-109819761D01*
X153974190Y-109867380D01*
X153688476Y-109867380D01*
X153593238Y-109819761D01*
X153545619Y-109772142D01*
X166636095Y-117117380D02*
X167207523Y-117117380D01*
X166921809Y-118117380D02*
X166921809Y-117117380D01*
X167540857Y-118117380D02*
X167540857Y-117117380D01*
X167921809Y-117117380D01*
X168017047Y-117165000D01*
X168064666Y-117212619D01*
X168112285Y-117307857D01*
X168112285Y-117450714D01*
X168064666Y-117545952D01*
X168017047Y-117593571D01*
X167921809Y-117641190D01*
X167540857Y-117641190D01*
X168969428Y-117450714D02*
X168969428Y-118117380D01*
X168731333Y-117069761D02*
X168493238Y-117784047D01*
X169112285Y-117784047D01*
X119936095Y-115667380D02*
X120507523Y-115667380D01*
X120221809Y-116667380D02*
X120221809Y-115667380D01*
X120840857Y-116667380D02*
X120840857Y-115667380D01*
X121221809Y-115667380D01*
X121317047Y-115715000D01*
X121364666Y-115762619D01*
X121412285Y-115857857D01*
X121412285Y-116000714D01*
X121364666Y-116095952D01*
X121317047Y-116143571D01*
X121221809Y-116191190D01*
X120840857Y-116191190D01*
X122317047Y-115667380D02*
X121840857Y-115667380D01*
X121793238Y-116143571D01*
X121840857Y-116095952D01*
X121936095Y-116048333D01*
X122174190Y-116048333D01*
X122269428Y-116095952D01*
X122317047Y-116143571D01*
X122364666Y-116238809D01*
X122364666Y-116476904D01*
X122317047Y-116572142D01*
X122269428Y-116619761D01*
X122174190Y-116667380D01*
X121936095Y-116667380D01*
X121840857Y-116619761D01*
X121793238Y-116572142D01*
X166586095Y-109167380D02*
X167157523Y-109167380D01*
X166871809Y-110167380D02*
X166871809Y-109167380D01*
X167490857Y-110167380D02*
X167490857Y-109167380D01*
X167871809Y-109167380D01*
X167967047Y-109215000D01*
X168014666Y-109262619D01*
X168062285Y-109357857D01*
X168062285Y-109500714D01*
X168014666Y-109595952D01*
X167967047Y-109643571D01*
X167871809Y-109691190D01*
X167490857Y-109691190D01*
X168919428Y-109167380D02*
X168728952Y-109167380D01*
X168633714Y-109215000D01*
X168586095Y-109262619D01*
X168490857Y-109405476D01*
X168443238Y-109595952D01*
X168443238Y-109976904D01*
X168490857Y-110072142D01*
X168538476Y-110119761D01*
X168633714Y-110167380D01*
X168824190Y-110167380D01*
X168919428Y-110119761D01*
X168967047Y-110072142D01*
X169014666Y-109976904D01*
X169014666Y-109738809D01*
X168967047Y-109643571D01*
X168919428Y-109595952D01*
X168824190Y-109548333D01*
X168633714Y-109548333D01*
X168538476Y-109595952D01*
X168490857Y-109643571D01*
X168443238Y-109738809D01*
X158950380Y-119831666D02*
X158474190Y-120165000D01*
X158950380Y-120403095D02*
X157950380Y-120403095D01*
X157950380Y-120022142D01*
X157998000Y-119926904D01*
X158045619Y-119879285D01*
X158140857Y-119831666D01*
X158283714Y-119831666D01*
X158378952Y-119879285D01*
X158426571Y-119926904D01*
X158474190Y-120022142D01*
X158474190Y-120403095D01*
X157950380Y-119498333D02*
X157950380Y-118831666D01*
X158950380Y-119260238D01*
X163250380Y-100698333D02*
X163964666Y-100698333D01*
X164107523Y-100745952D01*
X164202761Y-100841190D01*
X164250380Y-100984047D01*
X164250380Y-101079285D01*
X164250380Y-100222142D02*
X163250380Y-100222142D01*
X163250380Y-99841190D01*
X163298000Y-99745952D01*
X163345619Y-99698333D01*
X163440857Y-99650714D01*
X163583714Y-99650714D01*
X163678952Y-99698333D01*
X163726571Y-99745952D01*
X163774190Y-99841190D01*
X163774190Y-100222142D01*
X164250380Y-98698333D02*
X164250380Y-99269761D01*
X164250380Y-98984047D02*
X163250380Y-98984047D01*
X163393238Y-99079285D01*
X163488476Y-99174523D01*
X163536095Y-99269761D01*
X166750380Y-94898333D02*
X166750380Y-94279285D01*
X167131333Y-94612619D01*
X167131333Y-94469761D01*
X167178952Y-94374523D01*
X167226571Y-94326904D01*
X167321809Y-94279285D01*
X167559904Y-94279285D01*
X167655142Y-94326904D01*
X167702761Y-94374523D01*
X167750380Y-94469761D01*
X167750380Y-94755476D01*
X167702761Y-94850714D01*
X167655142Y-94898333D01*
X167950380Y-100479285D02*
X167950380Y-101050714D01*
X167950380Y-100765000D02*
X166950380Y-100765000D01*
X167093238Y-100860238D01*
X167188476Y-100955476D01*
X167236095Y-101050714D01*
X154859904Y-121667380D02*
X154859904Y-120667380D01*
X155240857Y-120667380D01*
X155336095Y-120715000D01*
X155383714Y-120762619D01*
X155431333Y-120857857D01*
X155431333Y-121000714D01*
X155383714Y-121095952D01*
X155336095Y-121143571D01*
X155240857Y-121191190D01*
X154859904Y-121191190D01*
X156383714Y-121667380D02*
X155812285Y-121667380D01*
X156098000Y-121667380D02*
X156098000Y-120667380D01*
X156002761Y-120810238D01*
X155907523Y-120905476D01*
X155812285Y-120953095D01*
X168736095Y-94467380D02*
X169307523Y-94467380D01*
X169021809Y-95467380D02*
X169021809Y-94467380D01*
X169640857Y-95467380D02*
X169640857Y-94467380D01*
X170021809Y-94467380D01*
X170117047Y-94515000D01*
X170164666Y-94562619D01*
X170212285Y-94657857D01*
X170212285Y-94800714D01*
X170164666Y-94895952D01*
X170117047Y-94943571D01*
X170021809Y-94991190D01*
X169640857Y-94991190D01*
X170545619Y-94467380D02*
X171212285Y-94467380D01*
X170783714Y-95467380D01*
X154331333Y-91222142D02*
X154283714Y-91269761D01*
X154140857Y-91317380D01*
X154045619Y-91317380D01*
X153902761Y-91269761D01*
X153807523Y-91174523D01*
X153759904Y-91079285D01*
X153712285Y-90888809D01*
X153712285Y-90745952D01*
X153759904Y-90555476D01*
X153807523Y-90460238D01*
X153902761Y-90365000D01*
X154045619Y-90317380D01*
X154140857Y-90317380D01*
X154283714Y-90365000D01*
X154331333Y-90412619D01*
X154664666Y-90317380D02*
X155331333Y-90317380D01*
X154902761Y-91317380D01*
M02*
