%TF.GenerationSoftware,KiCad,Pcbnew,(5.1.9)-1*%
%TF.CreationDate,2021-05-23T14:15:34+02:00*%
%TF.ProjectId,NewRadar,4e657752-6164-4617-922e-6b696361645f,Radar_1v1.1*%
%TF.SameCoordinates,Original*%
%TF.FileFunction,Copper,L3,Inr*%
%TF.FilePolarity,Positive*%
%FSLAX46Y46*%
G04 Gerber Fmt 4.6, Leading zero omitted, Abs format (unit mm)*
G04 Created by KiCad (PCBNEW (5.1.9)-1) date 2021-05-23 14:15:34*
%MOMM*%
%LPD*%
G01*
G04 APERTURE LIST*
%TA.AperFunction,ComponentPad*%
%ADD10R,1.600000X1.600000*%
%TD*%
%TA.AperFunction,ComponentPad*%
%ADD11O,1.600000X1.600000*%
%TD*%
%TA.AperFunction,ComponentPad*%
%ADD12C,1.600000*%
%TD*%
%TA.AperFunction,ComponentPad*%
%ADD13R,1.700000X1.700000*%
%TD*%
%TA.AperFunction,ComponentPad*%
%ADD14O,1.700000X1.700000*%
%TD*%
%TA.AperFunction,ComponentPad*%
%ADD15O,1.727200X2.032000*%
%TD*%
%TA.AperFunction,ComponentPad*%
%ADD16C,4.064000*%
%TD*%
%TA.AperFunction,ComponentPad*%
%ADD17C,2.000000*%
%TD*%
%TA.AperFunction,Conductor*%
%ADD18C,0.254000*%
%TD*%
%TA.AperFunction,Conductor*%
%ADD19C,0.100000*%
%TD*%
G04 APERTURE END LIST*
D10*
X142048000Y-101565000D03*
D11*
X149668000Y-109185000D03*
X142048000Y-104105000D03*
X149668000Y-106645000D03*
X142048000Y-106645000D03*
X149668000Y-104105000D03*
X142048000Y-109185000D03*
X149668000Y-101565000D03*
D12*
X135998000Y-95265000D03*
D11*
X135998000Y-105425000D03*
D13*
X122098000Y-88015000D03*
D14*
X122098000Y-90555000D03*
X122098000Y-93095000D03*
D12*
X139648000Y-84365000D03*
X134648000Y-84365000D03*
X147248000Y-115065000D03*
X142248000Y-115065000D03*
D15*
X161798000Y-123825000D03*
X164338000Y-123825000D03*
X166878000Y-123825000D03*
X169418000Y-123825000D03*
X171958000Y-123825000D03*
X174498000Y-123825000D03*
X129794000Y-75565000D03*
X132334000Y-75565000D03*
X134874000Y-75565000D03*
X137414000Y-75565000D03*
X139954000Y-75565000D03*
X142494000Y-75565000D03*
X145034000Y-75565000D03*
X147574000Y-75565000D03*
X150114000Y-75565000D03*
X152654000Y-75565000D03*
X156718000Y-75565000D03*
X159258000Y-75565000D03*
X161798000Y-75565000D03*
X164338000Y-75565000D03*
X166878000Y-75565000D03*
X169418000Y-75565000D03*
X171958000Y-75565000D03*
X174498000Y-75565000D03*
D16*
X124968000Y-123825000D03*
X177038000Y-118745000D03*
X126238000Y-75565000D03*
X177038000Y-90805000D03*
D12*
X136848000Y-89865000D03*
X134848000Y-89865000D03*
X126748000Y-89365000D03*
X128748000Y-89365000D03*
X136098000Y-117415000D03*
X136098000Y-112415000D03*
X129298000Y-118615000D03*
X129298000Y-120615000D03*
X118398000Y-97265000D03*
D11*
X128558000Y-97265000D03*
X118388000Y-102165000D03*
D12*
X128548000Y-102165000D03*
D11*
X119638000Y-108665000D03*
D12*
X129798000Y-108665000D03*
X141538000Y-119815000D03*
D11*
X151698000Y-119815000D03*
X162398000Y-116575000D03*
D12*
X162398000Y-106415000D03*
D17*
X163598000Y-80065000D03*
X168098000Y-80065000D03*
X163598000Y-86565000D03*
X168098000Y-86565000D03*
X129898000Y-83215000D03*
X115948000Y-77515000D03*
X153348000Y-111815000D03*
X168398000Y-114865000D03*
X124348000Y-114765000D03*
X167798000Y-106815000D03*
D12*
X158098000Y-116615000D03*
D11*
X158098000Y-106455000D03*
D15*
X138958000Y-123865000D03*
X141498000Y-123865000D03*
X144038000Y-123865000D03*
X146578000Y-123865000D03*
X149118000Y-123865000D03*
X151658000Y-123865000D03*
X154198000Y-123865000D03*
X156738000Y-123865000D03*
D17*
X172698000Y-93465000D03*
D12*
X151998000Y-93365000D03*
X156998000Y-93365000D03*
D18*
X176328001Y-74843093D02*
X176328000Y-85944125D01*
X176324565Y-85979000D01*
X176328000Y-86013875D01*
X176328000Y-86013876D01*
X176338273Y-86118183D01*
X176378872Y-86252019D01*
X176444800Y-86375362D01*
X176533525Y-86483474D01*
X176560617Y-86505708D01*
X178868001Y-88813093D01*
X178868001Y-88863294D01*
X178738113Y-88733406D01*
X178301298Y-88441536D01*
X177815935Y-88240492D01*
X177300677Y-88138000D01*
X176775323Y-88138000D01*
X176260065Y-88240492D01*
X175774702Y-88441536D01*
X175337887Y-88733406D01*
X174966406Y-89104887D01*
X174674536Y-89541702D01*
X174473492Y-90027065D01*
X174371000Y-90542323D01*
X174371000Y-91067677D01*
X174473492Y-91582935D01*
X174674536Y-92068298D01*
X174966406Y-92505113D01*
X175337887Y-92876594D01*
X175774702Y-93168464D01*
X176260065Y-93369508D01*
X176775323Y-93472000D01*
X177300677Y-93472000D01*
X177815935Y-93369508D01*
X178301298Y-93168464D01*
X178738113Y-92876594D01*
X178868001Y-92746706D01*
X178868001Y-96941519D01*
X148625528Y-97087383D01*
X148641477Y-93223665D01*
X150563000Y-93223665D01*
X150563000Y-93506335D01*
X150618147Y-93783574D01*
X150726320Y-94044727D01*
X150883363Y-94279759D01*
X151083241Y-94479637D01*
X151318273Y-94636680D01*
X151579426Y-94744853D01*
X151856665Y-94800000D01*
X152139335Y-94800000D01*
X152416574Y-94744853D01*
X152677727Y-94636680D01*
X152912759Y-94479637D01*
X153112637Y-94279759D01*
X153269680Y-94044727D01*
X153377853Y-93783574D01*
X153433000Y-93506335D01*
X153433000Y-93223665D01*
X155563000Y-93223665D01*
X155563000Y-93506335D01*
X155618147Y-93783574D01*
X155726320Y-94044727D01*
X155883363Y-94279759D01*
X156083241Y-94479637D01*
X156318273Y-94636680D01*
X156579426Y-94744853D01*
X156856665Y-94800000D01*
X157139335Y-94800000D01*
X157416574Y-94744853D01*
X157677727Y-94636680D01*
X157732004Y-94600413D01*
X171742192Y-94600413D01*
X171837956Y-94864814D01*
X172127571Y-95005704D01*
X172439108Y-95087384D01*
X172760595Y-95106718D01*
X173079675Y-95062961D01*
X173384088Y-94957795D01*
X173558044Y-94864814D01*
X173653808Y-94600413D01*
X172698000Y-93644605D01*
X171742192Y-94600413D01*
X157732004Y-94600413D01*
X157912759Y-94479637D01*
X158112637Y-94279759D01*
X158269680Y-94044727D01*
X158377853Y-93783574D01*
X158428771Y-93527595D01*
X171056282Y-93527595D01*
X171100039Y-93846675D01*
X171205205Y-94151088D01*
X171298186Y-94325044D01*
X171562587Y-94420808D01*
X172518395Y-93465000D01*
X172877605Y-93465000D01*
X173833413Y-94420808D01*
X174097814Y-94325044D01*
X174238704Y-94035429D01*
X174320384Y-93723892D01*
X174339718Y-93402405D01*
X174295961Y-93083325D01*
X174190795Y-92778912D01*
X174097814Y-92604956D01*
X173833413Y-92509192D01*
X172877605Y-93465000D01*
X172518395Y-93465000D01*
X171562587Y-92509192D01*
X171298186Y-92604956D01*
X171157296Y-92894571D01*
X171075616Y-93206108D01*
X171056282Y-93527595D01*
X158428771Y-93527595D01*
X158433000Y-93506335D01*
X158433000Y-93223665D01*
X158377853Y-92946426D01*
X158269680Y-92685273D01*
X158112637Y-92450241D01*
X157991983Y-92329587D01*
X171742192Y-92329587D01*
X172698000Y-93285395D01*
X173653808Y-92329587D01*
X173558044Y-92065186D01*
X173268429Y-91924296D01*
X172956892Y-91842616D01*
X172635405Y-91823282D01*
X172316325Y-91867039D01*
X172011912Y-91972205D01*
X171837956Y-92065186D01*
X171742192Y-92329587D01*
X157991983Y-92329587D01*
X157912759Y-92250363D01*
X157677727Y-92093320D01*
X157416574Y-91985147D01*
X157139335Y-91930000D01*
X156856665Y-91930000D01*
X156579426Y-91985147D01*
X156318273Y-92093320D01*
X156083241Y-92250363D01*
X155883363Y-92450241D01*
X155726320Y-92685273D01*
X155618147Y-92946426D01*
X155563000Y-93223665D01*
X153433000Y-93223665D01*
X153377853Y-92946426D01*
X153269680Y-92685273D01*
X153112637Y-92450241D01*
X152912759Y-92250363D01*
X152677727Y-92093320D01*
X152416574Y-91985147D01*
X152139335Y-91930000D01*
X151856665Y-91930000D01*
X151579426Y-91985147D01*
X151318273Y-92093320D01*
X151083241Y-92250363D01*
X150883363Y-92450241D01*
X150726320Y-92685273D01*
X150618147Y-92946426D01*
X150563000Y-93223665D01*
X148641477Y-93223665D01*
X148669628Y-86403967D01*
X161963000Y-86403967D01*
X161963000Y-86726033D01*
X162025832Y-87041912D01*
X162149082Y-87339463D01*
X162328013Y-87607252D01*
X162555748Y-87834987D01*
X162823537Y-88013918D01*
X163121088Y-88137168D01*
X163436967Y-88200000D01*
X163759033Y-88200000D01*
X164074912Y-88137168D01*
X164372463Y-88013918D01*
X164640252Y-87834987D01*
X164867987Y-87607252D01*
X165046918Y-87339463D01*
X165170168Y-87041912D01*
X165233000Y-86726033D01*
X165233000Y-86403967D01*
X166463000Y-86403967D01*
X166463000Y-86726033D01*
X166525832Y-87041912D01*
X166649082Y-87339463D01*
X166828013Y-87607252D01*
X167055748Y-87834987D01*
X167323537Y-88013918D01*
X167621088Y-88137168D01*
X167936967Y-88200000D01*
X168259033Y-88200000D01*
X168574912Y-88137168D01*
X168872463Y-88013918D01*
X169140252Y-87834987D01*
X169367987Y-87607252D01*
X169546918Y-87339463D01*
X169670168Y-87041912D01*
X169733000Y-86726033D01*
X169733000Y-86403967D01*
X169670168Y-86088088D01*
X169546918Y-85790537D01*
X169367987Y-85522748D01*
X169140252Y-85295013D01*
X168872463Y-85116082D01*
X168574912Y-84992832D01*
X168259033Y-84930000D01*
X167936967Y-84930000D01*
X167621088Y-84992832D01*
X167323537Y-85116082D01*
X167055748Y-85295013D01*
X166828013Y-85522748D01*
X166649082Y-85790537D01*
X166525832Y-86088088D01*
X166463000Y-86403967D01*
X165233000Y-86403967D01*
X165170168Y-86088088D01*
X165046918Y-85790537D01*
X164867987Y-85522748D01*
X164640252Y-85295013D01*
X164372463Y-85116082D01*
X164074912Y-84992832D01*
X163759033Y-84930000D01*
X163436967Y-84930000D01*
X163121088Y-84992832D01*
X162823537Y-85116082D01*
X162555748Y-85295013D01*
X162328013Y-85522748D01*
X162149082Y-85790537D01*
X162025832Y-86088088D01*
X161963000Y-86403967D01*
X148669628Y-86403967D01*
X148696459Y-79903967D01*
X161963000Y-79903967D01*
X161963000Y-80226033D01*
X162025832Y-80541912D01*
X162149082Y-80839463D01*
X162328013Y-81107252D01*
X162555748Y-81334987D01*
X162823537Y-81513918D01*
X163121088Y-81637168D01*
X163436967Y-81700000D01*
X163759033Y-81700000D01*
X164074912Y-81637168D01*
X164372463Y-81513918D01*
X164640252Y-81334987D01*
X164867987Y-81107252D01*
X165046918Y-80839463D01*
X165170168Y-80541912D01*
X165233000Y-80226033D01*
X165233000Y-79903967D01*
X166463000Y-79903967D01*
X166463000Y-80226033D01*
X166525832Y-80541912D01*
X166649082Y-80839463D01*
X166828013Y-81107252D01*
X167055748Y-81334987D01*
X167323537Y-81513918D01*
X167621088Y-81637168D01*
X167936967Y-81700000D01*
X168259033Y-81700000D01*
X168574912Y-81637168D01*
X168872463Y-81513918D01*
X169140252Y-81334987D01*
X169367987Y-81107252D01*
X169546918Y-80839463D01*
X169670168Y-80541912D01*
X169733000Y-80226033D01*
X169733000Y-79903967D01*
X169670168Y-79588088D01*
X169546918Y-79290537D01*
X169367987Y-79022748D01*
X169140252Y-78795013D01*
X168872463Y-78616082D01*
X168574912Y-78492832D01*
X168259033Y-78430000D01*
X167936967Y-78430000D01*
X167621088Y-78492832D01*
X167323537Y-78616082D01*
X167055748Y-78795013D01*
X166828013Y-79022748D01*
X166649082Y-79290537D01*
X166525832Y-79588088D01*
X166463000Y-79903967D01*
X165233000Y-79903967D01*
X165170168Y-79588088D01*
X165046918Y-79290537D01*
X164867987Y-79022748D01*
X164640252Y-78795013D01*
X164372463Y-78616082D01*
X164074912Y-78492832D01*
X163759033Y-78430000D01*
X163436967Y-78430000D01*
X163121088Y-78492832D01*
X162823537Y-78616082D01*
X162555748Y-78795013D01*
X162328013Y-79022748D01*
X162149082Y-79290537D01*
X162025832Y-79588088D01*
X161963000Y-79903967D01*
X148696459Y-79903967D01*
X148709703Y-76695798D01*
X148826069Y-76554006D01*
X148844000Y-76520459D01*
X148861931Y-76554006D01*
X149049203Y-76782197D01*
X149277395Y-76969469D01*
X149537737Y-77108625D01*
X149820224Y-77194316D01*
X150114000Y-77223251D01*
X150407777Y-77194316D01*
X150690264Y-77108625D01*
X150950606Y-76969469D01*
X151178797Y-76782197D01*
X151366069Y-76554006D01*
X151384000Y-76520459D01*
X151401931Y-76554006D01*
X151589203Y-76782197D01*
X151817395Y-76969469D01*
X152077737Y-77108625D01*
X152360224Y-77194316D01*
X152654000Y-77223251D01*
X152947777Y-77194316D01*
X153230264Y-77108625D01*
X153490606Y-76969469D01*
X153718797Y-76782197D01*
X153906069Y-76554006D01*
X154045225Y-76293663D01*
X154130916Y-76011176D01*
X154152600Y-75791018D01*
X154152600Y-75338982D01*
X155219400Y-75338982D01*
X155219400Y-75791019D01*
X155241084Y-76011177D01*
X155326775Y-76293664D01*
X155465931Y-76554006D01*
X155653203Y-76782197D01*
X155881395Y-76969469D01*
X156141737Y-77108625D01*
X156424224Y-77194316D01*
X156718000Y-77223251D01*
X157011777Y-77194316D01*
X157294264Y-77108625D01*
X157554606Y-76969469D01*
X157782797Y-76782197D01*
X157970069Y-76554006D01*
X157988000Y-76520459D01*
X158005931Y-76554006D01*
X158193203Y-76782197D01*
X158421395Y-76969469D01*
X158681737Y-77108625D01*
X158964224Y-77194316D01*
X159258000Y-77223251D01*
X159551777Y-77194316D01*
X159834264Y-77108625D01*
X160094606Y-76969469D01*
X160322797Y-76782197D01*
X160510069Y-76554006D01*
X160528000Y-76520459D01*
X160545931Y-76554006D01*
X160733203Y-76782197D01*
X160961395Y-76969469D01*
X161221737Y-77108625D01*
X161504224Y-77194316D01*
X161798000Y-77223251D01*
X162091777Y-77194316D01*
X162374264Y-77108625D01*
X162634606Y-76969469D01*
X162862797Y-76782197D01*
X163050069Y-76554006D01*
X163068000Y-76520459D01*
X163085931Y-76554006D01*
X163273203Y-76782197D01*
X163501395Y-76969469D01*
X163761737Y-77108625D01*
X164044224Y-77194316D01*
X164338000Y-77223251D01*
X164631777Y-77194316D01*
X164914264Y-77108625D01*
X165174606Y-76969469D01*
X165402797Y-76782197D01*
X165590069Y-76554006D01*
X165608000Y-76520459D01*
X165625931Y-76554006D01*
X165813203Y-76782197D01*
X166041395Y-76969469D01*
X166301737Y-77108625D01*
X166584224Y-77194316D01*
X166878000Y-77223251D01*
X167171777Y-77194316D01*
X167454264Y-77108625D01*
X167714606Y-76969469D01*
X167942797Y-76782197D01*
X168130069Y-76554006D01*
X168148000Y-76520459D01*
X168165931Y-76554006D01*
X168353203Y-76782197D01*
X168581395Y-76969469D01*
X168841737Y-77108625D01*
X169124224Y-77194316D01*
X169418000Y-77223251D01*
X169711777Y-77194316D01*
X169994264Y-77108625D01*
X170254606Y-76969469D01*
X170482797Y-76782197D01*
X170670069Y-76554006D01*
X170688000Y-76520459D01*
X170705931Y-76554006D01*
X170893203Y-76782197D01*
X171121395Y-76969469D01*
X171381737Y-77108625D01*
X171664224Y-77194316D01*
X171958000Y-77223251D01*
X172251777Y-77194316D01*
X172534264Y-77108625D01*
X172794606Y-76969469D01*
X173022797Y-76782197D01*
X173210069Y-76554006D01*
X173228000Y-76520459D01*
X173245931Y-76554006D01*
X173433203Y-76782197D01*
X173661395Y-76969469D01*
X173921737Y-77108625D01*
X174204224Y-77194316D01*
X174498000Y-77223251D01*
X174791777Y-77194316D01*
X175074264Y-77108625D01*
X175334606Y-76969469D01*
X175562797Y-76782197D01*
X175750069Y-76554006D01*
X175889225Y-76293663D01*
X175974916Y-76011176D01*
X175996600Y-75791018D01*
X175996600Y-75338981D01*
X175974916Y-75118823D01*
X175889225Y-74836336D01*
X175750069Y-74575994D01*
X175562797Y-74347803D01*
X175334605Y-74160531D01*
X175074263Y-74021375D01*
X174791776Y-73935684D01*
X174498000Y-73906749D01*
X174204223Y-73935684D01*
X173921736Y-74021375D01*
X173661394Y-74160531D01*
X173433203Y-74347803D01*
X173245931Y-74575995D01*
X173228000Y-74609541D01*
X173210069Y-74575994D01*
X173022797Y-74347803D01*
X172794605Y-74160531D01*
X172534263Y-74021375D01*
X172251776Y-73935684D01*
X171958000Y-73906749D01*
X171664223Y-73935684D01*
X171381736Y-74021375D01*
X171121394Y-74160531D01*
X170893203Y-74347803D01*
X170705931Y-74575995D01*
X170688000Y-74609541D01*
X170670069Y-74575994D01*
X170482797Y-74347803D01*
X170254605Y-74160531D01*
X169994263Y-74021375D01*
X169711776Y-73935684D01*
X169418000Y-73906749D01*
X169124223Y-73935684D01*
X168841736Y-74021375D01*
X168581394Y-74160531D01*
X168353203Y-74347803D01*
X168165931Y-74575995D01*
X168148000Y-74609541D01*
X168130069Y-74575994D01*
X167942797Y-74347803D01*
X167714605Y-74160531D01*
X167454263Y-74021375D01*
X167171776Y-73935684D01*
X166878000Y-73906749D01*
X166584223Y-73935684D01*
X166301736Y-74021375D01*
X166041394Y-74160531D01*
X165813203Y-74347803D01*
X165625931Y-74575995D01*
X165608000Y-74609541D01*
X165590069Y-74575994D01*
X165402797Y-74347803D01*
X165174605Y-74160531D01*
X164914263Y-74021375D01*
X164631776Y-73935684D01*
X164338000Y-73906749D01*
X164044223Y-73935684D01*
X163761736Y-74021375D01*
X163501394Y-74160531D01*
X163273203Y-74347803D01*
X163085931Y-74575995D01*
X163068000Y-74609541D01*
X163050069Y-74575994D01*
X162862797Y-74347803D01*
X162634605Y-74160531D01*
X162374263Y-74021375D01*
X162091776Y-73935684D01*
X161798000Y-73906749D01*
X161504223Y-73935684D01*
X161221736Y-74021375D01*
X160961394Y-74160531D01*
X160733203Y-74347803D01*
X160545931Y-74575995D01*
X160528000Y-74609541D01*
X160510069Y-74575994D01*
X160322797Y-74347803D01*
X160094605Y-74160531D01*
X159834263Y-74021375D01*
X159551776Y-73935684D01*
X159258000Y-73906749D01*
X158964223Y-73935684D01*
X158681736Y-74021375D01*
X158421394Y-74160531D01*
X158193203Y-74347803D01*
X158005931Y-74575995D01*
X157988000Y-74609541D01*
X157970069Y-74575994D01*
X157782797Y-74347803D01*
X157554605Y-74160531D01*
X157294263Y-74021375D01*
X157011776Y-73935684D01*
X156718000Y-73906749D01*
X156424223Y-73935684D01*
X156141736Y-74021375D01*
X155881394Y-74160531D01*
X155653203Y-74347803D01*
X155465931Y-74575995D01*
X155326775Y-74836337D01*
X155241084Y-75118824D01*
X155219400Y-75338982D01*
X154152600Y-75338982D01*
X154152600Y-75338981D01*
X154130916Y-75118823D01*
X154045225Y-74836336D01*
X153906069Y-74575994D01*
X153718797Y-74347803D01*
X153490605Y-74160531D01*
X153230263Y-74021375D01*
X152947776Y-73935684D01*
X152654000Y-73906749D01*
X152360223Y-73935684D01*
X152077736Y-74021375D01*
X151817394Y-74160531D01*
X151589203Y-74347803D01*
X151401931Y-74575995D01*
X151384000Y-74609541D01*
X151366069Y-74575994D01*
X151178797Y-74347803D01*
X150950605Y-74160531D01*
X150690263Y-74021375D01*
X150407776Y-73935684D01*
X150114000Y-73906749D01*
X149820223Y-73935684D01*
X149537736Y-74021375D01*
X149277394Y-74160531D01*
X149049203Y-74347803D01*
X148861931Y-74575995D01*
X148844000Y-74609541D01*
X148826069Y-74575994D01*
X148718992Y-74445521D01*
X148721925Y-73735000D01*
X175219909Y-73735000D01*
X176328001Y-74843093D01*
%TA.AperFunction,Conductor*%
D19*
G36*
X176328001Y-74843093D02*
G01*
X176328000Y-85944125D01*
X176324565Y-85979000D01*
X176328000Y-86013875D01*
X176328000Y-86013876D01*
X176338273Y-86118183D01*
X176378872Y-86252019D01*
X176444800Y-86375362D01*
X176533525Y-86483474D01*
X176560617Y-86505708D01*
X178868001Y-88813093D01*
X178868001Y-88863294D01*
X178738113Y-88733406D01*
X178301298Y-88441536D01*
X177815935Y-88240492D01*
X177300677Y-88138000D01*
X176775323Y-88138000D01*
X176260065Y-88240492D01*
X175774702Y-88441536D01*
X175337887Y-88733406D01*
X174966406Y-89104887D01*
X174674536Y-89541702D01*
X174473492Y-90027065D01*
X174371000Y-90542323D01*
X174371000Y-91067677D01*
X174473492Y-91582935D01*
X174674536Y-92068298D01*
X174966406Y-92505113D01*
X175337887Y-92876594D01*
X175774702Y-93168464D01*
X176260065Y-93369508D01*
X176775323Y-93472000D01*
X177300677Y-93472000D01*
X177815935Y-93369508D01*
X178301298Y-93168464D01*
X178738113Y-92876594D01*
X178868001Y-92746706D01*
X178868001Y-96941519D01*
X148625528Y-97087383D01*
X148641477Y-93223665D01*
X150563000Y-93223665D01*
X150563000Y-93506335D01*
X150618147Y-93783574D01*
X150726320Y-94044727D01*
X150883363Y-94279759D01*
X151083241Y-94479637D01*
X151318273Y-94636680D01*
X151579426Y-94744853D01*
X151856665Y-94800000D01*
X152139335Y-94800000D01*
X152416574Y-94744853D01*
X152677727Y-94636680D01*
X152912759Y-94479637D01*
X153112637Y-94279759D01*
X153269680Y-94044727D01*
X153377853Y-93783574D01*
X153433000Y-93506335D01*
X153433000Y-93223665D01*
X155563000Y-93223665D01*
X155563000Y-93506335D01*
X155618147Y-93783574D01*
X155726320Y-94044727D01*
X155883363Y-94279759D01*
X156083241Y-94479637D01*
X156318273Y-94636680D01*
X156579426Y-94744853D01*
X156856665Y-94800000D01*
X157139335Y-94800000D01*
X157416574Y-94744853D01*
X157677727Y-94636680D01*
X157732004Y-94600413D01*
X171742192Y-94600413D01*
X171837956Y-94864814D01*
X172127571Y-95005704D01*
X172439108Y-95087384D01*
X172760595Y-95106718D01*
X173079675Y-95062961D01*
X173384088Y-94957795D01*
X173558044Y-94864814D01*
X173653808Y-94600413D01*
X172698000Y-93644605D01*
X171742192Y-94600413D01*
X157732004Y-94600413D01*
X157912759Y-94479637D01*
X158112637Y-94279759D01*
X158269680Y-94044727D01*
X158377853Y-93783574D01*
X158428771Y-93527595D01*
X171056282Y-93527595D01*
X171100039Y-93846675D01*
X171205205Y-94151088D01*
X171298186Y-94325044D01*
X171562587Y-94420808D01*
X172518395Y-93465000D01*
X172877605Y-93465000D01*
X173833413Y-94420808D01*
X174097814Y-94325044D01*
X174238704Y-94035429D01*
X174320384Y-93723892D01*
X174339718Y-93402405D01*
X174295961Y-93083325D01*
X174190795Y-92778912D01*
X174097814Y-92604956D01*
X173833413Y-92509192D01*
X172877605Y-93465000D01*
X172518395Y-93465000D01*
X171562587Y-92509192D01*
X171298186Y-92604956D01*
X171157296Y-92894571D01*
X171075616Y-93206108D01*
X171056282Y-93527595D01*
X158428771Y-93527595D01*
X158433000Y-93506335D01*
X158433000Y-93223665D01*
X158377853Y-92946426D01*
X158269680Y-92685273D01*
X158112637Y-92450241D01*
X157991983Y-92329587D01*
X171742192Y-92329587D01*
X172698000Y-93285395D01*
X173653808Y-92329587D01*
X173558044Y-92065186D01*
X173268429Y-91924296D01*
X172956892Y-91842616D01*
X172635405Y-91823282D01*
X172316325Y-91867039D01*
X172011912Y-91972205D01*
X171837956Y-92065186D01*
X171742192Y-92329587D01*
X157991983Y-92329587D01*
X157912759Y-92250363D01*
X157677727Y-92093320D01*
X157416574Y-91985147D01*
X157139335Y-91930000D01*
X156856665Y-91930000D01*
X156579426Y-91985147D01*
X156318273Y-92093320D01*
X156083241Y-92250363D01*
X155883363Y-92450241D01*
X155726320Y-92685273D01*
X155618147Y-92946426D01*
X155563000Y-93223665D01*
X153433000Y-93223665D01*
X153377853Y-92946426D01*
X153269680Y-92685273D01*
X153112637Y-92450241D01*
X152912759Y-92250363D01*
X152677727Y-92093320D01*
X152416574Y-91985147D01*
X152139335Y-91930000D01*
X151856665Y-91930000D01*
X151579426Y-91985147D01*
X151318273Y-92093320D01*
X151083241Y-92250363D01*
X150883363Y-92450241D01*
X150726320Y-92685273D01*
X150618147Y-92946426D01*
X150563000Y-93223665D01*
X148641477Y-93223665D01*
X148669628Y-86403967D01*
X161963000Y-86403967D01*
X161963000Y-86726033D01*
X162025832Y-87041912D01*
X162149082Y-87339463D01*
X162328013Y-87607252D01*
X162555748Y-87834987D01*
X162823537Y-88013918D01*
X163121088Y-88137168D01*
X163436967Y-88200000D01*
X163759033Y-88200000D01*
X164074912Y-88137168D01*
X164372463Y-88013918D01*
X164640252Y-87834987D01*
X164867987Y-87607252D01*
X165046918Y-87339463D01*
X165170168Y-87041912D01*
X165233000Y-86726033D01*
X165233000Y-86403967D01*
X166463000Y-86403967D01*
X166463000Y-86726033D01*
X166525832Y-87041912D01*
X166649082Y-87339463D01*
X166828013Y-87607252D01*
X167055748Y-87834987D01*
X167323537Y-88013918D01*
X167621088Y-88137168D01*
X167936967Y-88200000D01*
X168259033Y-88200000D01*
X168574912Y-88137168D01*
X168872463Y-88013918D01*
X169140252Y-87834987D01*
X169367987Y-87607252D01*
X169546918Y-87339463D01*
X169670168Y-87041912D01*
X169733000Y-86726033D01*
X169733000Y-86403967D01*
X169670168Y-86088088D01*
X169546918Y-85790537D01*
X169367987Y-85522748D01*
X169140252Y-85295013D01*
X168872463Y-85116082D01*
X168574912Y-84992832D01*
X168259033Y-84930000D01*
X167936967Y-84930000D01*
X167621088Y-84992832D01*
X167323537Y-85116082D01*
X167055748Y-85295013D01*
X166828013Y-85522748D01*
X166649082Y-85790537D01*
X166525832Y-86088088D01*
X166463000Y-86403967D01*
X165233000Y-86403967D01*
X165170168Y-86088088D01*
X165046918Y-85790537D01*
X164867987Y-85522748D01*
X164640252Y-85295013D01*
X164372463Y-85116082D01*
X164074912Y-84992832D01*
X163759033Y-84930000D01*
X163436967Y-84930000D01*
X163121088Y-84992832D01*
X162823537Y-85116082D01*
X162555748Y-85295013D01*
X162328013Y-85522748D01*
X162149082Y-85790537D01*
X162025832Y-86088088D01*
X161963000Y-86403967D01*
X148669628Y-86403967D01*
X148696459Y-79903967D01*
X161963000Y-79903967D01*
X161963000Y-80226033D01*
X162025832Y-80541912D01*
X162149082Y-80839463D01*
X162328013Y-81107252D01*
X162555748Y-81334987D01*
X162823537Y-81513918D01*
X163121088Y-81637168D01*
X163436967Y-81700000D01*
X163759033Y-81700000D01*
X164074912Y-81637168D01*
X164372463Y-81513918D01*
X164640252Y-81334987D01*
X164867987Y-81107252D01*
X165046918Y-80839463D01*
X165170168Y-80541912D01*
X165233000Y-80226033D01*
X165233000Y-79903967D01*
X166463000Y-79903967D01*
X166463000Y-80226033D01*
X166525832Y-80541912D01*
X166649082Y-80839463D01*
X166828013Y-81107252D01*
X167055748Y-81334987D01*
X167323537Y-81513918D01*
X167621088Y-81637168D01*
X167936967Y-81700000D01*
X168259033Y-81700000D01*
X168574912Y-81637168D01*
X168872463Y-81513918D01*
X169140252Y-81334987D01*
X169367987Y-81107252D01*
X169546918Y-80839463D01*
X169670168Y-80541912D01*
X169733000Y-80226033D01*
X169733000Y-79903967D01*
X169670168Y-79588088D01*
X169546918Y-79290537D01*
X169367987Y-79022748D01*
X169140252Y-78795013D01*
X168872463Y-78616082D01*
X168574912Y-78492832D01*
X168259033Y-78430000D01*
X167936967Y-78430000D01*
X167621088Y-78492832D01*
X167323537Y-78616082D01*
X167055748Y-78795013D01*
X166828013Y-79022748D01*
X166649082Y-79290537D01*
X166525832Y-79588088D01*
X166463000Y-79903967D01*
X165233000Y-79903967D01*
X165170168Y-79588088D01*
X165046918Y-79290537D01*
X164867987Y-79022748D01*
X164640252Y-78795013D01*
X164372463Y-78616082D01*
X164074912Y-78492832D01*
X163759033Y-78430000D01*
X163436967Y-78430000D01*
X163121088Y-78492832D01*
X162823537Y-78616082D01*
X162555748Y-78795013D01*
X162328013Y-79022748D01*
X162149082Y-79290537D01*
X162025832Y-79588088D01*
X161963000Y-79903967D01*
X148696459Y-79903967D01*
X148709703Y-76695798D01*
X148826069Y-76554006D01*
X148844000Y-76520459D01*
X148861931Y-76554006D01*
X149049203Y-76782197D01*
X149277395Y-76969469D01*
X149537737Y-77108625D01*
X149820224Y-77194316D01*
X150114000Y-77223251D01*
X150407777Y-77194316D01*
X150690264Y-77108625D01*
X150950606Y-76969469D01*
X151178797Y-76782197D01*
X151366069Y-76554006D01*
X151384000Y-76520459D01*
X151401931Y-76554006D01*
X151589203Y-76782197D01*
X151817395Y-76969469D01*
X152077737Y-77108625D01*
X152360224Y-77194316D01*
X152654000Y-77223251D01*
X152947777Y-77194316D01*
X153230264Y-77108625D01*
X153490606Y-76969469D01*
X153718797Y-76782197D01*
X153906069Y-76554006D01*
X154045225Y-76293663D01*
X154130916Y-76011176D01*
X154152600Y-75791018D01*
X154152600Y-75338982D01*
X155219400Y-75338982D01*
X155219400Y-75791019D01*
X155241084Y-76011177D01*
X155326775Y-76293664D01*
X155465931Y-76554006D01*
X155653203Y-76782197D01*
X155881395Y-76969469D01*
X156141737Y-77108625D01*
X156424224Y-77194316D01*
X156718000Y-77223251D01*
X157011777Y-77194316D01*
X157294264Y-77108625D01*
X157554606Y-76969469D01*
X157782797Y-76782197D01*
X157970069Y-76554006D01*
X157988000Y-76520459D01*
X158005931Y-76554006D01*
X158193203Y-76782197D01*
X158421395Y-76969469D01*
X158681737Y-77108625D01*
X158964224Y-77194316D01*
X159258000Y-77223251D01*
X159551777Y-77194316D01*
X159834264Y-77108625D01*
X160094606Y-76969469D01*
X160322797Y-76782197D01*
X160510069Y-76554006D01*
X160528000Y-76520459D01*
X160545931Y-76554006D01*
X160733203Y-76782197D01*
X160961395Y-76969469D01*
X161221737Y-77108625D01*
X161504224Y-77194316D01*
X161798000Y-77223251D01*
X162091777Y-77194316D01*
X162374264Y-77108625D01*
X162634606Y-76969469D01*
X162862797Y-76782197D01*
X163050069Y-76554006D01*
X163068000Y-76520459D01*
X163085931Y-76554006D01*
X163273203Y-76782197D01*
X163501395Y-76969469D01*
X163761737Y-77108625D01*
X164044224Y-77194316D01*
X164338000Y-77223251D01*
X164631777Y-77194316D01*
X164914264Y-77108625D01*
X165174606Y-76969469D01*
X165402797Y-76782197D01*
X165590069Y-76554006D01*
X165608000Y-76520459D01*
X165625931Y-76554006D01*
X165813203Y-76782197D01*
X166041395Y-76969469D01*
X166301737Y-77108625D01*
X166584224Y-77194316D01*
X166878000Y-77223251D01*
X167171777Y-77194316D01*
X167454264Y-77108625D01*
X167714606Y-76969469D01*
X167942797Y-76782197D01*
X168130069Y-76554006D01*
X168148000Y-76520459D01*
X168165931Y-76554006D01*
X168353203Y-76782197D01*
X168581395Y-76969469D01*
X168841737Y-77108625D01*
X169124224Y-77194316D01*
X169418000Y-77223251D01*
X169711777Y-77194316D01*
X169994264Y-77108625D01*
X170254606Y-76969469D01*
X170482797Y-76782197D01*
X170670069Y-76554006D01*
X170688000Y-76520459D01*
X170705931Y-76554006D01*
X170893203Y-76782197D01*
X171121395Y-76969469D01*
X171381737Y-77108625D01*
X171664224Y-77194316D01*
X171958000Y-77223251D01*
X172251777Y-77194316D01*
X172534264Y-77108625D01*
X172794606Y-76969469D01*
X173022797Y-76782197D01*
X173210069Y-76554006D01*
X173228000Y-76520459D01*
X173245931Y-76554006D01*
X173433203Y-76782197D01*
X173661395Y-76969469D01*
X173921737Y-77108625D01*
X174204224Y-77194316D01*
X174498000Y-77223251D01*
X174791777Y-77194316D01*
X175074264Y-77108625D01*
X175334606Y-76969469D01*
X175562797Y-76782197D01*
X175750069Y-76554006D01*
X175889225Y-76293663D01*
X175974916Y-76011176D01*
X175996600Y-75791018D01*
X175996600Y-75338981D01*
X175974916Y-75118823D01*
X175889225Y-74836336D01*
X175750069Y-74575994D01*
X175562797Y-74347803D01*
X175334605Y-74160531D01*
X175074263Y-74021375D01*
X174791776Y-73935684D01*
X174498000Y-73906749D01*
X174204223Y-73935684D01*
X173921736Y-74021375D01*
X173661394Y-74160531D01*
X173433203Y-74347803D01*
X173245931Y-74575995D01*
X173228000Y-74609541D01*
X173210069Y-74575994D01*
X173022797Y-74347803D01*
X172794605Y-74160531D01*
X172534263Y-74021375D01*
X172251776Y-73935684D01*
X171958000Y-73906749D01*
X171664223Y-73935684D01*
X171381736Y-74021375D01*
X171121394Y-74160531D01*
X170893203Y-74347803D01*
X170705931Y-74575995D01*
X170688000Y-74609541D01*
X170670069Y-74575994D01*
X170482797Y-74347803D01*
X170254605Y-74160531D01*
X169994263Y-74021375D01*
X169711776Y-73935684D01*
X169418000Y-73906749D01*
X169124223Y-73935684D01*
X168841736Y-74021375D01*
X168581394Y-74160531D01*
X168353203Y-74347803D01*
X168165931Y-74575995D01*
X168148000Y-74609541D01*
X168130069Y-74575994D01*
X167942797Y-74347803D01*
X167714605Y-74160531D01*
X167454263Y-74021375D01*
X167171776Y-73935684D01*
X166878000Y-73906749D01*
X166584223Y-73935684D01*
X166301736Y-74021375D01*
X166041394Y-74160531D01*
X165813203Y-74347803D01*
X165625931Y-74575995D01*
X165608000Y-74609541D01*
X165590069Y-74575994D01*
X165402797Y-74347803D01*
X165174605Y-74160531D01*
X164914263Y-74021375D01*
X164631776Y-73935684D01*
X164338000Y-73906749D01*
X164044223Y-73935684D01*
X163761736Y-74021375D01*
X163501394Y-74160531D01*
X163273203Y-74347803D01*
X163085931Y-74575995D01*
X163068000Y-74609541D01*
X163050069Y-74575994D01*
X162862797Y-74347803D01*
X162634605Y-74160531D01*
X162374263Y-74021375D01*
X162091776Y-73935684D01*
X161798000Y-73906749D01*
X161504223Y-73935684D01*
X161221736Y-74021375D01*
X160961394Y-74160531D01*
X160733203Y-74347803D01*
X160545931Y-74575995D01*
X160528000Y-74609541D01*
X160510069Y-74575994D01*
X160322797Y-74347803D01*
X160094605Y-74160531D01*
X159834263Y-74021375D01*
X159551776Y-73935684D01*
X159258000Y-73906749D01*
X158964223Y-73935684D01*
X158681736Y-74021375D01*
X158421394Y-74160531D01*
X158193203Y-74347803D01*
X158005931Y-74575995D01*
X157988000Y-74609541D01*
X157970069Y-74575994D01*
X157782797Y-74347803D01*
X157554605Y-74160531D01*
X157294263Y-74021375D01*
X157011776Y-73935684D01*
X156718000Y-73906749D01*
X156424223Y-73935684D01*
X156141736Y-74021375D01*
X155881394Y-74160531D01*
X155653203Y-74347803D01*
X155465931Y-74575995D01*
X155326775Y-74836337D01*
X155241084Y-75118824D01*
X155219400Y-75338982D01*
X154152600Y-75338982D01*
X154152600Y-75338981D01*
X154130916Y-75118823D01*
X154045225Y-74836336D01*
X153906069Y-74575994D01*
X153718797Y-74347803D01*
X153490605Y-74160531D01*
X153230263Y-74021375D01*
X152947776Y-73935684D01*
X152654000Y-73906749D01*
X152360223Y-73935684D01*
X152077736Y-74021375D01*
X151817394Y-74160531D01*
X151589203Y-74347803D01*
X151401931Y-74575995D01*
X151384000Y-74609541D01*
X151366069Y-74575994D01*
X151178797Y-74347803D01*
X150950605Y-74160531D01*
X150690263Y-74021375D01*
X150407776Y-73935684D01*
X150114000Y-73906749D01*
X149820223Y-73935684D01*
X149537736Y-74021375D01*
X149277394Y-74160531D01*
X149049203Y-74347803D01*
X148861931Y-74575995D01*
X148844000Y-74609541D01*
X148826069Y-74575994D01*
X148718992Y-74445521D01*
X148721925Y-73735000D01*
X175219909Y-73735000D01*
X176328001Y-74843093D01*
G37*
%TD.AperFunction*%
D18*
X124166406Y-73864887D02*
X123874536Y-74301702D01*
X123673492Y-74787065D01*
X123571000Y-75302323D01*
X123571000Y-75827677D01*
X123673492Y-76342935D01*
X123874536Y-76828298D01*
X124166406Y-77265113D01*
X124537887Y-77636594D01*
X124974702Y-77928464D01*
X125460065Y-78129508D01*
X125975323Y-78232000D01*
X126500677Y-78232000D01*
X127015935Y-78129508D01*
X127501298Y-77928464D01*
X127938113Y-77636594D01*
X128309594Y-77265113D01*
X128601464Y-76828298D01*
X128657001Y-76694219D01*
X128729203Y-76782197D01*
X128957395Y-76969469D01*
X129217737Y-77108625D01*
X129500224Y-77194316D01*
X129794000Y-77223251D01*
X130087777Y-77194316D01*
X130370264Y-77108625D01*
X130630606Y-76969469D01*
X130858797Y-76782197D01*
X131046069Y-76554006D01*
X131064000Y-76520459D01*
X131081931Y-76554006D01*
X131269203Y-76782197D01*
X131497395Y-76969469D01*
X131757737Y-77108625D01*
X132040224Y-77194316D01*
X132334000Y-77223251D01*
X132627777Y-77194316D01*
X132910264Y-77108625D01*
X133170606Y-76969469D01*
X133398797Y-76782197D01*
X133586069Y-76554006D01*
X133604000Y-76520459D01*
X133621931Y-76554006D01*
X133809203Y-76782197D01*
X134037395Y-76969469D01*
X134297737Y-77108625D01*
X134580224Y-77194316D01*
X134874000Y-77223251D01*
X135167777Y-77194316D01*
X135450264Y-77108625D01*
X135710606Y-76969469D01*
X135938797Y-76782197D01*
X136126069Y-76554006D01*
X136144000Y-76520459D01*
X136161931Y-76554006D01*
X136349203Y-76782197D01*
X136577395Y-76969469D01*
X136837737Y-77108625D01*
X137120224Y-77194316D01*
X137414000Y-77223251D01*
X137707777Y-77194316D01*
X137990264Y-77108625D01*
X138250606Y-76969469D01*
X138478797Y-76782197D01*
X138666069Y-76554006D01*
X138684000Y-76520459D01*
X138701931Y-76554006D01*
X138889203Y-76782197D01*
X139117395Y-76969469D01*
X139377737Y-77108625D01*
X139660224Y-77194316D01*
X139954000Y-77223251D01*
X140247777Y-77194316D01*
X140530264Y-77108625D01*
X140790606Y-76969469D01*
X141018797Y-76782197D01*
X141206069Y-76554006D01*
X141224000Y-76520459D01*
X141241931Y-76554006D01*
X141429203Y-76782197D01*
X141657395Y-76969469D01*
X141917737Y-77108625D01*
X142200224Y-77194316D01*
X142494000Y-77223251D01*
X142787777Y-77194316D01*
X143070264Y-77108625D01*
X143330606Y-76969469D01*
X143558797Y-76782197D01*
X143746069Y-76554006D01*
X143764000Y-76520459D01*
X143781931Y-76554006D01*
X143969203Y-76782197D01*
X144197395Y-76969469D01*
X144457737Y-77108625D01*
X144740224Y-77194316D01*
X145034000Y-77223251D01*
X145327777Y-77194316D01*
X145610264Y-77108625D01*
X145870606Y-76969469D01*
X146098797Y-76782197D01*
X146286069Y-76554006D01*
X146293381Y-76540326D01*
X146321003Y-80890806D01*
X146321076Y-80894396D01*
X146520938Y-86665402D01*
X146196050Y-98186420D01*
X146197791Y-98211255D01*
X146204344Y-98235274D01*
X146215456Y-98257553D01*
X146230702Y-98277235D01*
X146249494Y-98293566D01*
X146271111Y-98305916D01*
X146294722Y-98313812D01*
X146321759Y-98316994D01*
X178868001Y-98635115D01*
X178868000Y-116803293D01*
X178738113Y-116673406D01*
X178301298Y-116381536D01*
X177815935Y-116180492D01*
X177300677Y-116078000D01*
X176775323Y-116078000D01*
X176260065Y-116180492D01*
X175774702Y-116381536D01*
X175337887Y-116673406D01*
X174966406Y-117044887D01*
X174674536Y-117481702D01*
X174473492Y-117967065D01*
X174371000Y-118482323D01*
X174371000Y-119007677D01*
X174473492Y-119522935D01*
X174674536Y-120008298D01*
X174966406Y-120445113D01*
X175337887Y-120816594D01*
X175774702Y-121108464D01*
X176260065Y-121309508D01*
X176775323Y-121412000D01*
X177300677Y-121412000D01*
X177815935Y-121309508D01*
X178301298Y-121108464D01*
X178738113Y-120816594D01*
X178868000Y-120686707D01*
X178868000Y-120990908D01*
X176560617Y-123298292D01*
X176533526Y-123320525D01*
X176511293Y-123347616D01*
X176444801Y-123428637D01*
X176378872Y-123551981D01*
X176338274Y-123685816D01*
X176324565Y-123825000D01*
X176328001Y-123859885D01*
X176328000Y-125655000D01*
X126909707Y-125655000D01*
X127039594Y-125525113D01*
X127331464Y-125088298D01*
X127532508Y-124602935D01*
X127635000Y-124087677D01*
X127635000Y-123638982D01*
X137459400Y-123638982D01*
X137459400Y-124091019D01*
X137481084Y-124311177D01*
X137566775Y-124593664D01*
X137705931Y-124854006D01*
X137893203Y-125082197D01*
X138121395Y-125269469D01*
X138381737Y-125408625D01*
X138664224Y-125494316D01*
X138958000Y-125523251D01*
X139251777Y-125494316D01*
X139534264Y-125408625D01*
X139794606Y-125269469D01*
X140022797Y-125082197D01*
X140210069Y-124854006D01*
X140228000Y-124820459D01*
X140245931Y-124854006D01*
X140433203Y-125082197D01*
X140661395Y-125269469D01*
X140921737Y-125408625D01*
X141204224Y-125494316D01*
X141498000Y-125523251D01*
X141791777Y-125494316D01*
X142074264Y-125408625D01*
X142334606Y-125269469D01*
X142562797Y-125082197D01*
X142750069Y-124854006D01*
X142768000Y-124820459D01*
X142785931Y-124854006D01*
X142973203Y-125082197D01*
X143201395Y-125269469D01*
X143461737Y-125408625D01*
X143744224Y-125494316D01*
X144038000Y-125523251D01*
X144331777Y-125494316D01*
X144614264Y-125408625D01*
X144874606Y-125269469D01*
X145102797Y-125082197D01*
X145290069Y-124854006D01*
X145308000Y-124820459D01*
X145325931Y-124854006D01*
X145513203Y-125082197D01*
X145741395Y-125269469D01*
X146001737Y-125408625D01*
X146284224Y-125494316D01*
X146578000Y-125523251D01*
X146871777Y-125494316D01*
X147154264Y-125408625D01*
X147414606Y-125269469D01*
X147642797Y-125082197D01*
X147830069Y-124854006D01*
X147848000Y-124820459D01*
X147865931Y-124854006D01*
X148053203Y-125082197D01*
X148281395Y-125269469D01*
X148541737Y-125408625D01*
X148824224Y-125494316D01*
X149118000Y-125523251D01*
X149411777Y-125494316D01*
X149694264Y-125408625D01*
X149954606Y-125269469D01*
X150182797Y-125082197D01*
X150370069Y-124854006D01*
X150388000Y-124820459D01*
X150405931Y-124854006D01*
X150593203Y-125082197D01*
X150821395Y-125269469D01*
X151081737Y-125408625D01*
X151364224Y-125494316D01*
X151658000Y-125523251D01*
X151951777Y-125494316D01*
X152234264Y-125408625D01*
X152494606Y-125269469D01*
X152722797Y-125082197D01*
X152910069Y-124854006D01*
X152928000Y-124820459D01*
X152945931Y-124854006D01*
X153133203Y-125082197D01*
X153361395Y-125269469D01*
X153621737Y-125408625D01*
X153904224Y-125494316D01*
X154198000Y-125523251D01*
X154491777Y-125494316D01*
X154774264Y-125408625D01*
X155034606Y-125269469D01*
X155262797Y-125082197D01*
X155450069Y-124854006D01*
X155468000Y-124820459D01*
X155485931Y-124854006D01*
X155673203Y-125082197D01*
X155901395Y-125269469D01*
X156161737Y-125408625D01*
X156444224Y-125494316D01*
X156738000Y-125523251D01*
X157031777Y-125494316D01*
X157314264Y-125408625D01*
X157574606Y-125269469D01*
X157802797Y-125082197D01*
X157990069Y-124854006D01*
X158129225Y-124593663D01*
X158214916Y-124311176D01*
X158236600Y-124091018D01*
X158236600Y-123638981D01*
X158232661Y-123598982D01*
X160299400Y-123598982D01*
X160299400Y-124051019D01*
X160321084Y-124271177D01*
X160406775Y-124553664D01*
X160545931Y-124814006D01*
X160733203Y-125042197D01*
X160961395Y-125229469D01*
X161221737Y-125368625D01*
X161504224Y-125454316D01*
X161798000Y-125483251D01*
X162091777Y-125454316D01*
X162374264Y-125368625D01*
X162634606Y-125229469D01*
X162862797Y-125042197D01*
X163050069Y-124814006D01*
X163068000Y-124780459D01*
X163085931Y-124814006D01*
X163273203Y-125042197D01*
X163501395Y-125229469D01*
X163761737Y-125368625D01*
X164044224Y-125454316D01*
X164338000Y-125483251D01*
X164631777Y-125454316D01*
X164914264Y-125368625D01*
X165174606Y-125229469D01*
X165402797Y-125042197D01*
X165590069Y-124814006D01*
X165608000Y-124780459D01*
X165625931Y-124814006D01*
X165813203Y-125042197D01*
X166041395Y-125229469D01*
X166301737Y-125368625D01*
X166584224Y-125454316D01*
X166878000Y-125483251D01*
X167171777Y-125454316D01*
X167454264Y-125368625D01*
X167714606Y-125229469D01*
X167942797Y-125042197D01*
X168130069Y-124814006D01*
X168148000Y-124780459D01*
X168165931Y-124814006D01*
X168353203Y-125042197D01*
X168581395Y-125229469D01*
X168841737Y-125368625D01*
X169124224Y-125454316D01*
X169418000Y-125483251D01*
X169711777Y-125454316D01*
X169994264Y-125368625D01*
X170254606Y-125229469D01*
X170482797Y-125042197D01*
X170670069Y-124814006D01*
X170688000Y-124780459D01*
X170705931Y-124814006D01*
X170893203Y-125042197D01*
X171121395Y-125229469D01*
X171381737Y-125368625D01*
X171664224Y-125454316D01*
X171958000Y-125483251D01*
X172251777Y-125454316D01*
X172534264Y-125368625D01*
X172794606Y-125229469D01*
X173022797Y-125042197D01*
X173210069Y-124814006D01*
X173228000Y-124780459D01*
X173245931Y-124814006D01*
X173433203Y-125042197D01*
X173661395Y-125229469D01*
X173921737Y-125368625D01*
X174204224Y-125454316D01*
X174498000Y-125483251D01*
X174791777Y-125454316D01*
X175074264Y-125368625D01*
X175334606Y-125229469D01*
X175562797Y-125042197D01*
X175750069Y-124814006D01*
X175889225Y-124553663D01*
X175974916Y-124271176D01*
X175996600Y-124051018D01*
X175996600Y-123598981D01*
X175974916Y-123378823D01*
X175889225Y-123096336D01*
X175750069Y-122835994D01*
X175562797Y-122607803D01*
X175334605Y-122420531D01*
X175074263Y-122281375D01*
X174791776Y-122195684D01*
X174498000Y-122166749D01*
X174204223Y-122195684D01*
X173921736Y-122281375D01*
X173661394Y-122420531D01*
X173433203Y-122607803D01*
X173245931Y-122835995D01*
X173228000Y-122869541D01*
X173210069Y-122835994D01*
X173022797Y-122607803D01*
X172794605Y-122420531D01*
X172534263Y-122281375D01*
X172251776Y-122195684D01*
X171958000Y-122166749D01*
X171664223Y-122195684D01*
X171381736Y-122281375D01*
X171121394Y-122420531D01*
X170893203Y-122607803D01*
X170705931Y-122835995D01*
X170688000Y-122869541D01*
X170670069Y-122835994D01*
X170482797Y-122607803D01*
X170254605Y-122420531D01*
X169994263Y-122281375D01*
X169711776Y-122195684D01*
X169418000Y-122166749D01*
X169124223Y-122195684D01*
X168841736Y-122281375D01*
X168581394Y-122420531D01*
X168353203Y-122607803D01*
X168165931Y-122835995D01*
X168148000Y-122869541D01*
X168130069Y-122835994D01*
X167942797Y-122607803D01*
X167714605Y-122420531D01*
X167454263Y-122281375D01*
X167171776Y-122195684D01*
X166878000Y-122166749D01*
X166584223Y-122195684D01*
X166301736Y-122281375D01*
X166041394Y-122420531D01*
X165813203Y-122607803D01*
X165625931Y-122835995D01*
X165608000Y-122869541D01*
X165590069Y-122835994D01*
X165402797Y-122607803D01*
X165174605Y-122420531D01*
X164914263Y-122281375D01*
X164631776Y-122195684D01*
X164338000Y-122166749D01*
X164044223Y-122195684D01*
X163761736Y-122281375D01*
X163501394Y-122420531D01*
X163273203Y-122607803D01*
X163085931Y-122835995D01*
X163068000Y-122869541D01*
X163050069Y-122835994D01*
X162862797Y-122607803D01*
X162634605Y-122420531D01*
X162374263Y-122281375D01*
X162091776Y-122195684D01*
X161798000Y-122166749D01*
X161504223Y-122195684D01*
X161221736Y-122281375D01*
X160961394Y-122420531D01*
X160733203Y-122607803D01*
X160545931Y-122835995D01*
X160406775Y-123096337D01*
X160321084Y-123378824D01*
X160299400Y-123598982D01*
X158232661Y-123598982D01*
X158214916Y-123418823D01*
X158129225Y-123136336D01*
X157990069Y-122875994D01*
X157802797Y-122647803D01*
X157574605Y-122460531D01*
X157314263Y-122321375D01*
X157031776Y-122235684D01*
X156738000Y-122206749D01*
X156444223Y-122235684D01*
X156161736Y-122321375D01*
X155901394Y-122460531D01*
X155673203Y-122647803D01*
X155485931Y-122875995D01*
X155468000Y-122909541D01*
X155450069Y-122875994D01*
X155262797Y-122647803D01*
X155034605Y-122460531D01*
X154774263Y-122321375D01*
X154491776Y-122235684D01*
X154198000Y-122206749D01*
X153904223Y-122235684D01*
X153621736Y-122321375D01*
X153361394Y-122460531D01*
X153133203Y-122647803D01*
X152945931Y-122875995D01*
X152928000Y-122909541D01*
X152910069Y-122875994D01*
X152722797Y-122647803D01*
X152494605Y-122460531D01*
X152234263Y-122321375D01*
X151951776Y-122235684D01*
X151658000Y-122206749D01*
X151364223Y-122235684D01*
X151081736Y-122321375D01*
X150821394Y-122460531D01*
X150593203Y-122647803D01*
X150405931Y-122875995D01*
X150388000Y-122909541D01*
X150370069Y-122875994D01*
X150182797Y-122647803D01*
X149954605Y-122460531D01*
X149694263Y-122321375D01*
X149411776Y-122235684D01*
X149118000Y-122206749D01*
X148824223Y-122235684D01*
X148541736Y-122321375D01*
X148281394Y-122460531D01*
X148053203Y-122647803D01*
X147865931Y-122875995D01*
X147848000Y-122909541D01*
X147830069Y-122875994D01*
X147642797Y-122647803D01*
X147414605Y-122460531D01*
X147154263Y-122321375D01*
X146871776Y-122235684D01*
X146578000Y-122206749D01*
X146284223Y-122235684D01*
X146001736Y-122321375D01*
X145741394Y-122460531D01*
X145513203Y-122647803D01*
X145325931Y-122875995D01*
X145308000Y-122909541D01*
X145290069Y-122875994D01*
X145102797Y-122647803D01*
X144874605Y-122460531D01*
X144614263Y-122321375D01*
X144331776Y-122235684D01*
X144038000Y-122206749D01*
X143744223Y-122235684D01*
X143461736Y-122321375D01*
X143201394Y-122460531D01*
X142973203Y-122647803D01*
X142785931Y-122875995D01*
X142768000Y-122909541D01*
X142750069Y-122875994D01*
X142562797Y-122647803D01*
X142334605Y-122460531D01*
X142074263Y-122321375D01*
X141791776Y-122235684D01*
X141498000Y-122206749D01*
X141204223Y-122235684D01*
X140921736Y-122321375D01*
X140661394Y-122460531D01*
X140433203Y-122647803D01*
X140245931Y-122875995D01*
X140228000Y-122909541D01*
X140210069Y-122875994D01*
X140022797Y-122647803D01*
X139794605Y-122460531D01*
X139534263Y-122321375D01*
X139251776Y-122235684D01*
X138958000Y-122206749D01*
X138664223Y-122235684D01*
X138381736Y-122321375D01*
X138121394Y-122460531D01*
X137893203Y-122647803D01*
X137705931Y-122875995D01*
X137566775Y-123136337D01*
X137481084Y-123418824D01*
X137459400Y-123638982D01*
X127635000Y-123638982D01*
X127635000Y-123562323D01*
X127532508Y-123047065D01*
X127331464Y-122561702D01*
X127039594Y-122124887D01*
X126668113Y-121753406D01*
X126231298Y-121461536D01*
X125745935Y-121260492D01*
X125230677Y-121158000D01*
X124705323Y-121158000D01*
X124190065Y-121260492D01*
X123704702Y-121461536D01*
X123267887Y-121753406D01*
X122896406Y-122124887D01*
X122604536Y-122561702D01*
X122403492Y-123047065D01*
X122301000Y-123562323D01*
X122301000Y-124087677D01*
X122403492Y-124602935D01*
X122604536Y-125088298D01*
X122896406Y-125525113D01*
X123026293Y-125655000D01*
X111708000Y-125655000D01*
X111708000Y-118473665D01*
X127863000Y-118473665D01*
X127863000Y-118756335D01*
X127918147Y-119033574D01*
X128026320Y-119294727D01*
X128183363Y-119529759D01*
X128268604Y-119615000D01*
X128183363Y-119700241D01*
X128026320Y-119935273D01*
X127918147Y-120196426D01*
X127863000Y-120473665D01*
X127863000Y-120756335D01*
X127918147Y-121033574D01*
X128026320Y-121294727D01*
X128183363Y-121529759D01*
X128383241Y-121729637D01*
X128618273Y-121886680D01*
X128879426Y-121994853D01*
X129156665Y-122050000D01*
X129439335Y-122050000D01*
X129716574Y-121994853D01*
X129977727Y-121886680D01*
X130212759Y-121729637D01*
X130412637Y-121529759D01*
X130569680Y-121294727D01*
X130677853Y-121033574D01*
X130733000Y-120756335D01*
X130733000Y-120473665D01*
X130677853Y-120196426D01*
X130569680Y-119935273D01*
X130412637Y-119700241D01*
X130386061Y-119673665D01*
X140103000Y-119673665D01*
X140103000Y-119956335D01*
X140158147Y-120233574D01*
X140266320Y-120494727D01*
X140423363Y-120729759D01*
X140623241Y-120929637D01*
X140858273Y-121086680D01*
X141119426Y-121194853D01*
X141396665Y-121250000D01*
X141679335Y-121250000D01*
X141956574Y-121194853D01*
X142217727Y-121086680D01*
X142452759Y-120929637D01*
X142652637Y-120729759D01*
X142809680Y-120494727D01*
X142917853Y-120233574D01*
X142973000Y-119956335D01*
X142973000Y-119673665D01*
X150263000Y-119673665D01*
X150263000Y-119956335D01*
X150318147Y-120233574D01*
X150426320Y-120494727D01*
X150583363Y-120729759D01*
X150783241Y-120929637D01*
X151018273Y-121086680D01*
X151279426Y-121194853D01*
X151556665Y-121250000D01*
X151839335Y-121250000D01*
X152116574Y-121194853D01*
X152377727Y-121086680D01*
X152612759Y-120929637D01*
X152812637Y-120729759D01*
X152969680Y-120494727D01*
X153077853Y-120233574D01*
X153133000Y-119956335D01*
X153133000Y-119673665D01*
X153077853Y-119396426D01*
X152969680Y-119135273D01*
X152812637Y-118900241D01*
X152612759Y-118700363D01*
X152377727Y-118543320D01*
X152116574Y-118435147D01*
X151839335Y-118380000D01*
X151556665Y-118380000D01*
X151279426Y-118435147D01*
X151018273Y-118543320D01*
X150783241Y-118700363D01*
X150583363Y-118900241D01*
X150426320Y-119135273D01*
X150318147Y-119396426D01*
X150263000Y-119673665D01*
X142973000Y-119673665D01*
X142917853Y-119396426D01*
X142809680Y-119135273D01*
X142652637Y-118900241D01*
X142452759Y-118700363D01*
X142217727Y-118543320D01*
X141956574Y-118435147D01*
X141679335Y-118380000D01*
X141396665Y-118380000D01*
X141119426Y-118435147D01*
X140858273Y-118543320D01*
X140623241Y-118700363D01*
X140423363Y-118900241D01*
X140266320Y-119135273D01*
X140158147Y-119396426D01*
X140103000Y-119673665D01*
X130386061Y-119673665D01*
X130327396Y-119615000D01*
X130412637Y-119529759D01*
X130569680Y-119294727D01*
X130677853Y-119033574D01*
X130733000Y-118756335D01*
X130733000Y-118473665D01*
X130677853Y-118196426D01*
X130569680Y-117935273D01*
X130412637Y-117700241D01*
X130212759Y-117500363D01*
X129977727Y-117343320D01*
X129809565Y-117273665D01*
X134663000Y-117273665D01*
X134663000Y-117556335D01*
X134718147Y-117833574D01*
X134826320Y-118094727D01*
X134983363Y-118329759D01*
X135183241Y-118529637D01*
X135418273Y-118686680D01*
X135679426Y-118794853D01*
X135956665Y-118850000D01*
X136239335Y-118850000D01*
X136516574Y-118794853D01*
X136777727Y-118686680D01*
X137012759Y-118529637D01*
X137212637Y-118329759D01*
X137369680Y-118094727D01*
X137477853Y-117833574D01*
X137533000Y-117556335D01*
X137533000Y-117273665D01*
X137477853Y-116996426D01*
X137369680Y-116735273D01*
X137212637Y-116500241D01*
X137012759Y-116300363D01*
X136777727Y-116143320D01*
X136516574Y-116035147D01*
X136239335Y-115980000D01*
X135956665Y-115980000D01*
X135679426Y-116035147D01*
X135418273Y-116143320D01*
X135183241Y-116300363D01*
X134983363Y-116500241D01*
X134826320Y-116735273D01*
X134718147Y-116996426D01*
X134663000Y-117273665D01*
X129809565Y-117273665D01*
X129716574Y-117235147D01*
X129439335Y-117180000D01*
X129156665Y-117180000D01*
X128879426Y-117235147D01*
X128618273Y-117343320D01*
X128383241Y-117500363D01*
X128183363Y-117700241D01*
X128026320Y-117935273D01*
X127918147Y-118196426D01*
X127863000Y-118473665D01*
X111708000Y-118473665D01*
X111708000Y-114603967D01*
X122713000Y-114603967D01*
X122713000Y-114926033D01*
X122775832Y-115241912D01*
X122899082Y-115539463D01*
X123078013Y-115807252D01*
X123305748Y-116034987D01*
X123573537Y-116213918D01*
X123871088Y-116337168D01*
X124186967Y-116400000D01*
X124509033Y-116400000D01*
X124824912Y-116337168D01*
X125122463Y-116213918D01*
X125390252Y-116034987D01*
X125617987Y-115807252D01*
X125796918Y-115539463D01*
X125920168Y-115241912D01*
X125983000Y-114926033D01*
X125983000Y-114923665D01*
X140813000Y-114923665D01*
X140813000Y-115206335D01*
X140868147Y-115483574D01*
X140976320Y-115744727D01*
X141133363Y-115979759D01*
X141333241Y-116179637D01*
X141568273Y-116336680D01*
X141829426Y-116444853D01*
X142106665Y-116500000D01*
X142389335Y-116500000D01*
X142666574Y-116444853D01*
X142927727Y-116336680D01*
X143162759Y-116179637D01*
X143362637Y-115979759D01*
X143519680Y-115744727D01*
X143627853Y-115483574D01*
X143683000Y-115206335D01*
X143683000Y-114923665D01*
X145813000Y-114923665D01*
X145813000Y-115206335D01*
X145868147Y-115483574D01*
X145976320Y-115744727D01*
X146133363Y-115979759D01*
X146333241Y-116179637D01*
X146568273Y-116336680D01*
X146829426Y-116444853D01*
X147106665Y-116500000D01*
X147389335Y-116500000D01*
X147521728Y-116473665D01*
X156663000Y-116473665D01*
X156663000Y-116756335D01*
X156718147Y-117033574D01*
X156826320Y-117294727D01*
X156983363Y-117529759D01*
X157183241Y-117729637D01*
X157418273Y-117886680D01*
X157679426Y-117994853D01*
X157956665Y-118050000D01*
X158239335Y-118050000D01*
X158516574Y-117994853D01*
X158777727Y-117886680D01*
X159012759Y-117729637D01*
X159212637Y-117529759D01*
X159369680Y-117294727D01*
X159477853Y-117033574D01*
X159533000Y-116756335D01*
X159533000Y-116473665D01*
X159525044Y-116433665D01*
X160963000Y-116433665D01*
X160963000Y-116716335D01*
X161018147Y-116993574D01*
X161126320Y-117254727D01*
X161283363Y-117489759D01*
X161483241Y-117689637D01*
X161718273Y-117846680D01*
X161979426Y-117954853D01*
X162256665Y-118010000D01*
X162539335Y-118010000D01*
X162816574Y-117954853D01*
X163077727Y-117846680D01*
X163312759Y-117689637D01*
X163512637Y-117489759D01*
X163669680Y-117254727D01*
X163777853Y-116993574D01*
X163833000Y-116716335D01*
X163833000Y-116433665D01*
X163777853Y-116156426D01*
X163713231Y-116000413D01*
X167442192Y-116000413D01*
X167537956Y-116264814D01*
X167827571Y-116405704D01*
X168139108Y-116487384D01*
X168460595Y-116506718D01*
X168779675Y-116462961D01*
X169084088Y-116357795D01*
X169258044Y-116264814D01*
X169353808Y-116000413D01*
X168398000Y-115044605D01*
X167442192Y-116000413D01*
X163713231Y-116000413D01*
X163669680Y-115895273D01*
X163512637Y-115660241D01*
X163312759Y-115460363D01*
X163077727Y-115303320D01*
X162816574Y-115195147D01*
X162539335Y-115140000D01*
X162256665Y-115140000D01*
X161979426Y-115195147D01*
X161718273Y-115303320D01*
X161483241Y-115460363D01*
X161283363Y-115660241D01*
X161126320Y-115895273D01*
X161018147Y-116156426D01*
X160963000Y-116433665D01*
X159525044Y-116433665D01*
X159477853Y-116196426D01*
X159369680Y-115935273D01*
X159212637Y-115700241D01*
X159012759Y-115500363D01*
X158777727Y-115343320D01*
X158516574Y-115235147D01*
X158239335Y-115180000D01*
X157956665Y-115180000D01*
X157679426Y-115235147D01*
X157418273Y-115343320D01*
X157183241Y-115500363D01*
X156983363Y-115700241D01*
X156826320Y-115935273D01*
X156718147Y-116196426D01*
X156663000Y-116473665D01*
X147521728Y-116473665D01*
X147666574Y-116444853D01*
X147927727Y-116336680D01*
X148162759Y-116179637D01*
X148362637Y-115979759D01*
X148519680Y-115744727D01*
X148627853Y-115483574D01*
X148683000Y-115206335D01*
X148683000Y-114927595D01*
X166756282Y-114927595D01*
X166800039Y-115246675D01*
X166905205Y-115551088D01*
X166998186Y-115725044D01*
X167262587Y-115820808D01*
X168218395Y-114865000D01*
X168577605Y-114865000D01*
X169533413Y-115820808D01*
X169797814Y-115725044D01*
X169938704Y-115435429D01*
X170020384Y-115123892D01*
X170039718Y-114802405D01*
X169995961Y-114483325D01*
X169890795Y-114178912D01*
X169797814Y-114004956D01*
X169533413Y-113909192D01*
X168577605Y-114865000D01*
X168218395Y-114865000D01*
X167262587Y-113909192D01*
X166998186Y-114004956D01*
X166857296Y-114294571D01*
X166775616Y-114606108D01*
X166756282Y-114927595D01*
X148683000Y-114927595D01*
X148683000Y-114923665D01*
X148627853Y-114646426D01*
X148519680Y-114385273D01*
X148362637Y-114150241D01*
X148162759Y-113950363D01*
X147927727Y-113793320D01*
X147773862Y-113729587D01*
X167442192Y-113729587D01*
X168398000Y-114685395D01*
X169353808Y-113729587D01*
X169258044Y-113465186D01*
X168968429Y-113324296D01*
X168656892Y-113242616D01*
X168335405Y-113223282D01*
X168016325Y-113267039D01*
X167711912Y-113372205D01*
X167537956Y-113465186D01*
X167442192Y-113729587D01*
X147773862Y-113729587D01*
X147666574Y-113685147D01*
X147389335Y-113630000D01*
X147106665Y-113630000D01*
X146829426Y-113685147D01*
X146568273Y-113793320D01*
X146333241Y-113950363D01*
X146133363Y-114150241D01*
X145976320Y-114385273D01*
X145868147Y-114646426D01*
X145813000Y-114923665D01*
X143683000Y-114923665D01*
X143627853Y-114646426D01*
X143519680Y-114385273D01*
X143362637Y-114150241D01*
X143162759Y-113950363D01*
X142927727Y-113793320D01*
X142666574Y-113685147D01*
X142389335Y-113630000D01*
X142106665Y-113630000D01*
X141829426Y-113685147D01*
X141568273Y-113793320D01*
X141333241Y-113950363D01*
X141133363Y-114150241D01*
X140976320Y-114385273D01*
X140868147Y-114646426D01*
X140813000Y-114923665D01*
X125983000Y-114923665D01*
X125983000Y-114603967D01*
X125920168Y-114288088D01*
X125796918Y-113990537D01*
X125617987Y-113722748D01*
X125390252Y-113495013D01*
X125122463Y-113316082D01*
X124824912Y-113192832D01*
X124509033Y-113130000D01*
X124186967Y-113130000D01*
X123871088Y-113192832D01*
X123573537Y-113316082D01*
X123305748Y-113495013D01*
X123078013Y-113722748D01*
X122899082Y-113990537D01*
X122775832Y-114288088D01*
X122713000Y-114603967D01*
X111708000Y-114603967D01*
X111708000Y-112273665D01*
X134663000Y-112273665D01*
X134663000Y-112556335D01*
X134718147Y-112833574D01*
X134826320Y-113094727D01*
X134983363Y-113329759D01*
X135183241Y-113529637D01*
X135418273Y-113686680D01*
X135679426Y-113794853D01*
X135956665Y-113850000D01*
X136239335Y-113850000D01*
X136516574Y-113794853D01*
X136777727Y-113686680D01*
X137012759Y-113529637D01*
X137212637Y-113329759D01*
X137369680Y-113094727D01*
X137477853Y-112833574D01*
X137533000Y-112556335D01*
X137533000Y-112273665D01*
X137477853Y-111996426D01*
X137369680Y-111735273D01*
X137315354Y-111653967D01*
X151713000Y-111653967D01*
X151713000Y-111976033D01*
X151775832Y-112291912D01*
X151899082Y-112589463D01*
X152078013Y-112857252D01*
X152305748Y-113084987D01*
X152573537Y-113263918D01*
X152871088Y-113387168D01*
X153186967Y-113450000D01*
X153509033Y-113450000D01*
X153824912Y-113387168D01*
X154122463Y-113263918D01*
X154390252Y-113084987D01*
X154617987Y-112857252D01*
X154796918Y-112589463D01*
X154920168Y-112291912D01*
X154983000Y-111976033D01*
X154983000Y-111653967D01*
X154920168Y-111338088D01*
X154796918Y-111040537D01*
X154617987Y-110772748D01*
X154390252Y-110545013D01*
X154122463Y-110366082D01*
X153824912Y-110242832D01*
X153509033Y-110180000D01*
X153186967Y-110180000D01*
X152871088Y-110242832D01*
X152573537Y-110366082D01*
X152305748Y-110545013D01*
X152078013Y-110772748D01*
X151899082Y-111040537D01*
X151775832Y-111338088D01*
X151713000Y-111653967D01*
X137315354Y-111653967D01*
X137212637Y-111500241D01*
X137012759Y-111300363D01*
X136777727Y-111143320D01*
X136516574Y-111035147D01*
X136239335Y-110980000D01*
X135956665Y-110980000D01*
X135679426Y-111035147D01*
X135418273Y-111143320D01*
X135183241Y-111300363D01*
X134983363Y-111500241D01*
X134826320Y-111735273D01*
X134718147Y-111996426D01*
X134663000Y-112273665D01*
X111708000Y-112273665D01*
X111708000Y-108523665D01*
X118203000Y-108523665D01*
X118203000Y-108806335D01*
X118258147Y-109083574D01*
X118366320Y-109344727D01*
X118523363Y-109579759D01*
X118723241Y-109779637D01*
X118958273Y-109936680D01*
X119219426Y-110044853D01*
X119496665Y-110100000D01*
X119779335Y-110100000D01*
X120056574Y-110044853D01*
X120317727Y-109936680D01*
X120552759Y-109779637D01*
X120752637Y-109579759D01*
X120909680Y-109344727D01*
X121017853Y-109083574D01*
X121073000Y-108806335D01*
X121073000Y-108523665D01*
X128363000Y-108523665D01*
X128363000Y-108806335D01*
X128418147Y-109083574D01*
X128526320Y-109344727D01*
X128683363Y-109579759D01*
X128883241Y-109779637D01*
X129118273Y-109936680D01*
X129379426Y-110044853D01*
X129656665Y-110100000D01*
X129939335Y-110100000D01*
X130216574Y-110044853D01*
X130477727Y-109936680D01*
X130712759Y-109779637D01*
X130912637Y-109579759D01*
X130943186Y-109534039D01*
X140656096Y-109534039D01*
X140696754Y-109668087D01*
X140816963Y-109922420D01*
X140984481Y-110148414D01*
X141192869Y-110337385D01*
X141434119Y-110482070D01*
X141698960Y-110576909D01*
X141921000Y-110455624D01*
X141921000Y-109312000D01*
X142175000Y-109312000D01*
X142175000Y-110455624D01*
X142397040Y-110576909D01*
X142661881Y-110482070D01*
X142903131Y-110337385D01*
X143111519Y-110148414D01*
X143279037Y-109922420D01*
X143399246Y-109668087D01*
X143439904Y-109534039D01*
X143317915Y-109312000D01*
X142175000Y-109312000D01*
X141921000Y-109312000D01*
X140778085Y-109312000D01*
X140656096Y-109534039D01*
X130943186Y-109534039D01*
X131069680Y-109344727D01*
X131177853Y-109083574D01*
X131233000Y-108806335D01*
X131233000Y-108523665D01*
X131177853Y-108246426D01*
X131069680Y-107985273D01*
X130912637Y-107750241D01*
X130712759Y-107550363D01*
X130477727Y-107393320D01*
X130216574Y-107285147D01*
X129939335Y-107230000D01*
X129656665Y-107230000D01*
X129379426Y-107285147D01*
X129118273Y-107393320D01*
X128883241Y-107550363D01*
X128683363Y-107750241D01*
X128526320Y-107985273D01*
X128418147Y-108246426D01*
X128363000Y-108523665D01*
X121073000Y-108523665D01*
X121017853Y-108246426D01*
X120909680Y-107985273D01*
X120752637Y-107750241D01*
X120552759Y-107550363D01*
X120317727Y-107393320D01*
X120056574Y-107285147D01*
X119779335Y-107230000D01*
X119496665Y-107230000D01*
X119219426Y-107285147D01*
X118958273Y-107393320D01*
X118723241Y-107550363D01*
X118523363Y-107750241D01*
X118366320Y-107985273D01*
X118258147Y-108246426D01*
X118203000Y-108523665D01*
X111708000Y-108523665D01*
X111708000Y-105283665D01*
X134563000Y-105283665D01*
X134563000Y-105566335D01*
X134618147Y-105843574D01*
X134726320Y-106104727D01*
X134883363Y-106339759D01*
X135083241Y-106539637D01*
X135318273Y-106696680D01*
X135579426Y-106804853D01*
X135856665Y-106860000D01*
X136139335Y-106860000D01*
X136416574Y-106804853D01*
X136677727Y-106696680D01*
X136912759Y-106539637D01*
X137112637Y-106339759D01*
X137269680Y-106104727D01*
X137377853Y-105843574D01*
X137433000Y-105566335D01*
X137433000Y-105283665D01*
X137377853Y-105006426D01*
X137269680Y-104745273D01*
X137112637Y-104510241D01*
X136912759Y-104310363D01*
X136677727Y-104153320D01*
X136416574Y-104045147D01*
X136139335Y-103990000D01*
X135856665Y-103990000D01*
X135579426Y-104045147D01*
X135318273Y-104153320D01*
X135083241Y-104310363D01*
X134883363Y-104510241D01*
X134726320Y-104745273D01*
X134618147Y-105006426D01*
X134563000Y-105283665D01*
X111708000Y-105283665D01*
X111708000Y-102514039D01*
X116996096Y-102514039D01*
X117036754Y-102648087D01*
X117156963Y-102902420D01*
X117324481Y-103128414D01*
X117532869Y-103317385D01*
X117774119Y-103462070D01*
X118038960Y-103556909D01*
X118261000Y-103435624D01*
X118261000Y-102292000D01*
X118515000Y-102292000D01*
X118515000Y-103435624D01*
X118737040Y-103556909D01*
X119001881Y-103462070D01*
X119243131Y-103317385D01*
X119451519Y-103128414D01*
X119619037Y-102902420D01*
X119739246Y-102648087D01*
X119779904Y-102514039D01*
X119657915Y-102292000D01*
X118515000Y-102292000D01*
X118261000Y-102292000D01*
X117118085Y-102292000D01*
X116996096Y-102514039D01*
X111708000Y-102514039D01*
X111708000Y-101815961D01*
X116996096Y-101815961D01*
X117118085Y-102038000D01*
X118261000Y-102038000D01*
X118261000Y-100894376D01*
X118515000Y-100894376D01*
X118515000Y-102038000D01*
X119657915Y-102038000D01*
X119665790Y-102023665D01*
X127113000Y-102023665D01*
X127113000Y-102306335D01*
X127168147Y-102583574D01*
X127276320Y-102844727D01*
X127433363Y-103079759D01*
X127633241Y-103279637D01*
X127868273Y-103436680D01*
X128129426Y-103544853D01*
X128406665Y-103600000D01*
X128689335Y-103600000D01*
X128966574Y-103544853D01*
X129227727Y-103436680D01*
X129462759Y-103279637D01*
X129662637Y-103079759D01*
X129819680Y-102844727D01*
X129927853Y-102583574D01*
X129983000Y-102306335D01*
X129983000Y-102023665D01*
X129927853Y-101746426D01*
X129819680Y-101485273D01*
X129662637Y-101250241D01*
X129462759Y-101050363D01*
X129227727Y-100893320D01*
X128966574Y-100785147D01*
X128865290Y-100765000D01*
X140609928Y-100765000D01*
X140609928Y-102365000D01*
X140622188Y-102489482D01*
X140658498Y-102609180D01*
X140717463Y-102719494D01*
X140796815Y-102816185D01*
X140893506Y-102895537D01*
X141003820Y-102954502D01*
X141123518Y-102990812D01*
X141131961Y-102991643D01*
X140933363Y-103190241D01*
X140776320Y-103425273D01*
X140668147Y-103686426D01*
X140613000Y-103963665D01*
X140613000Y-104246335D01*
X140668147Y-104523574D01*
X140776320Y-104784727D01*
X140933363Y-105019759D01*
X141133241Y-105219637D01*
X141365759Y-105375000D01*
X141133241Y-105530363D01*
X140933363Y-105730241D01*
X140776320Y-105965273D01*
X140668147Y-106226426D01*
X140613000Y-106503665D01*
X140613000Y-106786335D01*
X140668147Y-107063574D01*
X140776320Y-107324727D01*
X140933363Y-107559759D01*
X141133241Y-107759637D01*
X141368273Y-107916680D01*
X141378865Y-107921067D01*
X141192869Y-108032615D01*
X140984481Y-108221586D01*
X140816963Y-108447580D01*
X140696754Y-108701913D01*
X140656096Y-108835961D01*
X140778085Y-109058000D01*
X141921000Y-109058000D01*
X141921000Y-109038000D01*
X142175000Y-109038000D01*
X142175000Y-109058000D01*
X143317915Y-109058000D01*
X143439904Y-108835961D01*
X143399246Y-108701913D01*
X143279037Y-108447580D01*
X143111519Y-108221586D01*
X142903131Y-108032615D01*
X142717135Y-107921067D01*
X142727727Y-107916680D01*
X142962759Y-107759637D01*
X143162637Y-107559759D01*
X143319680Y-107324727D01*
X143427853Y-107063574D01*
X143483000Y-106786335D01*
X143483000Y-106503665D01*
X143427853Y-106226426D01*
X143319680Y-105965273D01*
X143162637Y-105730241D01*
X142962759Y-105530363D01*
X142730241Y-105375000D01*
X142962759Y-105219637D01*
X143162637Y-105019759D01*
X143319680Y-104784727D01*
X143427853Y-104523574D01*
X143483000Y-104246335D01*
X143483000Y-103963665D01*
X143427853Y-103686426D01*
X143319680Y-103425273D01*
X143162637Y-103190241D01*
X142964039Y-102991643D01*
X142972482Y-102990812D01*
X143092180Y-102954502D01*
X143202494Y-102895537D01*
X143299185Y-102816185D01*
X143378537Y-102719494D01*
X143437502Y-102609180D01*
X143473812Y-102489482D01*
X143486072Y-102365000D01*
X143486072Y-101423665D01*
X148233000Y-101423665D01*
X148233000Y-101706335D01*
X148288147Y-101983574D01*
X148396320Y-102244727D01*
X148553363Y-102479759D01*
X148753241Y-102679637D01*
X148985759Y-102835000D01*
X148753241Y-102990363D01*
X148553363Y-103190241D01*
X148396320Y-103425273D01*
X148288147Y-103686426D01*
X148233000Y-103963665D01*
X148233000Y-104246335D01*
X148288147Y-104523574D01*
X148396320Y-104784727D01*
X148553363Y-105019759D01*
X148753241Y-105219637D01*
X148985759Y-105375000D01*
X148753241Y-105530363D01*
X148553363Y-105730241D01*
X148396320Y-105965273D01*
X148288147Y-106226426D01*
X148233000Y-106503665D01*
X148233000Y-106786335D01*
X148288147Y-107063574D01*
X148396320Y-107324727D01*
X148553363Y-107559759D01*
X148753241Y-107759637D01*
X148985759Y-107915000D01*
X148753241Y-108070363D01*
X148553363Y-108270241D01*
X148396320Y-108505273D01*
X148288147Y-108766426D01*
X148233000Y-109043665D01*
X148233000Y-109326335D01*
X148288147Y-109603574D01*
X148396320Y-109864727D01*
X148553363Y-110099759D01*
X148753241Y-110299637D01*
X148988273Y-110456680D01*
X149249426Y-110564853D01*
X149526665Y-110620000D01*
X149809335Y-110620000D01*
X150086574Y-110564853D01*
X150347727Y-110456680D01*
X150582759Y-110299637D01*
X150782637Y-110099759D01*
X150939680Y-109864727D01*
X151047853Y-109603574D01*
X151103000Y-109326335D01*
X151103000Y-109043665D01*
X151047853Y-108766426D01*
X150939680Y-108505273D01*
X150782637Y-108270241D01*
X150582759Y-108070363D01*
X150350241Y-107915000D01*
X150582759Y-107759637D01*
X150782637Y-107559759D01*
X150939680Y-107324727D01*
X151047853Y-107063574D01*
X151103000Y-106786335D01*
X151103000Y-106503665D01*
X151065207Y-106313665D01*
X156663000Y-106313665D01*
X156663000Y-106596335D01*
X156718147Y-106873574D01*
X156826320Y-107134727D01*
X156983363Y-107369759D01*
X157183241Y-107569637D01*
X157418273Y-107726680D01*
X157679426Y-107834853D01*
X157956665Y-107890000D01*
X158239335Y-107890000D01*
X158516574Y-107834853D01*
X158777727Y-107726680D01*
X159012759Y-107569637D01*
X159212637Y-107369759D01*
X159369680Y-107134727D01*
X159477853Y-106873574D01*
X159533000Y-106596335D01*
X159533000Y-106313665D01*
X159525044Y-106273665D01*
X160963000Y-106273665D01*
X160963000Y-106556335D01*
X161018147Y-106833574D01*
X161126320Y-107094727D01*
X161283363Y-107329759D01*
X161483241Y-107529637D01*
X161718273Y-107686680D01*
X161979426Y-107794853D01*
X162256665Y-107850000D01*
X162539335Y-107850000D01*
X162816574Y-107794853D01*
X163077727Y-107686680D01*
X163312759Y-107529637D01*
X163512637Y-107329759D01*
X163669680Y-107094727D01*
X163777853Y-106833574D01*
X163813579Y-106653967D01*
X166163000Y-106653967D01*
X166163000Y-106976033D01*
X166225832Y-107291912D01*
X166349082Y-107589463D01*
X166528013Y-107857252D01*
X166755748Y-108084987D01*
X167023537Y-108263918D01*
X167321088Y-108387168D01*
X167636967Y-108450000D01*
X167959033Y-108450000D01*
X168274912Y-108387168D01*
X168572463Y-108263918D01*
X168840252Y-108084987D01*
X169067987Y-107857252D01*
X169246918Y-107589463D01*
X169370168Y-107291912D01*
X169433000Y-106976033D01*
X169433000Y-106653967D01*
X169370168Y-106338088D01*
X169246918Y-106040537D01*
X169067987Y-105772748D01*
X168840252Y-105545013D01*
X168572463Y-105366082D01*
X168274912Y-105242832D01*
X167959033Y-105180000D01*
X167636967Y-105180000D01*
X167321088Y-105242832D01*
X167023537Y-105366082D01*
X166755748Y-105545013D01*
X166528013Y-105772748D01*
X166349082Y-106040537D01*
X166225832Y-106338088D01*
X166163000Y-106653967D01*
X163813579Y-106653967D01*
X163833000Y-106556335D01*
X163833000Y-106273665D01*
X163777853Y-105996426D01*
X163669680Y-105735273D01*
X163512637Y-105500241D01*
X163312759Y-105300363D01*
X163077727Y-105143320D01*
X162816574Y-105035147D01*
X162539335Y-104980000D01*
X162256665Y-104980000D01*
X161979426Y-105035147D01*
X161718273Y-105143320D01*
X161483241Y-105300363D01*
X161283363Y-105500241D01*
X161126320Y-105735273D01*
X161018147Y-105996426D01*
X160963000Y-106273665D01*
X159525044Y-106273665D01*
X159477853Y-106036426D01*
X159369680Y-105775273D01*
X159212637Y-105540241D01*
X159012759Y-105340363D01*
X158777727Y-105183320D01*
X158516574Y-105075147D01*
X158239335Y-105020000D01*
X157956665Y-105020000D01*
X157679426Y-105075147D01*
X157418273Y-105183320D01*
X157183241Y-105340363D01*
X156983363Y-105540241D01*
X156826320Y-105775273D01*
X156718147Y-106036426D01*
X156663000Y-106313665D01*
X151065207Y-106313665D01*
X151047853Y-106226426D01*
X150939680Y-105965273D01*
X150782637Y-105730241D01*
X150582759Y-105530363D01*
X150350241Y-105375000D01*
X150582759Y-105219637D01*
X150782637Y-105019759D01*
X150939680Y-104784727D01*
X151047853Y-104523574D01*
X151103000Y-104246335D01*
X151103000Y-103963665D01*
X151047853Y-103686426D01*
X150939680Y-103425273D01*
X150782637Y-103190241D01*
X150582759Y-102990363D01*
X150350241Y-102835000D01*
X150582759Y-102679637D01*
X150782637Y-102479759D01*
X150939680Y-102244727D01*
X151047853Y-101983574D01*
X151103000Y-101706335D01*
X151103000Y-101423665D01*
X151047853Y-101146426D01*
X150939680Y-100885273D01*
X150782637Y-100650241D01*
X150582759Y-100450363D01*
X150347727Y-100293320D01*
X150086574Y-100185147D01*
X149809335Y-100130000D01*
X149526665Y-100130000D01*
X149249426Y-100185147D01*
X148988273Y-100293320D01*
X148753241Y-100450363D01*
X148553363Y-100650241D01*
X148396320Y-100885273D01*
X148288147Y-101146426D01*
X148233000Y-101423665D01*
X143486072Y-101423665D01*
X143486072Y-100765000D01*
X143473812Y-100640518D01*
X143437502Y-100520820D01*
X143378537Y-100410506D01*
X143299185Y-100313815D01*
X143202494Y-100234463D01*
X143092180Y-100175498D01*
X142972482Y-100139188D01*
X142848000Y-100126928D01*
X141248000Y-100126928D01*
X141123518Y-100139188D01*
X141003820Y-100175498D01*
X140893506Y-100234463D01*
X140796815Y-100313815D01*
X140717463Y-100410506D01*
X140658498Y-100520820D01*
X140622188Y-100640518D01*
X140609928Y-100765000D01*
X128865290Y-100765000D01*
X128689335Y-100730000D01*
X128406665Y-100730000D01*
X128129426Y-100785147D01*
X127868273Y-100893320D01*
X127633241Y-101050363D01*
X127433363Y-101250241D01*
X127276320Y-101485273D01*
X127168147Y-101746426D01*
X127113000Y-102023665D01*
X119665790Y-102023665D01*
X119779904Y-101815961D01*
X119739246Y-101681913D01*
X119619037Y-101427580D01*
X119451519Y-101201586D01*
X119243131Y-101012615D01*
X119001881Y-100867930D01*
X118737040Y-100773091D01*
X118515000Y-100894376D01*
X118261000Y-100894376D01*
X118038960Y-100773091D01*
X117774119Y-100867930D01*
X117532869Y-101012615D01*
X117324481Y-101201586D01*
X117156963Y-101427580D01*
X117036754Y-101681913D01*
X116996096Y-101815961D01*
X111708000Y-101815961D01*
X111708000Y-97123665D01*
X116963000Y-97123665D01*
X116963000Y-97406335D01*
X117018147Y-97683574D01*
X117126320Y-97944727D01*
X117283363Y-98179759D01*
X117483241Y-98379637D01*
X117718273Y-98536680D01*
X117979426Y-98644853D01*
X118256665Y-98700000D01*
X118539335Y-98700000D01*
X118816574Y-98644853D01*
X119077727Y-98536680D01*
X119312759Y-98379637D01*
X119512637Y-98179759D01*
X119669680Y-97944727D01*
X119777853Y-97683574D01*
X119833000Y-97406335D01*
X119833000Y-97123665D01*
X127123000Y-97123665D01*
X127123000Y-97406335D01*
X127178147Y-97683574D01*
X127286320Y-97944727D01*
X127443363Y-98179759D01*
X127643241Y-98379637D01*
X127878273Y-98536680D01*
X128139426Y-98644853D01*
X128416665Y-98700000D01*
X128699335Y-98700000D01*
X128976574Y-98644853D01*
X129237727Y-98536680D01*
X129472759Y-98379637D01*
X129672637Y-98179759D01*
X129829680Y-97944727D01*
X129937853Y-97683574D01*
X129993000Y-97406335D01*
X129993000Y-97123665D01*
X129937853Y-96846426D01*
X129829680Y-96585273D01*
X129672637Y-96350241D01*
X129472759Y-96150363D01*
X129237727Y-95993320D01*
X128976574Y-95885147D01*
X128699335Y-95830000D01*
X128416665Y-95830000D01*
X128139426Y-95885147D01*
X127878273Y-95993320D01*
X127643241Y-96150363D01*
X127443363Y-96350241D01*
X127286320Y-96585273D01*
X127178147Y-96846426D01*
X127123000Y-97123665D01*
X119833000Y-97123665D01*
X119777853Y-96846426D01*
X119669680Y-96585273D01*
X119512637Y-96350241D01*
X119312759Y-96150363D01*
X119077727Y-95993320D01*
X118816574Y-95885147D01*
X118539335Y-95830000D01*
X118256665Y-95830000D01*
X117979426Y-95885147D01*
X117718273Y-95993320D01*
X117483241Y-96150363D01*
X117283363Y-96350241D01*
X117126320Y-96585273D01*
X117018147Y-96846426D01*
X116963000Y-97123665D01*
X111708000Y-97123665D01*
X111708000Y-95123665D01*
X134563000Y-95123665D01*
X134563000Y-95406335D01*
X134618147Y-95683574D01*
X134726320Y-95944727D01*
X134883363Y-96179759D01*
X135083241Y-96379637D01*
X135318273Y-96536680D01*
X135579426Y-96644853D01*
X135856665Y-96700000D01*
X136139335Y-96700000D01*
X136416574Y-96644853D01*
X136677727Y-96536680D01*
X136912759Y-96379637D01*
X137112637Y-96179759D01*
X137269680Y-95944727D01*
X137377853Y-95683574D01*
X137433000Y-95406335D01*
X137433000Y-95123665D01*
X137377853Y-94846426D01*
X137269680Y-94585273D01*
X137112637Y-94350241D01*
X136912759Y-94150363D01*
X136677727Y-93993320D01*
X136416574Y-93885147D01*
X136139335Y-93830000D01*
X135856665Y-93830000D01*
X135579426Y-93885147D01*
X135318273Y-93993320D01*
X135083241Y-94150363D01*
X134883363Y-94350241D01*
X134726320Y-94585273D01*
X134618147Y-94846426D01*
X134563000Y-95123665D01*
X111708000Y-95123665D01*
X111708000Y-88865000D01*
X120609928Y-88865000D01*
X120622188Y-88989482D01*
X120658498Y-89109180D01*
X120717463Y-89219494D01*
X120796815Y-89316185D01*
X120893506Y-89395537D01*
X121003820Y-89454502D01*
X121076380Y-89476513D01*
X120944525Y-89608368D01*
X120782010Y-89851589D01*
X120670068Y-90121842D01*
X120613000Y-90408740D01*
X120613000Y-90701260D01*
X120670068Y-90988158D01*
X120782010Y-91258411D01*
X120944525Y-91501632D01*
X121151368Y-91708475D01*
X121325760Y-91825000D01*
X121151368Y-91941525D01*
X120944525Y-92148368D01*
X120782010Y-92391589D01*
X120670068Y-92661842D01*
X120613000Y-92948740D01*
X120613000Y-93241260D01*
X120670068Y-93528158D01*
X120782010Y-93798411D01*
X120944525Y-94041632D01*
X121151368Y-94248475D01*
X121394589Y-94410990D01*
X121664842Y-94522932D01*
X121951740Y-94580000D01*
X122244260Y-94580000D01*
X122531158Y-94522932D01*
X122801411Y-94410990D01*
X123044632Y-94248475D01*
X123251475Y-94041632D01*
X123413990Y-93798411D01*
X123525932Y-93528158D01*
X123583000Y-93241260D01*
X123583000Y-92948740D01*
X123525932Y-92661842D01*
X123413990Y-92391589D01*
X123251475Y-92148368D01*
X123044632Y-91941525D01*
X122870240Y-91825000D01*
X123044632Y-91708475D01*
X123251475Y-91501632D01*
X123413990Y-91258411D01*
X123525932Y-90988158D01*
X123583000Y-90701260D01*
X123583000Y-90408740D01*
X123525932Y-90121842D01*
X123413990Y-89851589D01*
X123251475Y-89608368D01*
X123119620Y-89476513D01*
X123192180Y-89454502D01*
X123302494Y-89395537D01*
X123399185Y-89316185D01*
X123475113Y-89223665D01*
X125313000Y-89223665D01*
X125313000Y-89506335D01*
X125368147Y-89783574D01*
X125476320Y-90044727D01*
X125633363Y-90279759D01*
X125833241Y-90479637D01*
X126068273Y-90636680D01*
X126329426Y-90744853D01*
X126606665Y-90800000D01*
X126889335Y-90800000D01*
X127166574Y-90744853D01*
X127427727Y-90636680D01*
X127662759Y-90479637D01*
X127748000Y-90394396D01*
X127833241Y-90479637D01*
X128068273Y-90636680D01*
X128329426Y-90744853D01*
X128606665Y-90800000D01*
X128889335Y-90800000D01*
X129166574Y-90744853D01*
X129427727Y-90636680D01*
X129662759Y-90479637D01*
X129862637Y-90279759D01*
X130019680Y-90044727D01*
X130064918Y-89935512D01*
X133407783Y-89935512D01*
X133449213Y-90215130D01*
X133544397Y-90481292D01*
X133611329Y-90606514D01*
X133855298Y-90678097D01*
X134668395Y-89865000D01*
X133855298Y-89051903D01*
X133611329Y-89123486D01*
X133490429Y-89378996D01*
X133421700Y-89653184D01*
X133407783Y-89935512D01*
X130064918Y-89935512D01*
X130127853Y-89783574D01*
X130183000Y-89506335D01*
X130183000Y-89223665D01*
X130127853Y-88946426D01*
X130097149Y-88872298D01*
X134034903Y-88872298D01*
X134848000Y-89685395D01*
X134862143Y-89671253D01*
X135041748Y-89850858D01*
X135027605Y-89865000D01*
X135041748Y-89879143D01*
X134862143Y-90058748D01*
X134848000Y-90044605D01*
X134034903Y-90857702D01*
X134106486Y-91101671D01*
X134361996Y-91222571D01*
X134636184Y-91291300D01*
X134918512Y-91305217D01*
X135198130Y-91263787D01*
X135464292Y-91168603D01*
X135589514Y-91101671D01*
X135661097Y-90857704D01*
X135777370Y-90973977D01*
X135852476Y-90898872D01*
X135933241Y-90979637D01*
X136168273Y-91136680D01*
X136429426Y-91244853D01*
X136706665Y-91300000D01*
X136989335Y-91300000D01*
X137266574Y-91244853D01*
X137527727Y-91136680D01*
X137762759Y-90979637D01*
X137962637Y-90779759D01*
X138119680Y-90544727D01*
X138227853Y-90283574D01*
X138283000Y-90006335D01*
X138283000Y-89723665D01*
X138227853Y-89446426D01*
X138119680Y-89185273D01*
X137962637Y-88950241D01*
X137762759Y-88750363D01*
X137527727Y-88593320D01*
X137266574Y-88485147D01*
X136989335Y-88430000D01*
X136706665Y-88430000D01*
X136429426Y-88485147D01*
X136168273Y-88593320D01*
X135933241Y-88750363D01*
X135852476Y-88831129D01*
X135777370Y-88756023D01*
X135661097Y-88872296D01*
X135589514Y-88628329D01*
X135334004Y-88507429D01*
X135059816Y-88438700D01*
X134777488Y-88424783D01*
X134497870Y-88466213D01*
X134231708Y-88561397D01*
X134106486Y-88628329D01*
X134034903Y-88872298D01*
X130097149Y-88872298D01*
X130019680Y-88685273D01*
X129862637Y-88450241D01*
X129662759Y-88250363D01*
X129427727Y-88093320D01*
X129166574Y-87985147D01*
X128889335Y-87930000D01*
X128606665Y-87930000D01*
X128329426Y-87985147D01*
X128068273Y-88093320D01*
X127833241Y-88250363D01*
X127748000Y-88335604D01*
X127662759Y-88250363D01*
X127427727Y-88093320D01*
X127166574Y-87985147D01*
X126889335Y-87930000D01*
X126606665Y-87930000D01*
X126329426Y-87985147D01*
X126068273Y-88093320D01*
X125833241Y-88250363D01*
X125633363Y-88450241D01*
X125476320Y-88685273D01*
X125368147Y-88946426D01*
X125313000Y-89223665D01*
X123475113Y-89223665D01*
X123478537Y-89219494D01*
X123537502Y-89109180D01*
X123573812Y-88989482D01*
X123586072Y-88865000D01*
X123583000Y-88300750D01*
X123424250Y-88142000D01*
X122225000Y-88142000D01*
X122225000Y-88162000D01*
X121971000Y-88162000D01*
X121971000Y-88142000D01*
X120771750Y-88142000D01*
X120613000Y-88300750D01*
X120609928Y-88865000D01*
X111708000Y-88865000D01*
X111708000Y-87165000D01*
X120609928Y-87165000D01*
X120613000Y-87729250D01*
X120771750Y-87888000D01*
X121971000Y-87888000D01*
X121971000Y-86688750D01*
X122225000Y-86688750D01*
X122225000Y-87888000D01*
X123424250Y-87888000D01*
X123583000Y-87729250D01*
X123586072Y-87165000D01*
X123573812Y-87040518D01*
X123537502Y-86920820D01*
X123478537Y-86810506D01*
X123399185Y-86713815D01*
X123302494Y-86634463D01*
X123192180Y-86575498D01*
X123072482Y-86539188D01*
X122948000Y-86526928D01*
X122383750Y-86530000D01*
X122225000Y-86688750D01*
X121971000Y-86688750D01*
X121812250Y-86530000D01*
X121248000Y-86526928D01*
X121123518Y-86539188D01*
X121003820Y-86575498D01*
X120893506Y-86634463D01*
X120796815Y-86713815D01*
X120717463Y-86810506D01*
X120658498Y-86920820D01*
X120622188Y-87040518D01*
X120609928Y-87165000D01*
X111708000Y-87165000D01*
X111708000Y-85357702D01*
X133834903Y-85357702D01*
X133906486Y-85601671D01*
X134161996Y-85722571D01*
X134436184Y-85791300D01*
X134718512Y-85805217D01*
X134998130Y-85763787D01*
X135264292Y-85668603D01*
X135389514Y-85601671D01*
X135461097Y-85357702D01*
X134648000Y-84544605D01*
X133834903Y-85357702D01*
X111708000Y-85357702D01*
X111708000Y-83053967D01*
X128263000Y-83053967D01*
X128263000Y-83376033D01*
X128325832Y-83691912D01*
X128449082Y-83989463D01*
X128628013Y-84257252D01*
X128855748Y-84484987D01*
X129123537Y-84663918D01*
X129421088Y-84787168D01*
X129736967Y-84850000D01*
X130059033Y-84850000D01*
X130374912Y-84787168D01*
X130672463Y-84663918D01*
X130940252Y-84484987D01*
X130989727Y-84435512D01*
X133207783Y-84435512D01*
X133249213Y-84715130D01*
X133344397Y-84981292D01*
X133411329Y-85106514D01*
X133655298Y-85178097D01*
X134468395Y-84365000D01*
X134827605Y-84365000D01*
X135640702Y-85178097D01*
X135884671Y-85106514D01*
X136005571Y-84851004D01*
X136074300Y-84576816D01*
X136088217Y-84294488D01*
X136077724Y-84223665D01*
X138213000Y-84223665D01*
X138213000Y-84506335D01*
X138268147Y-84783574D01*
X138376320Y-85044727D01*
X138533363Y-85279759D01*
X138733241Y-85479637D01*
X138968273Y-85636680D01*
X139229426Y-85744853D01*
X139506665Y-85800000D01*
X139789335Y-85800000D01*
X140066574Y-85744853D01*
X140327727Y-85636680D01*
X140562759Y-85479637D01*
X140762637Y-85279759D01*
X140919680Y-85044727D01*
X141027853Y-84783574D01*
X141083000Y-84506335D01*
X141083000Y-84223665D01*
X141027853Y-83946426D01*
X140919680Y-83685273D01*
X140762637Y-83450241D01*
X140562759Y-83250363D01*
X140327727Y-83093320D01*
X140066574Y-82985147D01*
X139789335Y-82930000D01*
X139506665Y-82930000D01*
X139229426Y-82985147D01*
X138968273Y-83093320D01*
X138733241Y-83250363D01*
X138533363Y-83450241D01*
X138376320Y-83685273D01*
X138268147Y-83946426D01*
X138213000Y-84223665D01*
X136077724Y-84223665D01*
X136046787Y-84014870D01*
X135951603Y-83748708D01*
X135884671Y-83623486D01*
X135640702Y-83551903D01*
X134827605Y-84365000D01*
X134468395Y-84365000D01*
X133655298Y-83551903D01*
X133411329Y-83623486D01*
X133290429Y-83878996D01*
X133221700Y-84153184D01*
X133207783Y-84435512D01*
X130989727Y-84435512D01*
X131167987Y-84257252D01*
X131346918Y-83989463D01*
X131470168Y-83691912D01*
X131533000Y-83376033D01*
X131533000Y-83372298D01*
X133834903Y-83372298D01*
X134648000Y-84185395D01*
X135461097Y-83372298D01*
X135389514Y-83128329D01*
X135134004Y-83007429D01*
X134859816Y-82938700D01*
X134577488Y-82924783D01*
X134297870Y-82966213D01*
X134031708Y-83061397D01*
X133906486Y-83128329D01*
X133834903Y-83372298D01*
X131533000Y-83372298D01*
X131533000Y-83053967D01*
X131470168Y-82738088D01*
X131346918Y-82440537D01*
X131167987Y-82172748D01*
X130940252Y-81945013D01*
X130672463Y-81766082D01*
X130374912Y-81642832D01*
X130059033Y-81580000D01*
X129736967Y-81580000D01*
X129421088Y-81642832D01*
X129123537Y-81766082D01*
X128855748Y-81945013D01*
X128628013Y-82172748D01*
X128449082Y-82440537D01*
X128325832Y-82738088D01*
X128263000Y-83053967D01*
X111708000Y-83053967D01*
X111708000Y-78650413D01*
X114992192Y-78650413D01*
X115087956Y-78914814D01*
X115377571Y-79055704D01*
X115689108Y-79137384D01*
X116010595Y-79156718D01*
X116329675Y-79112961D01*
X116634088Y-79007795D01*
X116808044Y-78914814D01*
X116903808Y-78650413D01*
X115948000Y-77694605D01*
X114992192Y-78650413D01*
X111708000Y-78650413D01*
X111708000Y-77577595D01*
X114306282Y-77577595D01*
X114350039Y-77896675D01*
X114455205Y-78201088D01*
X114548186Y-78375044D01*
X114812587Y-78470808D01*
X115768395Y-77515000D01*
X116127605Y-77515000D01*
X117083413Y-78470808D01*
X117347814Y-78375044D01*
X117488704Y-78085429D01*
X117570384Y-77773892D01*
X117589718Y-77452405D01*
X117545961Y-77133325D01*
X117440795Y-76828912D01*
X117347814Y-76654956D01*
X117083413Y-76559192D01*
X116127605Y-77515000D01*
X115768395Y-77515000D01*
X114812587Y-76559192D01*
X114548186Y-76654956D01*
X114407296Y-76944571D01*
X114325616Y-77256108D01*
X114306282Y-77577595D01*
X111708000Y-77577595D01*
X111708000Y-76379587D01*
X114992192Y-76379587D01*
X115948000Y-77335395D01*
X116903808Y-76379587D01*
X116808044Y-76115186D01*
X116518429Y-75974296D01*
X116206892Y-75892616D01*
X115885405Y-75873282D01*
X115566325Y-75917039D01*
X115261912Y-76022205D01*
X115087956Y-76115186D01*
X114992192Y-76379587D01*
X111708000Y-76379587D01*
X111708000Y-73735000D01*
X124296293Y-73735000D01*
X124166406Y-73864887D01*
%TA.AperFunction,Conductor*%
D19*
G36*
X124166406Y-73864887D02*
G01*
X123874536Y-74301702D01*
X123673492Y-74787065D01*
X123571000Y-75302323D01*
X123571000Y-75827677D01*
X123673492Y-76342935D01*
X123874536Y-76828298D01*
X124166406Y-77265113D01*
X124537887Y-77636594D01*
X124974702Y-77928464D01*
X125460065Y-78129508D01*
X125975323Y-78232000D01*
X126500677Y-78232000D01*
X127015935Y-78129508D01*
X127501298Y-77928464D01*
X127938113Y-77636594D01*
X128309594Y-77265113D01*
X128601464Y-76828298D01*
X128657001Y-76694219D01*
X128729203Y-76782197D01*
X128957395Y-76969469D01*
X129217737Y-77108625D01*
X129500224Y-77194316D01*
X129794000Y-77223251D01*
X130087777Y-77194316D01*
X130370264Y-77108625D01*
X130630606Y-76969469D01*
X130858797Y-76782197D01*
X131046069Y-76554006D01*
X131064000Y-76520459D01*
X131081931Y-76554006D01*
X131269203Y-76782197D01*
X131497395Y-76969469D01*
X131757737Y-77108625D01*
X132040224Y-77194316D01*
X132334000Y-77223251D01*
X132627777Y-77194316D01*
X132910264Y-77108625D01*
X133170606Y-76969469D01*
X133398797Y-76782197D01*
X133586069Y-76554006D01*
X133604000Y-76520459D01*
X133621931Y-76554006D01*
X133809203Y-76782197D01*
X134037395Y-76969469D01*
X134297737Y-77108625D01*
X134580224Y-77194316D01*
X134874000Y-77223251D01*
X135167777Y-77194316D01*
X135450264Y-77108625D01*
X135710606Y-76969469D01*
X135938797Y-76782197D01*
X136126069Y-76554006D01*
X136144000Y-76520459D01*
X136161931Y-76554006D01*
X136349203Y-76782197D01*
X136577395Y-76969469D01*
X136837737Y-77108625D01*
X137120224Y-77194316D01*
X137414000Y-77223251D01*
X137707777Y-77194316D01*
X137990264Y-77108625D01*
X138250606Y-76969469D01*
X138478797Y-76782197D01*
X138666069Y-76554006D01*
X138684000Y-76520459D01*
X138701931Y-76554006D01*
X138889203Y-76782197D01*
X139117395Y-76969469D01*
X139377737Y-77108625D01*
X139660224Y-77194316D01*
X139954000Y-77223251D01*
X140247777Y-77194316D01*
X140530264Y-77108625D01*
X140790606Y-76969469D01*
X141018797Y-76782197D01*
X141206069Y-76554006D01*
X141224000Y-76520459D01*
X141241931Y-76554006D01*
X141429203Y-76782197D01*
X141657395Y-76969469D01*
X141917737Y-77108625D01*
X142200224Y-77194316D01*
X142494000Y-77223251D01*
X142787777Y-77194316D01*
X143070264Y-77108625D01*
X143330606Y-76969469D01*
X143558797Y-76782197D01*
X143746069Y-76554006D01*
X143764000Y-76520459D01*
X143781931Y-76554006D01*
X143969203Y-76782197D01*
X144197395Y-76969469D01*
X144457737Y-77108625D01*
X144740224Y-77194316D01*
X145034000Y-77223251D01*
X145327777Y-77194316D01*
X145610264Y-77108625D01*
X145870606Y-76969469D01*
X146098797Y-76782197D01*
X146286069Y-76554006D01*
X146293381Y-76540326D01*
X146321003Y-80890806D01*
X146321076Y-80894396D01*
X146520938Y-86665402D01*
X146196050Y-98186420D01*
X146197791Y-98211255D01*
X146204344Y-98235274D01*
X146215456Y-98257553D01*
X146230702Y-98277235D01*
X146249494Y-98293566D01*
X146271111Y-98305916D01*
X146294722Y-98313812D01*
X146321759Y-98316994D01*
X178868001Y-98635115D01*
X178868000Y-116803293D01*
X178738113Y-116673406D01*
X178301298Y-116381536D01*
X177815935Y-116180492D01*
X177300677Y-116078000D01*
X176775323Y-116078000D01*
X176260065Y-116180492D01*
X175774702Y-116381536D01*
X175337887Y-116673406D01*
X174966406Y-117044887D01*
X174674536Y-117481702D01*
X174473492Y-117967065D01*
X174371000Y-118482323D01*
X174371000Y-119007677D01*
X174473492Y-119522935D01*
X174674536Y-120008298D01*
X174966406Y-120445113D01*
X175337887Y-120816594D01*
X175774702Y-121108464D01*
X176260065Y-121309508D01*
X176775323Y-121412000D01*
X177300677Y-121412000D01*
X177815935Y-121309508D01*
X178301298Y-121108464D01*
X178738113Y-120816594D01*
X178868000Y-120686707D01*
X178868000Y-120990908D01*
X176560617Y-123298292D01*
X176533526Y-123320525D01*
X176511293Y-123347616D01*
X176444801Y-123428637D01*
X176378872Y-123551981D01*
X176338274Y-123685816D01*
X176324565Y-123825000D01*
X176328001Y-123859885D01*
X176328000Y-125655000D01*
X126909707Y-125655000D01*
X127039594Y-125525113D01*
X127331464Y-125088298D01*
X127532508Y-124602935D01*
X127635000Y-124087677D01*
X127635000Y-123638982D01*
X137459400Y-123638982D01*
X137459400Y-124091019D01*
X137481084Y-124311177D01*
X137566775Y-124593664D01*
X137705931Y-124854006D01*
X137893203Y-125082197D01*
X138121395Y-125269469D01*
X138381737Y-125408625D01*
X138664224Y-125494316D01*
X138958000Y-125523251D01*
X139251777Y-125494316D01*
X139534264Y-125408625D01*
X139794606Y-125269469D01*
X140022797Y-125082197D01*
X140210069Y-124854006D01*
X140228000Y-124820459D01*
X140245931Y-124854006D01*
X140433203Y-125082197D01*
X140661395Y-125269469D01*
X140921737Y-125408625D01*
X141204224Y-125494316D01*
X141498000Y-125523251D01*
X141791777Y-125494316D01*
X142074264Y-125408625D01*
X142334606Y-125269469D01*
X142562797Y-125082197D01*
X142750069Y-124854006D01*
X142768000Y-124820459D01*
X142785931Y-124854006D01*
X142973203Y-125082197D01*
X143201395Y-125269469D01*
X143461737Y-125408625D01*
X143744224Y-125494316D01*
X144038000Y-125523251D01*
X144331777Y-125494316D01*
X144614264Y-125408625D01*
X144874606Y-125269469D01*
X145102797Y-125082197D01*
X145290069Y-124854006D01*
X145308000Y-124820459D01*
X145325931Y-124854006D01*
X145513203Y-125082197D01*
X145741395Y-125269469D01*
X146001737Y-125408625D01*
X146284224Y-125494316D01*
X146578000Y-125523251D01*
X146871777Y-125494316D01*
X147154264Y-125408625D01*
X147414606Y-125269469D01*
X147642797Y-125082197D01*
X147830069Y-124854006D01*
X147848000Y-124820459D01*
X147865931Y-124854006D01*
X148053203Y-125082197D01*
X148281395Y-125269469D01*
X148541737Y-125408625D01*
X148824224Y-125494316D01*
X149118000Y-125523251D01*
X149411777Y-125494316D01*
X149694264Y-125408625D01*
X149954606Y-125269469D01*
X150182797Y-125082197D01*
X150370069Y-124854006D01*
X150388000Y-124820459D01*
X150405931Y-124854006D01*
X150593203Y-125082197D01*
X150821395Y-125269469D01*
X151081737Y-125408625D01*
X151364224Y-125494316D01*
X151658000Y-125523251D01*
X151951777Y-125494316D01*
X152234264Y-125408625D01*
X152494606Y-125269469D01*
X152722797Y-125082197D01*
X152910069Y-124854006D01*
X152928000Y-124820459D01*
X152945931Y-124854006D01*
X153133203Y-125082197D01*
X153361395Y-125269469D01*
X153621737Y-125408625D01*
X153904224Y-125494316D01*
X154198000Y-125523251D01*
X154491777Y-125494316D01*
X154774264Y-125408625D01*
X155034606Y-125269469D01*
X155262797Y-125082197D01*
X155450069Y-124854006D01*
X155468000Y-124820459D01*
X155485931Y-124854006D01*
X155673203Y-125082197D01*
X155901395Y-125269469D01*
X156161737Y-125408625D01*
X156444224Y-125494316D01*
X156738000Y-125523251D01*
X157031777Y-125494316D01*
X157314264Y-125408625D01*
X157574606Y-125269469D01*
X157802797Y-125082197D01*
X157990069Y-124854006D01*
X158129225Y-124593663D01*
X158214916Y-124311176D01*
X158236600Y-124091018D01*
X158236600Y-123638981D01*
X158232661Y-123598982D01*
X160299400Y-123598982D01*
X160299400Y-124051019D01*
X160321084Y-124271177D01*
X160406775Y-124553664D01*
X160545931Y-124814006D01*
X160733203Y-125042197D01*
X160961395Y-125229469D01*
X161221737Y-125368625D01*
X161504224Y-125454316D01*
X161798000Y-125483251D01*
X162091777Y-125454316D01*
X162374264Y-125368625D01*
X162634606Y-125229469D01*
X162862797Y-125042197D01*
X163050069Y-124814006D01*
X163068000Y-124780459D01*
X163085931Y-124814006D01*
X163273203Y-125042197D01*
X163501395Y-125229469D01*
X163761737Y-125368625D01*
X164044224Y-125454316D01*
X164338000Y-125483251D01*
X164631777Y-125454316D01*
X164914264Y-125368625D01*
X165174606Y-125229469D01*
X165402797Y-125042197D01*
X165590069Y-124814006D01*
X165608000Y-124780459D01*
X165625931Y-124814006D01*
X165813203Y-125042197D01*
X166041395Y-125229469D01*
X166301737Y-125368625D01*
X166584224Y-125454316D01*
X166878000Y-125483251D01*
X167171777Y-125454316D01*
X167454264Y-125368625D01*
X167714606Y-125229469D01*
X167942797Y-125042197D01*
X168130069Y-124814006D01*
X168148000Y-124780459D01*
X168165931Y-124814006D01*
X168353203Y-125042197D01*
X168581395Y-125229469D01*
X168841737Y-125368625D01*
X169124224Y-125454316D01*
X169418000Y-125483251D01*
X169711777Y-125454316D01*
X169994264Y-125368625D01*
X170254606Y-125229469D01*
X170482797Y-125042197D01*
X170670069Y-124814006D01*
X170688000Y-124780459D01*
X170705931Y-124814006D01*
X170893203Y-125042197D01*
X171121395Y-125229469D01*
X171381737Y-125368625D01*
X171664224Y-125454316D01*
X171958000Y-125483251D01*
X172251777Y-125454316D01*
X172534264Y-125368625D01*
X172794606Y-125229469D01*
X173022797Y-125042197D01*
X173210069Y-124814006D01*
X173228000Y-124780459D01*
X173245931Y-124814006D01*
X173433203Y-125042197D01*
X173661395Y-125229469D01*
X173921737Y-125368625D01*
X174204224Y-125454316D01*
X174498000Y-125483251D01*
X174791777Y-125454316D01*
X175074264Y-125368625D01*
X175334606Y-125229469D01*
X175562797Y-125042197D01*
X175750069Y-124814006D01*
X175889225Y-124553663D01*
X175974916Y-124271176D01*
X175996600Y-124051018D01*
X175996600Y-123598981D01*
X175974916Y-123378823D01*
X175889225Y-123096336D01*
X175750069Y-122835994D01*
X175562797Y-122607803D01*
X175334605Y-122420531D01*
X175074263Y-122281375D01*
X174791776Y-122195684D01*
X174498000Y-122166749D01*
X174204223Y-122195684D01*
X173921736Y-122281375D01*
X173661394Y-122420531D01*
X173433203Y-122607803D01*
X173245931Y-122835995D01*
X173228000Y-122869541D01*
X173210069Y-122835994D01*
X173022797Y-122607803D01*
X172794605Y-122420531D01*
X172534263Y-122281375D01*
X172251776Y-122195684D01*
X171958000Y-122166749D01*
X171664223Y-122195684D01*
X171381736Y-122281375D01*
X171121394Y-122420531D01*
X170893203Y-122607803D01*
X170705931Y-122835995D01*
X170688000Y-122869541D01*
X170670069Y-122835994D01*
X170482797Y-122607803D01*
X170254605Y-122420531D01*
X169994263Y-122281375D01*
X169711776Y-122195684D01*
X169418000Y-122166749D01*
X169124223Y-122195684D01*
X168841736Y-122281375D01*
X168581394Y-122420531D01*
X168353203Y-122607803D01*
X168165931Y-122835995D01*
X168148000Y-122869541D01*
X168130069Y-122835994D01*
X167942797Y-122607803D01*
X167714605Y-122420531D01*
X167454263Y-122281375D01*
X167171776Y-122195684D01*
X166878000Y-122166749D01*
X166584223Y-122195684D01*
X166301736Y-122281375D01*
X166041394Y-122420531D01*
X165813203Y-122607803D01*
X165625931Y-122835995D01*
X165608000Y-122869541D01*
X165590069Y-122835994D01*
X165402797Y-122607803D01*
X165174605Y-122420531D01*
X164914263Y-122281375D01*
X164631776Y-122195684D01*
X164338000Y-122166749D01*
X164044223Y-122195684D01*
X163761736Y-122281375D01*
X163501394Y-122420531D01*
X163273203Y-122607803D01*
X163085931Y-122835995D01*
X163068000Y-122869541D01*
X163050069Y-122835994D01*
X162862797Y-122607803D01*
X162634605Y-122420531D01*
X162374263Y-122281375D01*
X162091776Y-122195684D01*
X161798000Y-122166749D01*
X161504223Y-122195684D01*
X161221736Y-122281375D01*
X160961394Y-122420531D01*
X160733203Y-122607803D01*
X160545931Y-122835995D01*
X160406775Y-123096337D01*
X160321084Y-123378824D01*
X160299400Y-123598982D01*
X158232661Y-123598982D01*
X158214916Y-123418823D01*
X158129225Y-123136336D01*
X157990069Y-122875994D01*
X157802797Y-122647803D01*
X157574605Y-122460531D01*
X157314263Y-122321375D01*
X157031776Y-122235684D01*
X156738000Y-122206749D01*
X156444223Y-122235684D01*
X156161736Y-122321375D01*
X155901394Y-122460531D01*
X155673203Y-122647803D01*
X155485931Y-122875995D01*
X155468000Y-122909541D01*
X155450069Y-122875994D01*
X155262797Y-122647803D01*
X155034605Y-122460531D01*
X154774263Y-122321375D01*
X154491776Y-122235684D01*
X154198000Y-122206749D01*
X153904223Y-122235684D01*
X153621736Y-122321375D01*
X153361394Y-122460531D01*
X153133203Y-122647803D01*
X152945931Y-122875995D01*
X152928000Y-122909541D01*
X152910069Y-122875994D01*
X152722797Y-122647803D01*
X152494605Y-122460531D01*
X152234263Y-122321375D01*
X151951776Y-122235684D01*
X151658000Y-122206749D01*
X151364223Y-122235684D01*
X151081736Y-122321375D01*
X150821394Y-122460531D01*
X150593203Y-122647803D01*
X150405931Y-122875995D01*
X150388000Y-122909541D01*
X150370069Y-122875994D01*
X150182797Y-122647803D01*
X149954605Y-122460531D01*
X149694263Y-122321375D01*
X149411776Y-122235684D01*
X149118000Y-122206749D01*
X148824223Y-122235684D01*
X148541736Y-122321375D01*
X148281394Y-122460531D01*
X148053203Y-122647803D01*
X147865931Y-122875995D01*
X147848000Y-122909541D01*
X147830069Y-122875994D01*
X147642797Y-122647803D01*
X147414605Y-122460531D01*
X147154263Y-122321375D01*
X146871776Y-122235684D01*
X146578000Y-122206749D01*
X146284223Y-122235684D01*
X146001736Y-122321375D01*
X145741394Y-122460531D01*
X145513203Y-122647803D01*
X145325931Y-122875995D01*
X145308000Y-122909541D01*
X145290069Y-122875994D01*
X145102797Y-122647803D01*
X144874605Y-122460531D01*
X144614263Y-122321375D01*
X144331776Y-122235684D01*
X144038000Y-122206749D01*
X143744223Y-122235684D01*
X143461736Y-122321375D01*
X143201394Y-122460531D01*
X142973203Y-122647803D01*
X142785931Y-122875995D01*
X142768000Y-122909541D01*
X142750069Y-122875994D01*
X142562797Y-122647803D01*
X142334605Y-122460531D01*
X142074263Y-122321375D01*
X141791776Y-122235684D01*
X141498000Y-122206749D01*
X141204223Y-122235684D01*
X140921736Y-122321375D01*
X140661394Y-122460531D01*
X140433203Y-122647803D01*
X140245931Y-122875995D01*
X140228000Y-122909541D01*
X140210069Y-122875994D01*
X140022797Y-122647803D01*
X139794605Y-122460531D01*
X139534263Y-122321375D01*
X139251776Y-122235684D01*
X138958000Y-122206749D01*
X138664223Y-122235684D01*
X138381736Y-122321375D01*
X138121394Y-122460531D01*
X137893203Y-122647803D01*
X137705931Y-122875995D01*
X137566775Y-123136337D01*
X137481084Y-123418824D01*
X137459400Y-123638982D01*
X127635000Y-123638982D01*
X127635000Y-123562323D01*
X127532508Y-123047065D01*
X127331464Y-122561702D01*
X127039594Y-122124887D01*
X126668113Y-121753406D01*
X126231298Y-121461536D01*
X125745935Y-121260492D01*
X125230677Y-121158000D01*
X124705323Y-121158000D01*
X124190065Y-121260492D01*
X123704702Y-121461536D01*
X123267887Y-121753406D01*
X122896406Y-122124887D01*
X122604536Y-122561702D01*
X122403492Y-123047065D01*
X122301000Y-123562323D01*
X122301000Y-124087677D01*
X122403492Y-124602935D01*
X122604536Y-125088298D01*
X122896406Y-125525113D01*
X123026293Y-125655000D01*
X111708000Y-125655000D01*
X111708000Y-118473665D01*
X127863000Y-118473665D01*
X127863000Y-118756335D01*
X127918147Y-119033574D01*
X128026320Y-119294727D01*
X128183363Y-119529759D01*
X128268604Y-119615000D01*
X128183363Y-119700241D01*
X128026320Y-119935273D01*
X127918147Y-120196426D01*
X127863000Y-120473665D01*
X127863000Y-120756335D01*
X127918147Y-121033574D01*
X128026320Y-121294727D01*
X128183363Y-121529759D01*
X128383241Y-121729637D01*
X128618273Y-121886680D01*
X128879426Y-121994853D01*
X129156665Y-122050000D01*
X129439335Y-122050000D01*
X129716574Y-121994853D01*
X129977727Y-121886680D01*
X130212759Y-121729637D01*
X130412637Y-121529759D01*
X130569680Y-121294727D01*
X130677853Y-121033574D01*
X130733000Y-120756335D01*
X130733000Y-120473665D01*
X130677853Y-120196426D01*
X130569680Y-119935273D01*
X130412637Y-119700241D01*
X130386061Y-119673665D01*
X140103000Y-119673665D01*
X140103000Y-119956335D01*
X140158147Y-120233574D01*
X140266320Y-120494727D01*
X140423363Y-120729759D01*
X140623241Y-120929637D01*
X140858273Y-121086680D01*
X141119426Y-121194853D01*
X141396665Y-121250000D01*
X141679335Y-121250000D01*
X141956574Y-121194853D01*
X142217727Y-121086680D01*
X142452759Y-120929637D01*
X142652637Y-120729759D01*
X142809680Y-120494727D01*
X142917853Y-120233574D01*
X142973000Y-119956335D01*
X142973000Y-119673665D01*
X150263000Y-119673665D01*
X150263000Y-119956335D01*
X150318147Y-120233574D01*
X150426320Y-120494727D01*
X150583363Y-120729759D01*
X150783241Y-120929637D01*
X151018273Y-121086680D01*
X151279426Y-121194853D01*
X151556665Y-121250000D01*
X151839335Y-121250000D01*
X152116574Y-121194853D01*
X152377727Y-121086680D01*
X152612759Y-120929637D01*
X152812637Y-120729759D01*
X152969680Y-120494727D01*
X153077853Y-120233574D01*
X153133000Y-119956335D01*
X153133000Y-119673665D01*
X153077853Y-119396426D01*
X152969680Y-119135273D01*
X152812637Y-118900241D01*
X152612759Y-118700363D01*
X152377727Y-118543320D01*
X152116574Y-118435147D01*
X151839335Y-118380000D01*
X151556665Y-118380000D01*
X151279426Y-118435147D01*
X151018273Y-118543320D01*
X150783241Y-118700363D01*
X150583363Y-118900241D01*
X150426320Y-119135273D01*
X150318147Y-119396426D01*
X150263000Y-119673665D01*
X142973000Y-119673665D01*
X142917853Y-119396426D01*
X142809680Y-119135273D01*
X142652637Y-118900241D01*
X142452759Y-118700363D01*
X142217727Y-118543320D01*
X141956574Y-118435147D01*
X141679335Y-118380000D01*
X141396665Y-118380000D01*
X141119426Y-118435147D01*
X140858273Y-118543320D01*
X140623241Y-118700363D01*
X140423363Y-118900241D01*
X140266320Y-119135273D01*
X140158147Y-119396426D01*
X140103000Y-119673665D01*
X130386061Y-119673665D01*
X130327396Y-119615000D01*
X130412637Y-119529759D01*
X130569680Y-119294727D01*
X130677853Y-119033574D01*
X130733000Y-118756335D01*
X130733000Y-118473665D01*
X130677853Y-118196426D01*
X130569680Y-117935273D01*
X130412637Y-117700241D01*
X130212759Y-117500363D01*
X129977727Y-117343320D01*
X129809565Y-117273665D01*
X134663000Y-117273665D01*
X134663000Y-117556335D01*
X134718147Y-117833574D01*
X134826320Y-118094727D01*
X134983363Y-118329759D01*
X135183241Y-118529637D01*
X135418273Y-118686680D01*
X135679426Y-118794853D01*
X135956665Y-118850000D01*
X136239335Y-118850000D01*
X136516574Y-118794853D01*
X136777727Y-118686680D01*
X137012759Y-118529637D01*
X137212637Y-118329759D01*
X137369680Y-118094727D01*
X137477853Y-117833574D01*
X137533000Y-117556335D01*
X137533000Y-117273665D01*
X137477853Y-116996426D01*
X137369680Y-116735273D01*
X137212637Y-116500241D01*
X137012759Y-116300363D01*
X136777727Y-116143320D01*
X136516574Y-116035147D01*
X136239335Y-115980000D01*
X135956665Y-115980000D01*
X135679426Y-116035147D01*
X135418273Y-116143320D01*
X135183241Y-116300363D01*
X134983363Y-116500241D01*
X134826320Y-116735273D01*
X134718147Y-116996426D01*
X134663000Y-117273665D01*
X129809565Y-117273665D01*
X129716574Y-117235147D01*
X129439335Y-117180000D01*
X129156665Y-117180000D01*
X128879426Y-117235147D01*
X128618273Y-117343320D01*
X128383241Y-117500363D01*
X128183363Y-117700241D01*
X128026320Y-117935273D01*
X127918147Y-118196426D01*
X127863000Y-118473665D01*
X111708000Y-118473665D01*
X111708000Y-114603967D01*
X122713000Y-114603967D01*
X122713000Y-114926033D01*
X122775832Y-115241912D01*
X122899082Y-115539463D01*
X123078013Y-115807252D01*
X123305748Y-116034987D01*
X123573537Y-116213918D01*
X123871088Y-116337168D01*
X124186967Y-116400000D01*
X124509033Y-116400000D01*
X124824912Y-116337168D01*
X125122463Y-116213918D01*
X125390252Y-116034987D01*
X125617987Y-115807252D01*
X125796918Y-115539463D01*
X125920168Y-115241912D01*
X125983000Y-114926033D01*
X125983000Y-114923665D01*
X140813000Y-114923665D01*
X140813000Y-115206335D01*
X140868147Y-115483574D01*
X140976320Y-115744727D01*
X141133363Y-115979759D01*
X141333241Y-116179637D01*
X141568273Y-116336680D01*
X141829426Y-116444853D01*
X142106665Y-116500000D01*
X142389335Y-116500000D01*
X142666574Y-116444853D01*
X142927727Y-116336680D01*
X143162759Y-116179637D01*
X143362637Y-115979759D01*
X143519680Y-115744727D01*
X143627853Y-115483574D01*
X143683000Y-115206335D01*
X143683000Y-114923665D01*
X145813000Y-114923665D01*
X145813000Y-115206335D01*
X145868147Y-115483574D01*
X145976320Y-115744727D01*
X146133363Y-115979759D01*
X146333241Y-116179637D01*
X146568273Y-116336680D01*
X146829426Y-116444853D01*
X147106665Y-116500000D01*
X147389335Y-116500000D01*
X147521728Y-116473665D01*
X156663000Y-116473665D01*
X156663000Y-116756335D01*
X156718147Y-117033574D01*
X156826320Y-117294727D01*
X156983363Y-117529759D01*
X157183241Y-117729637D01*
X157418273Y-117886680D01*
X157679426Y-117994853D01*
X157956665Y-118050000D01*
X158239335Y-118050000D01*
X158516574Y-117994853D01*
X158777727Y-117886680D01*
X159012759Y-117729637D01*
X159212637Y-117529759D01*
X159369680Y-117294727D01*
X159477853Y-117033574D01*
X159533000Y-116756335D01*
X159533000Y-116473665D01*
X159525044Y-116433665D01*
X160963000Y-116433665D01*
X160963000Y-116716335D01*
X161018147Y-116993574D01*
X161126320Y-117254727D01*
X161283363Y-117489759D01*
X161483241Y-117689637D01*
X161718273Y-117846680D01*
X161979426Y-117954853D01*
X162256665Y-118010000D01*
X162539335Y-118010000D01*
X162816574Y-117954853D01*
X163077727Y-117846680D01*
X163312759Y-117689637D01*
X163512637Y-117489759D01*
X163669680Y-117254727D01*
X163777853Y-116993574D01*
X163833000Y-116716335D01*
X163833000Y-116433665D01*
X163777853Y-116156426D01*
X163713231Y-116000413D01*
X167442192Y-116000413D01*
X167537956Y-116264814D01*
X167827571Y-116405704D01*
X168139108Y-116487384D01*
X168460595Y-116506718D01*
X168779675Y-116462961D01*
X169084088Y-116357795D01*
X169258044Y-116264814D01*
X169353808Y-116000413D01*
X168398000Y-115044605D01*
X167442192Y-116000413D01*
X163713231Y-116000413D01*
X163669680Y-115895273D01*
X163512637Y-115660241D01*
X163312759Y-115460363D01*
X163077727Y-115303320D01*
X162816574Y-115195147D01*
X162539335Y-115140000D01*
X162256665Y-115140000D01*
X161979426Y-115195147D01*
X161718273Y-115303320D01*
X161483241Y-115460363D01*
X161283363Y-115660241D01*
X161126320Y-115895273D01*
X161018147Y-116156426D01*
X160963000Y-116433665D01*
X159525044Y-116433665D01*
X159477853Y-116196426D01*
X159369680Y-115935273D01*
X159212637Y-115700241D01*
X159012759Y-115500363D01*
X158777727Y-115343320D01*
X158516574Y-115235147D01*
X158239335Y-115180000D01*
X157956665Y-115180000D01*
X157679426Y-115235147D01*
X157418273Y-115343320D01*
X157183241Y-115500363D01*
X156983363Y-115700241D01*
X156826320Y-115935273D01*
X156718147Y-116196426D01*
X156663000Y-116473665D01*
X147521728Y-116473665D01*
X147666574Y-116444853D01*
X147927727Y-116336680D01*
X148162759Y-116179637D01*
X148362637Y-115979759D01*
X148519680Y-115744727D01*
X148627853Y-115483574D01*
X148683000Y-115206335D01*
X148683000Y-114927595D01*
X166756282Y-114927595D01*
X166800039Y-115246675D01*
X166905205Y-115551088D01*
X166998186Y-115725044D01*
X167262587Y-115820808D01*
X168218395Y-114865000D01*
X168577605Y-114865000D01*
X169533413Y-115820808D01*
X169797814Y-115725044D01*
X169938704Y-115435429D01*
X170020384Y-115123892D01*
X170039718Y-114802405D01*
X169995961Y-114483325D01*
X169890795Y-114178912D01*
X169797814Y-114004956D01*
X169533413Y-113909192D01*
X168577605Y-114865000D01*
X168218395Y-114865000D01*
X167262587Y-113909192D01*
X166998186Y-114004956D01*
X166857296Y-114294571D01*
X166775616Y-114606108D01*
X166756282Y-114927595D01*
X148683000Y-114927595D01*
X148683000Y-114923665D01*
X148627853Y-114646426D01*
X148519680Y-114385273D01*
X148362637Y-114150241D01*
X148162759Y-113950363D01*
X147927727Y-113793320D01*
X147773862Y-113729587D01*
X167442192Y-113729587D01*
X168398000Y-114685395D01*
X169353808Y-113729587D01*
X169258044Y-113465186D01*
X168968429Y-113324296D01*
X168656892Y-113242616D01*
X168335405Y-113223282D01*
X168016325Y-113267039D01*
X167711912Y-113372205D01*
X167537956Y-113465186D01*
X167442192Y-113729587D01*
X147773862Y-113729587D01*
X147666574Y-113685147D01*
X147389335Y-113630000D01*
X147106665Y-113630000D01*
X146829426Y-113685147D01*
X146568273Y-113793320D01*
X146333241Y-113950363D01*
X146133363Y-114150241D01*
X145976320Y-114385273D01*
X145868147Y-114646426D01*
X145813000Y-114923665D01*
X143683000Y-114923665D01*
X143627853Y-114646426D01*
X143519680Y-114385273D01*
X143362637Y-114150241D01*
X143162759Y-113950363D01*
X142927727Y-113793320D01*
X142666574Y-113685147D01*
X142389335Y-113630000D01*
X142106665Y-113630000D01*
X141829426Y-113685147D01*
X141568273Y-113793320D01*
X141333241Y-113950363D01*
X141133363Y-114150241D01*
X140976320Y-114385273D01*
X140868147Y-114646426D01*
X140813000Y-114923665D01*
X125983000Y-114923665D01*
X125983000Y-114603967D01*
X125920168Y-114288088D01*
X125796918Y-113990537D01*
X125617987Y-113722748D01*
X125390252Y-113495013D01*
X125122463Y-113316082D01*
X124824912Y-113192832D01*
X124509033Y-113130000D01*
X124186967Y-113130000D01*
X123871088Y-113192832D01*
X123573537Y-113316082D01*
X123305748Y-113495013D01*
X123078013Y-113722748D01*
X122899082Y-113990537D01*
X122775832Y-114288088D01*
X122713000Y-114603967D01*
X111708000Y-114603967D01*
X111708000Y-112273665D01*
X134663000Y-112273665D01*
X134663000Y-112556335D01*
X134718147Y-112833574D01*
X134826320Y-113094727D01*
X134983363Y-113329759D01*
X135183241Y-113529637D01*
X135418273Y-113686680D01*
X135679426Y-113794853D01*
X135956665Y-113850000D01*
X136239335Y-113850000D01*
X136516574Y-113794853D01*
X136777727Y-113686680D01*
X137012759Y-113529637D01*
X137212637Y-113329759D01*
X137369680Y-113094727D01*
X137477853Y-112833574D01*
X137533000Y-112556335D01*
X137533000Y-112273665D01*
X137477853Y-111996426D01*
X137369680Y-111735273D01*
X137315354Y-111653967D01*
X151713000Y-111653967D01*
X151713000Y-111976033D01*
X151775832Y-112291912D01*
X151899082Y-112589463D01*
X152078013Y-112857252D01*
X152305748Y-113084987D01*
X152573537Y-113263918D01*
X152871088Y-113387168D01*
X153186967Y-113450000D01*
X153509033Y-113450000D01*
X153824912Y-113387168D01*
X154122463Y-113263918D01*
X154390252Y-113084987D01*
X154617987Y-112857252D01*
X154796918Y-112589463D01*
X154920168Y-112291912D01*
X154983000Y-111976033D01*
X154983000Y-111653967D01*
X154920168Y-111338088D01*
X154796918Y-111040537D01*
X154617987Y-110772748D01*
X154390252Y-110545013D01*
X154122463Y-110366082D01*
X153824912Y-110242832D01*
X153509033Y-110180000D01*
X153186967Y-110180000D01*
X152871088Y-110242832D01*
X152573537Y-110366082D01*
X152305748Y-110545013D01*
X152078013Y-110772748D01*
X151899082Y-111040537D01*
X151775832Y-111338088D01*
X151713000Y-111653967D01*
X137315354Y-111653967D01*
X137212637Y-111500241D01*
X137012759Y-111300363D01*
X136777727Y-111143320D01*
X136516574Y-111035147D01*
X136239335Y-110980000D01*
X135956665Y-110980000D01*
X135679426Y-111035147D01*
X135418273Y-111143320D01*
X135183241Y-111300363D01*
X134983363Y-111500241D01*
X134826320Y-111735273D01*
X134718147Y-111996426D01*
X134663000Y-112273665D01*
X111708000Y-112273665D01*
X111708000Y-108523665D01*
X118203000Y-108523665D01*
X118203000Y-108806335D01*
X118258147Y-109083574D01*
X118366320Y-109344727D01*
X118523363Y-109579759D01*
X118723241Y-109779637D01*
X118958273Y-109936680D01*
X119219426Y-110044853D01*
X119496665Y-110100000D01*
X119779335Y-110100000D01*
X120056574Y-110044853D01*
X120317727Y-109936680D01*
X120552759Y-109779637D01*
X120752637Y-109579759D01*
X120909680Y-109344727D01*
X121017853Y-109083574D01*
X121073000Y-108806335D01*
X121073000Y-108523665D01*
X128363000Y-108523665D01*
X128363000Y-108806335D01*
X128418147Y-109083574D01*
X128526320Y-109344727D01*
X128683363Y-109579759D01*
X128883241Y-109779637D01*
X129118273Y-109936680D01*
X129379426Y-110044853D01*
X129656665Y-110100000D01*
X129939335Y-110100000D01*
X130216574Y-110044853D01*
X130477727Y-109936680D01*
X130712759Y-109779637D01*
X130912637Y-109579759D01*
X130943186Y-109534039D01*
X140656096Y-109534039D01*
X140696754Y-109668087D01*
X140816963Y-109922420D01*
X140984481Y-110148414D01*
X141192869Y-110337385D01*
X141434119Y-110482070D01*
X141698960Y-110576909D01*
X141921000Y-110455624D01*
X141921000Y-109312000D01*
X142175000Y-109312000D01*
X142175000Y-110455624D01*
X142397040Y-110576909D01*
X142661881Y-110482070D01*
X142903131Y-110337385D01*
X143111519Y-110148414D01*
X143279037Y-109922420D01*
X143399246Y-109668087D01*
X143439904Y-109534039D01*
X143317915Y-109312000D01*
X142175000Y-109312000D01*
X141921000Y-109312000D01*
X140778085Y-109312000D01*
X140656096Y-109534039D01*
X130943186Y-109534039D01*
X131069680Y-109344727D01*
X131177853Y-109083574D01*
X131233000Y-108806335D01*
X131233000Y-108523665D01*
X131177853Y-108246426D01*
X131069680Y-107985273D01*
X130912637Y-107750241D01*
X130712759Y-107550363D01*
X130477727Y-107393320D01*
X130216574Y-107285147D01*
X129939335Y-107230000D01*
X129656665Y-107230000D01*
X129379426Y-107285147D01*
X129118273Y-107393320D01*
X128883241Y-107550363D01*
X128683363Y-107750241D01*
X128526320Y-107985273D01*
X128418147Y-108246426D01*
X128363000Y-108523665D01*
X121073000Y-108523665D01*
X121017853Y-108246426D01*
X120909680Y-107985273D01*
X120752637Y-107750241D01*
X120552759Y-107550363D01*
X120317727Y-107393320D01*
X120056574Y-107285147D01*
X119779335Y-107230000D01*
X119496665Y-107230000D01*
X119219426Y-107285147D01*
X118958273Y-107393320D01*
X118723241Y-107550363D01*
X118523363Y-107750241D01*
X118366320Y-107985273D01*
X118258147Y-108246426D01*
X118203000Y-108523665D01*
X111708000Y-108523665D01*
X111708000Y-105283665D01*
X134563000Y-105283665D01*
X134563000Y-105566335D01*
X134618147Y-105843574D01*
X134726320Y-106104727D01*
X134883363Y-106339759D01*
X135083241Y-106539637D01*
X135318273Y-106696680D01*
X135579426Y-106804853D01*
X135856665Y-106860000D01*
X136139335Y-106860000D01*
X136416574Y-106804853D01*
X136677727Y-106696680D01*
X136912759Y-106539637D01*
X137112637Y-106339759D01*
X137269680Y-106104727D01*
X137377853Y-105843574D01*
X137433000Y-105566335D01*
X137433000Y-105283665D01*
X137377853Y-105006426D01*
X137269680Y-104745273D01*
X137112637Y-104510241D01*
X136912759Y-104310363D01*
X136677727Y-104153320D01*
X136416574Y-104045147D01*
X136139335Y-103990000D01*
X135856665Y-103990000D01*
X135579426Y-104045147D01*
X135318273Y-104153320D01*
X135083241Y-104310363D01*
X134883363Y-104510241D01*
X134726320Y-104745273D01*
X134618147Y-105006426D01*
X134563000Y-105283665D01*
X111708000Y-105283665D01*
X111708000Y-102514039D01*
X116996096Y-102514039D01*
X117036754Y-102648087D01*
X117156963Y-102902420D01*
X117324481Y-103128414D01*
X117532869Y-103317385D01*
X117774119Y-103462070D01*
X118038960Y-103556909D01*
X118261000Y-103435624D01*
X118261000Y-102292000D01*
X118515000Y-102292000D01*
X118515000Y-103435624D01*
X118737040Y-103556909D01*
X119001881Y-103462070D01*
X119243131Y-103317385D01*
X119451519Y-103128414D01*
X119619037Y-102902420D01*
X119739246Y-102648087D01*
X119779904Y-102514039D01*
X119657915Y-102292000D01*
X118515000Y-102292000D01*
X118261000Y-102292000D01*
X117118085Y-102292000D01*
X116996096Y-102514039D01*
X111708000Y-102514039D01*
X111708000Y-101815961D01*
X116996096Y-101815961D01*
X117118085Y-102038000D01*
X118261000Y-102038000D01*
X118261000Y-100894376D01*
X118515000Y-100894376D01*
X118515000Y-102038000D01*
X119657915Y-102038000D01*
X119665790Y-102023665D01*
X127113000Y-102023665D01*
X127113000Y-102306335D01*
X127168147Y-102583574D01*
X127276320Y-102844727D01*
X127433363Y-103079759D01*
X127633241Y-103279637D01*
X127868273Y-103436680D01*
X128129426Y-103544853D01*
X128406665Y-103600000D01*
X128689335Y-103600000D01*
X128966574Y-103544853D01*
X129227727Y-103436680D01*
X129462759Y-103279637D01*
X129662637Y-103079759D01*
X129819680Y-102844727D01*
X129927853Y-102583574D01*
X129983000Y-102306335D01*
X129983000Y-102023665D01*
X129927853Y-101746426D01*
X129819680Y-101485273D01*
X129662637Y-101250241D01*
X129462759Y-101050363D01*
X129227727Y-100893320D01*
X128966574Y-100785147D01*
X128865290Y-100765000D01*
X140609928Y-100765000D01*
X140609928Y-102365000D01*
X140622188Y-102489482D01*
X140658498Y-102609180D01*
X140717463Y-102719494D01*
X140796815Y-102816185D01*
X140893506Y-102895537D01*
X141003820Y-102954502D01*
X141123518Y-102990812D01*
X141131961Y-102991643D01*
X140933363Y-103190241D01*
X140776320Y-103425273D01*
X140668147Y-103686426D01*
X140613000Y-103963665D01*
X140613000Y-104246335D01*
X140668147Y-104523574D01*
X140776320Y-104784727D01*
X140933363Y-105019759D01*
X141133241Y-105219637D01*
X141365759Y-105375000D01*
X141133241Y-105530363D01*
X140933363Y-105730241D01*
X140776320Y-105965273D01*
X140668147Y-106226426D01*
X140613000Y-106503665D01*
X140613000Y-106786335D01*
X140668147Y-107063574D01*
X140776320Y-107324727D01*
X140933363Y-107559759D01*
X141133241Y-107759637D01*
X141368273Y-107916680D01*
X141378865Y-107921067D01*
X141192869Y-108032615D01*
X140984481Y-108221586D01*
X140816963Y-108447580D01*
X140696754Y-108701913D01*
X140656096Y-108835961D01*
X140778085Y-109058000D01*
X141921000Y-109058000D01*
X141921000Y-109038000D01*
X142175000Y-109038000D01*
X142175000Y-109058000D01*
X143317915Y-109058000D01*
X143439904Y-108835961D01*
X143399246Y-108701913D01*
X143279037Y-108447580D01*
X143111519Y-108221586D01*
X142903131Y-108032615D01*
X142717135Y-107921067D01*
X142727727Y-107916680D01*
X142962759Y-107759637D01*
X143162637Y-107559759D01*
X143319680Y-107324727D01*
X143427853Y-107063574D01*
X143483000Y-106786335D01*
X143483000Y-106503665D01*
X143427853Y-106226426D01*
X143319680Y-105965273D01*
X143162637Y-105730241D01*
X142962759Y-105530363D01*
X142730241Y-105375000D01*
X142962759Y-105219637D01*
X143162637Y-105019759D01*
X143319680Y-104784727D01*
X143427853Y-104523574D01*
X143483000Y-104246335D01*
X143483000Y-103963665D01*
X143427853Y-103686426D01*
X143319680Y-103425273D01*
X143162637Y-103190241D01*
X142964039Y-102991643D01*
X142972482Y-102990812D01*
X143092180Y-102954502D01*
X143202494Y-102895537D01*
X143299185Y-102816185D01*
X143378537Y-102719494D01*
X143437502Y-102609180D01*
X143473812Y-102489482D01*
X143486072Y-102365000D01*
X143486072Y-101423665D01*
X148233000Y-101423665D01*
X148233000Y-101706335D01*
X148288147Y-101983574D01*
X148396320Y-102244727D01*
X148553363Y-102479759D01*
X148753241Y-102679637D01*
X148985759Y-102835000D01*
X148753241Y-102990363D01*
X148553363Y-103190241D01*
X148396320Y-103425273D01*
X148288147Y-103686426D01*
X148233000Y-103963665D01*
X148233000Y-104246335D01*
X148288147Y-104523574D01*
X148396320Y-104784727D01*
X148553363Y-105019759D01*
X148753241Y-105219637D01*
X148985759Y-105375000D01*
X148753241Y-105530363D01*
X148553363Y-105730241D01*
X148396320Y-105965273D01*
X148288147Y-106226426D01*
X148233000Y-106503665D01*
X148233000Y-106786335D01*
X148288147Y-107063574D01*
X148396320Y-107324727D01*
X148553363Y-107559759D01*
X148753241Y-107759637D01*
X148985759Y-107915000D01*
X148753241Y-108070363D01*
X148553363Y-108270241D01*
X148396320Y-108505273D01*
X148288147Y-108766426D01*
X148233000Y-109043665D01*
X148233000Y-109326335D01*
X148288147Y-109603574D01*
X148396320Y-109864727D01*
X148553363Y-110099759D01*
X148753241Y-110299637D01*
X148988273Y-110456680D01*
X149249426Y-110564853D01*
X149526665Y-110620000D01*
X149809335Y-110620000D01*
X150086574Y-110564853D01*
X150347727Y-110456680D01*
X150582759Y-110299637D01*
X150782637Y-110099759D01*
X150939680Y-109864727D01*
X151047853Y-109603574D01*
X151103000Y-109326335D01*
X151103000Y-109043665D01*
X151047853Y-108766426D01*
X150939680Y-108505273D01*
X150782637Y-108270241D01*
X150582759Y-108070363D01*
X150350241Y-107915000D01*
X150582759Y-107759637D01*
X150782637Y-107559759D01*
X150939680Y-107324727D01*
X151047853Y-107063574D01*
X151103000Y-106786335D01*
X151103000Y-106503665D01*
X151065207Y-106313665D01*
X156663000Y-106313665D01*
X156663000Y-106596335D01*
X156718147Y-106873574D01*
X156826320Y-107134727D01*
X156983363Y-107369759D01*
X157183241Y-107569637D01*
X157418273Y-107726680D01*
X157679426Y-107834853D01*
X157956665Y-107890000D01*
X158239335Y-107890000D01*
X158516574Y-107834853D01*
X158777727Y-107726680D01*
X159012759Y-107569637D01*
X159212637Y-107369759D01*
X159369680Y-107134727D01*
X159477853Y-106873574D01*
X159533000Y-106596335D01*
X159533000Y-106313665D01*
X159525044Y-106273665D01*
X160963000Y-106273665D01*
X160963000Y-106556335D01*
X161018147Y-106833574D01*
X161126320Y-107094727D01*
X161283363Y-107329759D01*
X161483241Y-107529637D01*
X161718273Y-107686680D01*
X161979426Y-107794853D01*
X162256665Y-107850000D01*
X162539335Y-107850000D01*
X162816574Y-107794853D01*
X163077727Y-107686680D01*
X163312759Y-107529637D01*
X163512637Y-107329759D01*
X163669680Y-107094727D01*
X163777853Y-106833574D01*
X163813579Y-106653967D01*
X166163000Y-106653967D01*
X166163000Y-106976033D01*
X166225832Y-107291912D01*
X166349082Y-107589463D01*
X166528013Y-107857252D01*
X166755748Y-108084987D01*
X167023537Y-108263918D01*
X167321088Y-108387168D01*
X167636967Y-108450000D01*
X167959033Y-108450000D01*
X168274912Y-108387168D01*
X168572463Y-108263918D01*
X168840252Y-108084987D01*
X169067987Y-107857252D01*
X169246918Y-107589463D01*
X169370168Y-107291912D01*
X169433000Y-106976033D01*
X169433000Y-106653967D01*
X169370168Y-106338088D01*
X169246918Y-106040537D01*
X169067987Y-105772748D01*
X168840252Y-105545013D01*
X168572463Y-105366082D01*
X168274912Y-105242832D01*
X167959033Y-105180000D01*
X167636967Y-105180000D01*
X167321088Y-105242832D01*
X167023537Y-105366082D01*
X166755748Y-105545013D01*
X166528013Y-105772748D01*
X166349082Y-106040537D01*
X166225832Y-106338088D01*
X166163000Y-106653967D01*
X163813579Y-106653967D01*
X163833000Y-106556335D01*
X163833000Y-106273665D01*
X163777853Y-105996426D01*
X163669680Y-105735273D01*
X163512637Y-105500241D01*
X163312759Y-105300363D01*
X163077727Y-105143320D01*
X162816574Y-105035147D01*
X162539335Y-104980000D01*
X162256665Y-104980000D01*
X161979426Y-105035147D01*
X161718273Y-105143320D01*
X161483241Y-105300363D01*
X161283363Y-105500241D01*
X161126320Y-105735273D01*
X161018147Y-105996426D01*
X160963000Y-106273665D01*
X159525044Y-106273665D01*
X159477853Y-106036426D01*
X159369680Y-105775273D01*
X159212637Y-105540241D01*
X159012759Y-105340363D01*
X158777727Y-105183320D01*
X158516574Y-105075147D01*
X158239335Y-105020000D01*
X157956665Y-105020000D01*
X157679426Y-105075147D01*
X157418273Y-105183320D01*
X157183241Y-105340363D01*
X156983363Y-105540241D01*
X156826320Y-105775273D01*
X156718147Y-106036426D01*
X156663000Y-106313665D01*
X151065207Y-106313665D01*
X151047853Y-106226426D01*
X150939680Y-105965273D01*
X150782637Y-105730241D01*
X150582759Y-105530363D01*
X150350241Y-105375000D01*
X150582759Y-105219637D01*
X150782637Y-105019759D01*
X150939680Y-104784727D01*
X151047853Y-104523574D01*
X151103000Y-104246335D01*
X151103000Y-103963665D01*
X151047853Y-103686426D01*
X150939680Y-103425273D01*
X150782637Y-103190241D01*
X150582759Y-102990363D01*
X150350241Y-102835000D01*
X150582759Y-102679637D01*
X150782637Y-102479759D01*
X150939680Y-102244727D01*
X151047853Y-101983574D01*
X151103000Y-101706335D01*
X151103000Y-101423665D01*
X151047853Y-101146426D01*
X150939680Y-100885273D01*
X150782637Y-100650241D01*
X150582759Y-100450363D01*
X150347727Y-100293320D01*
X150086574Y-100185147D01*
X149809335Y-100130000D01*
X149526665Y-100130000D01*
X149249426Y-100185147D01*
X148988273Y-100293320D01*
X148753241Y-100450363D01*
X148553363Y-100650241D01*
X148396320Y-100885273D01*
X148288147Y-101146426D01*
X148233000Y-101423665D01*
X143486072Y-101423665D01*
X143486072Y-100765000D01*
X143473812Y-100640518D01*
X143437502Y-100520820D01*
X143378537Y-100410506D01*
X143299185Y-100313815D01*
X143202494Y-100234463D01*
X143092180Y-100175498D01*
X142972482Y-100139188D01*
X142848000Y-100126928D01*
X141248000Y-100126928D01*
X141123518Y-100139188D01*
X141003820Y-100175498D01*
X140893506Y-100234463D01*
X140796815Y-100313815D01*
X140717463Y-100410506D01*
X140658498Y-100520820D01*
X140622188Y-100640518D01*
X140609928Y-100765000D01*
X128865290Y-100765000D01*
X128689335Y-100730000D01*
X128406665Y-100730000D01*
X128129426Y-100785147D01*
X127868273Y-100893320D01*
X127633241Y-101050363D01*
X127433363Y-101250241D01*
X127276320Y-101485273D01*
X127168147Y-101746426D01*
X127113000Y-102023665D01*
X119665790Y-102023665D01*
X119779904Y-101815961D01*
X119739246Y-101681913D01*
X119619037Y-101427580D01*
X119451519Y-101201586D01*
X119243131Y-101012615D01*
X119001881Y-100867930D01*
X118737040Y-100773091D01*
X118515000Y-100894376D01*
X118261000Y-100894376D01*
X118038960Y-100773091D01*
X117774119Y-100867930D01*
X117532869Y-101012615D01*
X117324481Y-101201586D01*
X117156963Y-101427580D01*
X117036754Y-101681913D01*
X116996096Y-101815961D01*
X111708000Y-101815961D01*
X111708000Y-97123665D01*
X116963000Y-97123665D01*
X116963000Y-97406335D01*
X117018147Y-97683574D01*
X117126320Y-97944727D01*
X117283363Y-98179759D01*
X117483241Y-98379637D01*
X117718273Y-98536680D01*
X117979426Y-98644853D01*
X118256665Y-98700000D01*
X118539335Y-98700000D01*
X118816574Y-98644853D01*
X119077727Y-98536680D01*
X119312759Y-98379637D01*
X119512637Y-98179759D01*
X119669680Y-97944727D01*
X119777853Y-97683574D01*
X119833000Y-97406335D01*
X119833000Y-97123665D01*
X127123000Y-97123665D01*
X127123000Y-97406335D01*
X127178147Y-97683574D01*
X127286320Y-97944727D01*
X127443363Y-98179759D01*
X127643241Y-98379637D01*
X127878273Y-98536680D01*
X128139426Y-98644853D01*
X128416665Y-98700000D01*
X128699335Y-98700000D01*
X128976574Y-98644853D01*
X129237727Y-98536680D01*
X129472759Y-98379637D01*
X129672637Y-98179759D01*
X129829680Y-97944727D01*
X129937853Y-97683574D01*
X129993000Y-97406335D01*
X129993000Y-97123665D01*
X129937853Y-96846426D01*
X129829680Y-96585273D01*
X129672637Y-96350241D01*
X129472759Y-96150363D01*
X129237727Y-95993320D01*
X128976574Y-95885147D01*
X128699335Y-95830000D01*
X128416665Y-95830000D01*
X128139426Y-95885147D01*
X127878273Y-95993320D01*
X127643241Y-96150363D01*
X127443363Y-96350241D01*
X127286320Y-96585273D01*
X127178147Y-96846426D01*
X127123000Y-97123665D01*
X119833000Y-97123665D01*
X119777853Y-96846426D01*
X119669680Y-96585273D01*
X119512637Y-96350241D01*
X119312759Y-96150363D01*
X119077727Y-95993320D01*
X118816574Y-95885147D01*
X118539335Y-95830000D01*
X118256665Y-95830000D01*
X117979426Y-95885147D01*
X117718273Y-95993320D01*
X117483241Y-96150363D01*
X117283363Y-96350241D01*
X117126320Y-96585273D01*
X117018147Y-96846426D01*
X116963000Y-97123665D01*
X111708000Y-97123665D01*
X111708000Y-95123665D01*
X134563000Y-95123665D01*
X134563000Y-95406335D01*
X134618147Y-95683574D01*
X134726320Y-95944727D01*
X134883363Y-96179759D01*
X135083241Y-96379637D01*
X135318273Y-96536680D01*
X135579426Y-96644853D01*
X135856665Y-96700000D01*
X136139335Y-96700000D01*
X136416574Y-96644853D01*
X136677727Y-96536680D01*
X136912759Y-96379637D01*
X137112637Y-96179759D01*
X137269680Y-95944727D01*
X137377853Y-95683574D01*
X137433000Y-95406335D01*
X137433000Y-95123665D01*
X137377853Y-94846426D01*
X137269680Y-94585273D01*
X137112637Y-94350241D01*
X136912759Y-94150363D01*
X136677727Y-93993320D01*
X136416574Y-93885147D01*
X136139335Y-93830000D01*
X135856665Y-93830000D01*
X135579426Y-93885147D01*
X135318273Y-93993320D01*
X135083241Y-94150363D01*
X134883363Y-94350241D01*
X134726320Y-94585273D01*
X134618147Y-94846426D01*
X134563000Y-95123665D01*
X111708000Y-95123665D01*
X111708000Y-88865000D01*
X120609928Y-88865000D01*
X120622188Y-88989482D01*
X120658498Y-89109180D01*
X120717463Y-89219494D01*
X120796815Y-89316185D01*
X120893506Y-89395537D01*
X121003820Y-89454502D01*
X121076380Y-89476513D01*
X120944525Y-89608368D01*
X120782010Y-89851589D01*
X120670068Y-90121842D01*
X120613000Y-90408740D01*
X120613000Y-90701260D01*
X120670068Y-90988158D01*
X120782010Y-91258411D01*
X120944525Y-91501632D01*
X121151368Y-91708475D01*
X121325760Y-91825000D01*
X121151368Y-91941525D01*
X120944525Y-92148368D01*
X120782010Y-92391589D01*
X120670068Y-92661842D01*
X120613000Y-92948740D01*
X120613000Y-93241260D01*
X120670068Y-93528158D01*
X120782010Y-93798411D01*
X120944525Y-94041632D01*
X121151368Y-94248475D01*
X121394589Y-94410990D01*
X121664842Y-94522932D01*
X121951740Y-94580000D01*
X122244260Y-94580000D01*
X122531158Y-94522932D01*
X122801411Y-94410990D01*
X123044632Y-94248475D01*
X123251475Y-94041632D01*
X123413990Y-93798411D01*
X123525932Y-93528158D01*
X123583000Y-93241260D01*
X123583000Y-92948740D01*
X123525932Y-92661842D01*
X123413990Y-92391589D01*
X123251475Y-92148368D01*
X123044632Y-91941525D01*
X122870240Y-91825000D01*
X123044632Y-91708475D01*
X123251475Y-91501632D01*
X123413990Y-91258411D01*
X123525932Y-90988158D01*
X123583000Y-90701260D01*
X123583000Y-90408740D01*
X123525932Y-90121842D01*
X123413990Y-89851589D01*
X123251475Y-89608368D01*
X123119620Y-89476513D01*
X123192180Y-89454502D01*
X123302494Y-89395537D01*
X123399185Y-89316185D01*
X123475113Y-89223665D01*
X125313000Y-89223665D01*
X125313000Y-89506335D01*
X125368147Y-89783574D01*
X125476320Y-90044727D01*
X125633363Y-90279759D01*
X125833241Y-90479637D01*
X126068273Y-90636680D01*
X126329426Y-90744853D01*
X126606665Y-90800000D01*
X126889335Y-90800000D01*
X127166574Y-90744853D01*
X127427727Y-90636680D01*
X127662759Y-90479637D01*
X127748000Y-90394396D01*
X127833241Y-90479637D01*
X128068273Y-90636680D01*
X128329426Y-90744853D01*
X128606665Y-90800000D01*
X128889335Y-90800000D01*
X129166574Y-90744853D01*
X129427727Y-90636680D01*
X129662759Y-90479637D01*
X129862637Y-90279759D01*
X130019680Y-90044727D01*
X130064918Y-89935512D01*
X133407783Y-89935512D01*
X133449213Y-90215130D01*
X133544397Y-90481292D01*
X133611329Y-90606514D01*
X133855298Y-90678097D01*
X134668395Y-89865000D01*
X133855298Y-89051903D01*
X133611329Y-89123486D01*
X133490429Y-89378996D01*
X133421700Y-89653184D01*
X133407783Y-89935512D01*
X130064918Y-89935512D01*
X130127853Y-89783574D01*
X130183000Y-89506335D01*
X130183000Y-89223665D01*
X130127853Y-88946426D01*
X130097149Y-88872298D01*
X134034903Y-88872298D01*
X134848000Y-89685395D01*
X134862143Y-89671253D01*
X135041748Y-89850858D01*
X135027605Y-89865000D01*
X135041748Y-89879143D01*
X134862143Y-90058748D01*
X134848000Y-90044605D01*
X134034903Y-90857702D01*
X134106486Y-91101671D01*
X134361996Y-91222571D01*
X134636184Y-91291300D01*
X134918512Y-91305217D01*
X135198130Y-91263787D01*
X135464292Y-91168603D01*
X135589514Y-91101671D01*
X135661097Y-90857704D01*
X135777370Y-90973977D01*
X135852476Y-90898872D01*
X135933241Y-90979637D01*
X136168273Y-91136680D01*
X136429426Y-91244853D01*
X136706665Y-91300000D01*
X136989335Y-91300000D01*
X137266574Y-91244853D01*
X137527727Y-91136680D01*
X137762759Y-90979637D01*
X137962637Y-90779759D01*
X138119680Y-90544727D01*
X138227853Y-90283574D01*
X138283000Y-90006335D01*
X138283000Y-89723665D01*
X138227853Y-89446426D01*
X138119680Y-89185273D01*
X137962637Y-88950241D01*
X137762759Y-88750363D01*
X137527727Y-88593320D01*
X137266574Y-88485147D01*
X136989335Y-88430000D01*
X136706665Y-88430000D01*
X136429426Y-88485147D01*
X136168273Y-88593320D01*
X135933241Y-88750363D01*
X135852476Y-88831129D01*
X135777370Y-88756023D01*
X135661097Y-88872296D01*
X135589514Y-88628329D01*
X135334004Y-88507429D01*
X135059816Y-88438700D01*
X134777488Y-88424783D01*
X134497870Y-88466213D01*
X134231708Y-88561397D01*
X134106486Y-88628329D01*
X134034903Y-88872298D01*
X130097149Y-88872298D01*
X130019680Y-88685273D01*
X129862637Y-88450241D01*
X129662759Y-88250363D01*
X129427727Y-88093320D01*
X129166574Y-87985147D01*
X128889335Y-87930000D01*
X128606665Y-87930000D01*
X128329426Y-87985147D01*
X128068273Y-88093320D01*
X127833241Y-88250363D01*
X127748000Y-88335604D01*
X127662759Y-88250363D01*
X127427727Y-88093320D01*
X127166574Y-87985147D01*
X126889335Y-87930000D01*
X126606665Y-87930000D01*
X126329426Y-87985147D01*
X126068273Y-88093320D01*
X125833241Y-88250363D01*
X125633363Y-88450241D01*
X125476320Y-88685273D01*
X125368147Y-88946426D01*
X125313000Y-89223665D01*
X123475113Y-89223665D01*
X123478537Y-89219494D01*
X123537502Y-89109180D01*
X123573812Y-88989482D01*
X123586072Y-88865000D01*
X123583000Y-88300750D01*
X123424250Y-88142000D01*
X122225000Y-88142000D01*
X122225000Y-88162000D01*
X121971000Y-88162000D01*
X121971000Y-88142000D01*
X120771750Y-88142000D01*
X120613000Y-88300750D01*
X120609928Y-88865000D01*
X111708000Y-88865000D01*
X111708000Y-87165000D01*
X120609928Y-87165000D01*
X120613000Y-87729250D01*
X120771750Y-87888000D01*
X121971000Y-87888000D01*
X121971000Y-86688750D01*
X122225000Y-86688750D01*
X122225000Y-87888000D01*
X123424250Y-87888000D01*
X123583000Y-87729250D01*
X123586072Y-87165000D01*
X123573812Y-87040518D01*
X123537502Y-86920820D01*
X123478537Y-86810506D01*
X123399185Y-86713815D01*
X123302494Y-86634463D01*
X123192180Y-86575498D01*
X123072482Y-86539188D01*
X122948000Y-86526928D01*
X122383750Y-86530000D01*
X122225000Y-86688750D01*
X121971000Y-86688750D01*
X121812250Y-86530000D01*
X121248000Y-86526928D01*
X121123518Y-86539188D01*
X121003820Y-86575498D01*
X120893506Y-86634463D01*
X120796815Y-86713815D01*
X120717463Y-86810506D01*
X120658498Y-86920820D01*
X120622188Y-87040518D01*
X120609928Y-87165000D01*
X111708000Y-87165000D01*
X111708000Y-85357702D01*
X133834903Y-85357702D01*
X133906486Y-85601671D01*
X134161996Y-85722571D01*
X134436184Y-85791300D01*
X134718512Y-85805217D01*
X134998130Y-85763787D01*
X135264292Y-85668603D01*
X135389514Y-85601671D01*
X135461097Y-85357702D01*
X134648000Y-84544605D01*
X133834903Y-85357702D01*
X111708000Y-85357702D01*
X111708000Y-83053967D01*
X128263000Y-83053967D01*
X128263000Y-83376033D01*
X128325832Y-83691912D01*
X128449082Y-83989463D01*
X128628013Y-84257252D01*
X128855748Y-84484987D01*
X129123537Y-84663918D01*
X129421088Y-84787168D01*
X129736967Y-84850000D01*
X130059033Y-84850000D01*
X130374912Y-84787168D01*
X130672463Y-84663918D01*
X130940252Y-84484987D01*
X130989727Y-84435512D01*
X133207783Y-84435512D01*
X133249213Y-84715130D01*
X133344397Y-84981292D01*
X133411329Y-85106514D01*
X133655298Y-85178097D01*
X134468395Y-84365000D01*
X134827605Y-84365000D01*
X135640702Y-85178097D01*
X135884671Y-85106514D01*
X136005571Y-84851004D01*
X136074300Y-84576816D01*
X136088217Y-84294488D01*
X136077724Y-84223665D01*
X138213000Y-84223665D01*
X138213000Y-84506335D01*
X138268147Y-84783574D01*
X138376320Y-85044727D01*
X138533363Y-85279759D01*
X138733241Y-85479637D01*
X138968273Y-85636680D01*
X139229426Y-85744853D01*
X139506665Y-85800000D01*
X139789335Y-85800000D01*
X140066574Y-85744853D01*
X140327727Y-85636680D01*
X140562759Y-85479637D01*
X140762637Y-85279759D01*
X140919680Y-85044727D01*
X141027853Y-84783574D01*
X141083000Y-84506335D01*
X141083000Y-84223665D01*
X141027853Y-83946426D01*
X140919680Y-83685273D01*
X140762637Y-83450241D01*
X140562759Y-83250363D01*
X140327727Y-83093320D01*
X140066574Y-82985147D01*
X139789335Y-82930000D01*
X139506665Y-82930000D01*
X139229426Y-82985147D01*
X138968273Y-83093320D01*
X138733241Y-83250363D01*
X138533363Y-83450241D01*
X138376320Y-83685273D01*
X138268147Y-83946426D01*
X138213000Y-84223665D01*
X136077724Y-84223665D01*
X136046787Y-84014870D01*
X135951603Y-83748708D01*
X135884671Y-83623486D01*
X135640702Y-83551903D01*
X134827605Y-84365000D01*
X134468395Y-84365000D01*
X133655298Y-83551903D01*
X133411329Y-83623486D01*
X133290429Y-83878996D01*
X133221700Y-84153184D01*
X133207783Y-84435512D01*
X130989727Y-84435512D01*
X131167987Y-84257252D01*
X131346918Y-83989463D01*
X131470168Y-83691912D01*
X131533000Y-83376033D01*
X131533000Y-83372298D01*
X133834903Y-83372298D01*
X134648000Y-84185395D01*
X135461097Y-83372298D01*
X135389514Y-83128329D01*
X135134004Y-83007429D01*
X134859816Y-82938700D01*
X134577488Y-82924783D01*
X134297870Y-82966213D01*
X134031708Y-83061397D01*
X133906486Y-83128329D01*
X133834903Y-83372298D01*
X131533000Y-83372298D01*
X131533000Y-83053967D01*
X131470168Y-82738088D01*
X131346918Y-82440537D01*
X131167987Y-82172748D01*
X130940252Y-81945013D01*
X130672463Y-81766082D01*
X130374912Y-81642832D01*
X130059033Y-81580000D01*
X129736967Y-81580000D01*
X129421088Y-81642832D01*
X129123537Y-81766082D01*
X128855748Y-81945013D01*
X128628013Y-82172748D01*
X128449082Y-82440537D01*
X128325832Y-82738088D01*
X128263000Y-83053967D01*
X111708000Y-83053967D01*
X111708000Y-78650413D01*
X114992192Y-78650413D01*
X115087956Y-78914814D01*
X115377571Y-79055704D01*
X115689108Y-79137384D01*
X116010595Y-79156718D01*
X116329675Y-79112961D01*
X116634088Y-79007795D01*
X116808044Y-78914814D01*
X116903808Y-78650413D01*
X115948000Y-77694605D01*
X114992192Y-78650413D01*
X111708000Y-78650413D01*
X111708000Y-77577595D01*
X114306282Y-77577595D01*
X114350039Y-77896675D01*
X114455205Y-78201088D01*
X114548186Y-78375044D01*
X114812587Y-78470808D01*
X115768395Y-77515000D01*
X116127605Y-77515000D01*
X117083413Y-78470808D01*
X117347814Y-78375044D01*
X117488704Y-78085429D01*
X117570384Y-77773892D01*
X117589718Y-77452405D01*
X117545961Y-77133325D01*
X117440795Y-76828912D01*
X117347814Y-76654956D01*
X117083413Y-76559192D01*
X116127605Y-77515000D01*
X115768395Y-77515000D01*
X114812587Y-76559192D01*
X114548186Y-76654956D01*
X114407296Y-76944571D01*
X114325616Y-77256108D01*
X114306282Y-77577595D01*
X111708000Y-77577595D01*
X111708000Y-76379587D01*
X114992192Y-76379587D01*
X115948000Y-77335395D01*
X116903808Y-76379587D01*
X116808044Y-76115186D01*
X116518429Y-75974296D01*
X116206892Y-75892616D01*
X115885405Y-75873282D01*
X115566325Y-75917039D01*
X115261912Y-76022205D01*
X115087956Y-76115186D01*
X114992192Y-76379587D01*
X111708000Y-76379587D01*
X111708000Y-73735000D01*
X124296293Y-73735000D01*
X124166406Y-73864887D01*
G37*
%TD.AperFunction*%
M02*
