%TF.GenerationSoftware,KiCad,Pcbnew,(5.1.9)-1*%
%TF.CreationDate,2021-05-23T14:15:34+02:00*%
%TF.ProjectId,NewRadar,4e657752-6164-4617-922e-6b696361645f,Radar_1v1.1*%
%TF.SameCoordinates,Original*%
%TF.FileFunction,Soldermask,Top*%
%TF.FilePolarity,Negative*%
%FSLAX46Y46*%
G04 Gerber Fmt 4.6, Leading zero omitted, Abs format (unit mm)*
G04 Created by KiCad (PCBNEW (5.1.9)-1) date 2021-05-23 14:15:34*
%MOMM*%
%LPD*%
G01*
G04 APERTURE LIST*
%ADD10R,1.600000X1.600000*%
%ADD11O,1.600000X1.600000*%
%ADD12C,1.600000*%
%ADD13R,1.700000X1.700000*%
%ADD14O,1.700000X1.700000*%
%ADD15O,1.727200X2.032000*%
%ADD16C,4.064000*%
%ADD17C,2.000000*%
%ADD18C,0.100000*%
%ADD19R,1.500000X1.000000*%
G04 APERTURE END LIST*
D10*
X142048000Y-101565000D03*
D11*
X149668000Y-109185000D03*
X142048000Y-104105000D03*
X149668000Y-106645000D03*
X142048000Y-106645000D03*
X149668000Y-104105000D03*
X142048000Y-109185000D03*
X149668000Y-101565000D03*
D12*
X135998000Y-95265000D03*
D11*
X135998000Y-105425000D03*
D13*
X122098000Y-88015000D03*
D14*
X122098000Y-90555000D03*
X122098000Y-93095000D03*
D12*
X139648000Y-84365000D03*
X134648000Y-84365000D03*
X147248000Y-115065000D03*
X142248000Y-115065000D03*
G36*
G01*
X145223000Y-80340000D02*
X145223000Y-81590000D01*
G75*
G02*
X144973000Y-81840000I-250000J0D01*
G01*
X144048000Y-81840000D01*
G75*
G02*
X143798000Y-81590000I0J250000D01*
G01*
X143798000Y-80340000D01*
G75*
G02*
X144048000Y-80090000I250000J0D01*
G01*
X144973000Y-80090000D01*
G75*
G02*
X145223000Y-80340000I0J-250000D01*
G01*
G37*
G36*
G01*
X148198000Y-80340000D02*
X148198000Y-81590000D01*
G75*
G02*
X147948000Y-81840000I-250000J0D01*
G01*
X147023000Y-81840000D01*
G75*
G02*
X146773000Y-81590000I0J250000D01*
G01*
X146773000Y-80340000D01*
G75*
G02*
X147023000Y-80090000I250000J0D01*
G01*
X147948000Y-80090000D01*
G75*
G02*
X148198000Y-80340000I0J-250000D01*
G01*
G37*
D15*
X161798000Y-123825000D03*
X164338000Y-123825000D03*
X166878000Y-123825000D03*
X169418000Y-123825000D03*
X171958000Y-123825000D03*
X174498000Y-123825000D03*
X129794000Y-75565000D03*
X132334000Y-75565000D03*
X134874000Y-75565000D03*
X137414000Y-75565000D03*
X139954000Y-75565000D03*
X142494000Y-75565000D03*
X145034000Y-75565000D03*
X147574000Y-75565000D03*
X150114000Y-75565000D03*
X152654000Y-75565000D03*
X156718000Y-75565000D03*
X159258000Y-75565000D03*
X161798000Y-75565000D03*
X164338000Y-75565000D03*
X166878000Y-75565000D03*
X169418000Y-75565000D03*
X171958000Y-75565000D03*
X174498000Y-75565000D03*
D16*
X124968000Y-123825000D03*
X177038000Y-118745000D03*
X126238000Y-75565000D03*
X177038000Y-90805000D03*
D12*
X136848000Y-89865000D03*
X134848000Y-89865000D03*
X126748000Y-89365000D03*
X128748000Y-89365000D03*
X136098000Y-117415000D03*
X136098000Y-112415000D03*
X129298000Y-118615000D03*
X129298000Y-120615000D03*
G36*
G01*
X157723000Y-89065000D02*
X156473000Y-89065000D01*
G75*
G02*
X156223000Y-88815000I0J250000D01*
G01*
X156223000Y-87890000D01*
G75*
G02*
X156473000Y-87640000I250000J0D01*
G01*
X157723000Y-87640000D01*
G75*
G02*
X157973000Y-87890000I0J-250000D01*
G01*
X157973000Y-88815000D01*
G75*
G02*
X157723000Y-89065000I-250000J0D01*
G01*
G37*
G36*
G01*
X157723000Y-86090000D02*
X156473000Y-86090000D01*
G75*
G02*
X156223000Y-85840000I0J250000D01*
G01*
X156223000Y-84915000D01*
G75*
G02*
X156473000Y-84665000I250000J0D01*
G01*
X157723000Y-84665000D01*
G75*
G02*
X157973000Y-84915000I0J-250000D01*
G01*
X157973000Y-85840000D01*
G75*
G02*
X157723000Y-86090000I-250000J0D01*
G01*
G37*
G36*
G01*
X153323000Y-85890000D02*
X152073000Y-85890000D01*
G75*
G02*
X151823000Y-85640000I0J250000D01*
G01*
X151823000Y-84715000D01*
G75*
G02*
X152073000Y-84465000I250000J0D01*
G01*
X153323000Y-84465000D01*
G75*
G02*
X153573000Y-84715000I0J-250000D01*
G01*
X153573000Y-85640000D01*
G75*
G02*
X153323000Y-85890000I-250000J0D01*
G01*
G37*
G36*
G01*
X153323000Y-88865000D02*
X152073000Y-88865000D01*
G75*
G02*
X151823000Y-88615000I0J250000D01*
G01*
X151823000Y-87690000D01*
G75*
G02*
X152073000Y-87440000I250000J0D01*
G01*
X153323000Y-87440000D01*
G75*
G02*
X153573000Y-87690000I0J-250000D01*
G01*
X153573000Y-88615000D01*
G75*
G02*
X153323000Y-88865000I-250000J0D01*
G01*
G37*
G36*
G01*
X173523000Y-89865000D02*
X172273000Y-89865000D01*
G75*
G02*
X172023000Y-89615000I0J250000D01*
G01*
X172023000Y-88690000D01*
G75*
G02*
X172273000Y-88440000I250000J0D01*
G01*
X173523000Y-88440000D01*
G75*
G02*
X173773000Y-88690000I0J-250000D01*
G01*
X173773000Y-89615000D01*
G75*
G02*
X173523000Y-89865000I-250000J0D01*
G01*
G37*
G36*
G01*
X173523000Y-86890000D02*
X172273000Y-86890000D01*
G75*
G02*
X172023000Y-86640000I0J250000D01*
G01*
X172023000Y-85715000D01*
G75*
G02*
X172273000Y-85465000I250000J0D01*
G01*
X173523000Y-85465000D01*
G75*
G02*
X173773000Y-85715000I0J-250000D01*
G01*
X173773000Y-86640000D01*
G75*
G02*
X173523000Y-86890000I-250000J0D01*
G01*
G37*
X118398000Y-97265000D03*
D11*
X128558000Y-97265000D03*
X118388000Y-102165000D03*
D12*
X128548000Y-102165000D03*
D11*
X119638000Y-108665000D03*
D12*
X129798000Y-108665000D03*
X141538000Y-119815000D03*
D11*
X151698000Y-119815000D03*
G36*
G01*
X142098000Y-91639999D02*
X142098000Y-92890001D01*
G75*
G02*
X141848001Y-93140000I-249999J0D01*
G01*
X141047999Y-93140000D01*
G75*
G02*
X140798000Y-92890001I0J249999D01*
G01*
X140798000Y-91639999D01*
G75*
G02*
X141047999Y-91390000I249999J0D01*
G01*
X141848001Y-91390000D01*
G75*
G02*
X142098000Y-91639999I0J-249999D01*
G01*
G37*
G36*
G01*
X145198000Y-91639999D02*
X145198000Y-92890001D01*
G75*
G02*
X144948001Y-93140000I-249999J0D01*
G01*
X144147999Y-93140000D01*
G75*
G02*
X143898000Y-92890001I0J249999D01*
G01*
X143898000Y-91639999D01*
G75*
G02*
X144147999Y-91390000I249999J0D01*
G01*
X144948001Y-91390000D01*
G75*
G02*
X145198000Y-91639999I0J-249999D01*
G01*
G37*
X162398000Y-116575000D03*
D12*
X162398000Y-106415000D03*
G36*
G01*
X157623001Y-82865000D02*
X156372999Y-82865000D01*
G75*
G02*
X156123000Y-82615001I0J249999D01*
G01*
X156123000Y-81814999D01*
G75*
G02*
X156372999Y-81565000I249999J0D01*
G01*
X157623001Y-81565000D01*
G75*
G02*
X157873000Y-81814999I0J-249999D01*
G01*
X157873000Y-82615001D01*
G75*
G02*
X157623001Y-82865000I-249999J0D01*
G01*
G37*
G36*
G01*
X157623001Y-79765000D02*
X156372999Y-79765000D01*
G75*
G02*
X156123000Y-79515001I0J249999D01*
G01*
X156123000Y-78714999D01*
G75*
G02*
X156372999Y-78465000I249999J0D01*
G01*
X157623001Y-78465000D01*
G75*
G02*
X157873000Y-78714999I0J-249999D01*
G01*
X157873000Y-79515001D01*
G75*
G02*
X157623001Y-79765000I-249999J0D01*
G01*
G37*
G36*
G01*
X153223001Y-79565000D02*
X151972999Y-79565000D01*
G75*
G02*
X151723000Y-79315001I0J249999D01*
G01*
X151723000Y-78514999D01*
G75*
G02*
X151972999Y-78265000I249999J0D01*
G01*
X153223001Y-78265000D01*
G75*
G02*
X153473000Y-78514999I0J-249999D01*
G01*
X153473000Y-79315001D01*
G75*
G02*
X153223001Y-79565000I-249999J0D01*
G01*
G37*
G36*
G01*
X153223001Y-82665000D02*
X151972999Y-82665000D01*
G75*
G02*
X151723000Y-82415001I0J249999D01*
G01*
X151723000Y-81614999D01*
G75*
G02*
X151972999Y-81365000I249999J0D01*
G01*
X153223001Y-81365000D01*
G75*
G02*
X153473000Y-81614999I0J-249999D01*
G01*
X153473000Y-82415001D01*
G75*
G02*
X153223001Y-82665000I-249999J0D01*
G01*
G37*
G36*
G01*
X173423001Y-83265000D02*
X172172999Y-83265000D01*
G75*
G02*
X171923000Y-83015001I0J249999D01*
G01*
X171923000Y-82214999D01*
G75*
G02*
X172172999Y-81965000I249999J0D01*
G01*
X173423001Y-81965000D01*
G75*
G02*
X173673000Y-82214999I0J-249999D01*
G01*
X173673000Y-83015001D01*
G75*
G02*
X173423001Y-83265000I-249999J0D01*
G01*
G37*
G36*
G01*
X173423001Y-80165000D02*
X172172999Y-80165000D01*
G75*
G02*
X171923000Y-79915001I0J249999D01*
G01*
X171923000Y-79114999D01*
G75*
G02*
X172172999Y-78865000I249999J0D01*
G01*
X173423001Y-78865000D01*
G75*
G02*
X173673000Y-79114999I0J-249999D01*
G01*
X173673000Y-79915001D01*
G75*
G02*
X173423001Y-80165000I-249999J0D01*
G01*
G37*
G36*
G01*
X167498000Y-90339999D02*
X167498000Y-91590001D01*
G75*
G02*
X167248001Y-91840000I-249999J0D01*
G01*
X166447999Y-91840000D01*
G75*
G02*
X166198000Y-91590001I0J249999D01*
G01*
X166198000Y-90339999D01*
G75*
G02*
X166447999Y-90090000I249999J0D01*
G01*
X167248001Y-90090000D01*
G75*
G02*
X167498000Y-90339999I0J-249999D01*
G01*
G37*
G36*
G01*
X164398000Y-90339999D02*
X164398000Y-91590001D01*
G75*
G02*
X164148001Y-91840000I-249999J0D01*
G01*
X163347999Y-91840000D01*
G75*
G02*
X163098000Y-91590001I0J249999D01*
G01*
X163098000Y-90339999D01*
G75*
G02*
X163347999Y-90090000I249999J0D01*
G01*
X164148001Y-90090000D01*
G75*
G02*
X164398000Y-90339999I0J-249999D01*
G01*
G37*
D17*
X163598000Y-80065000D03*
X168098000Y-80065000D03*
X163598000Y-86565000D03*
X168098000Y-86565000D03*
X129898000Y-83215000D03*
X115948000Y-77515000D03*
X153348000Y-111815000D03*
X168398000Y-114865000D03*
X124348000Y-114765000D03*
X167798000Y-106815000D03*
D12*
X158098000Y-116615000D03*
D11*
X158098000Y-106455000D03*
D18*
G36*
X167448000Y-98515000D02*
G01*
X167448000Y-99065000D01*
X167447398Y-99065000D01*
X167447398Y-99089534D01*
X167442588Y-99138365D01*
X167433016Y-99186490D01*
X167418772Y-99233445D01*
X167399995Y-99278778D01*
X167376864Y-99322051D01*
X167349604Y-99362850D01*
X167318476Y-99400779D01*
X167283779Y-99435476D01*
X167245850Y-99466604D01*
X167205051Y-99493864D01*
X167161778Y-99516995D01*
X167116445Y-99535772D01*
X167069490Y-99550016D01*
X167021365Y-99559588D01*
X166972534Y-99564398D01*
X166948000Y-99564398D01*
X166948000Y-99565000D01*
X166448000Y-99565000D01*
X166448000Y-99564398D01*
X166423466Y-99564398D01*
X166374635Y-99559588D01*
X166326510Y-99550016D01*
X166279555Y-99535772D01*
X166234222Y-99516995D01*
X166190949Y-99493864D01*
X166150150Y-99466604D01*
X166112221Y-99435476D01*
X166077524Y-99400779D01*
X166046396Y-99362850D01*
X166019136Y-99322051D01*
X165996005Y-99278778D01*
X165977228Y-99233445D01*
X165962984Y-99186490D01*
X165953412Y-99138365D01*
X165948602Y-99089534D01*
X165948602Y-99065000D01*
X165948000Y-99065000D01*
X165948000Y-98515000D01*
X167448000Y-98515000D01*
G37*
G36*
X165948602Y-96465000D02*
G01*
X165948602Y-96440466D01*
X165953412Y-96391635D01*
X165962984Y-96343510D01*
X165977228Y-96296555D01*
X165996005Y-96251222D01*
X166019136Y-96207949D01*
X166046396Y-96167150D01*
X166077524Y-96129221D01*
X166112221Y-96094524D01*
X166150150Y-96063396D01*
X166190949Y-96036136D01*
X166234222Y-96013005D01*
X166279555Y-95994228D01*
X166326510Y-95979984D01*
X166374635Y-95970412D01*
X166423466Y-95965602D01*
X166448000Y-95965602D01*
X166448000Y-95965000D01*
X166948000Y-95965000D01*
X166948000Y-95965602D01*
X166972534Y-95965602D01*
X167021365Y-95970412D01*
X167069490Y-95979984D01*
X167116445Y-95994228D01*
X167161778Y-96013005D01*
X167205051Y-96036136D01*
X167245850Y-96063396D01*
X167283779Y-96094524D01*
X167318476Y-96129221D01*
X167349604Y-96167150D01*
X167376864Y-96207949D01*
X167399995Y-96251222D01*
X167418772Y-96296555D01*
X167433016Y-96343510D01*
X167442588Y-96391635D01*
X167447398Y-96440466D01*
X167447398Y-96465000D01*
X167448000Y-96465000D01*
X167448000Y-97015000D01*
X165948000Y-97015000D01*
X165948000Y-96465000D01*
X165948602Y-96465000D01*
G37*
D19*
X166698000Y-97765000D03*
D15*
X138958000Y-123865000D03*
X141498000Y-123865000D03*
X144038000Y-123865000D03*
X146578000Y-123865000D03*
X149118000Y-123865000D03*
X151658000Y-123865000D03*
X154198000Y-123865000D03*
X156738000Y-123865000D03*
D17*
X172698000Y-93465000D03*
D12*
X151998000Y-93365000D03*
X156998000Y-93365000D03*
M02*
