%TF.GenerationSoftware,KiCad,Pcbnew,(5.1.9)-1*%
%TF.CreationDate,2021-05-23T14:15:34+02:00*%
%TF.ProjectId,NewRadar,4e657752-6164-4617-922e-6b696361645f,Radar_1v1.1*%
%TF.SameCoordinates,Original*%
%TF.FileFunction,Soldermask,Bot*%
%TF.FilePolarity,Negative*%
%FSLAX46Y46*%
G04 Gerber Fmt 4.6, Leading zero omitted, Abs format (unit mm)*
G04 Created by KiCad (PCBNEW (5.1.9)-1) date 2021-05-23 14:15:34*
%MOMM*%
%LPD*%
G01*
G04 APERTURE LIST*
%ADD10R,1.600000X1.600000*%
%ADD11O,1.600000X1.600000*%
%ADD12C,1.600000*%
%ADD13R,1.700000X1.700000*%
%ADD14O,1.700000X1.700000*%
%ADD15O,1.727200X2.032000*%
%ADD16C,4.064000*%
%ADD17C,2.000000*%
G04 APERTURE END LIST*
D10*
X142048000Y-101565000D03*
D11*
X149668000Y-109185000D03*
X142048000Y-104105000D03*
X149668000Y-106645000D03*
X142048000Y-106645000D03*
X149668000Y-104105000D03*
X142048000Y-109185000D03*
X149668000Y-101565000D03*
D12*
X135998000Y-95265000D03*
D11*
X135998000Y-105425000D03*
D13*
X122098000Y-88015000D03*
D14*
X122098000Y-90555000D03*
X122098000Y-93095000D03*
D12*
X139648000Y-84365000D03*
X134648000Y-84365000D03*
X147248000Y-115065000D03*
X142248000Y-115065000D03*
D15*
X161798000Y-123825000D03*
X164338000Y-123825000D03*
X166878000Y-123825000D03*
X169418000Y-123825000D03*
X171958000Y-123825000D03*
X174498000Y-123825000D03*
X129794000Y-75565000D03*
X132334000Y-75565000D03*
X134874000Y-75565000D03*
X137414000Y-75565000D03*
X139954000Y-75565000D03*
X142494000Y-75565000D03*
X145034000Y-75565000D03*
X147574000Y-75565000D03*
X150114000Y-75565000D03*
X152654000Y-75565000D03*
X156718000Y-75565000D03*
X159258000Y-75565000D03*
X161798000Y-75565000D03*
X164338000Y-75565000D03*
X166878000Y-75565000D03*
X169418000Y-75565000D03*
X171958000Y-75565000D03*
X174498000Y-75565000D03*
D16*
X124968000Y-123825000D03*
X177038000Y-118745000D03*
X126238000Y-75565000D03*
X177038000Y-90805000D03*
D12*
X136848000Y-89865000D03*
X134848000Y-89865000D03*
X126748000Y-89365000D03*
X128748000Y-89365000D03*
X136098000Y-117415000D03*
X136098000Y-112415000D03*
X129298000Y-118615000D03*
X129298000Y-120615000D03*
X118398000Y-97265000D03*
D11*
X128558000Y-97265000D03*
X118388000Y-102165000D03*
D12*
X128548000Y-102165000D03*
D11*
X119638000Y-108665000D03*
D12*
X129798000Y-108665000D03*
X141538000Y-119815000D03*
D11*
X151698000Y-119815000D03*
X162398000Y-116575000D03*
D12*
X162398000Y-106415000D03*
D17*
X163598000Y-80065000D03*
X168098000Y-80065000D03*
X163598000Y-86565000D03*
X168098000Y-86565000D03*
X129898000Y-83215000D03*
X115948000Y-77515000D03*
X153348000Y-111815000D03*
X168398000Y-114865000D03*
X124348000Y-114765000D03*
X167798000Y-106815000D03*
D12*
X158098000Y-116615000D03*
D11*
X158098000Y-106455000D03*
D15*
X138958000Y-123865000D03*
X141498000Y-123865000D03*
X144038000Y-123865000D03*
X146578000Y-123865000D03*
X149118000Y-123865000D03*
X151658000Y-123865000D03*
X154198000Y-123865000D03*
X156738000Y-123865000D03*
D17*
X172698000Y-93465000D03*
D12*
X151998000Y-93365000D03*
X156998000Y-93365000D03*
M02*
